<?xml version="1.0" encoding="UTF-8"?>
<!DOCTYPE svg PUBLIC "-//W3C//DTD SVG 1.1//EN" "http://www.w3.org/Graphics/SVG/1.1/DTD/svg11.dtd">
<!-- Creator: CorelDRAW 2018 (64 Bit Versión de evaluación) -->
<svg xmlns="http://www.w3.org/2000/svg" xml:space="preserve" width="20.7023mm" height="20.0342mm" version="1.1" style="shape-rendering:geometricPrecision; text-rendering:geometricPrecision; image-rendering:optimizeQuality; fill-rule:evenodd; clip-rule:evenodd"
viewBox="0 0 588.31 569.33"
 xmlns:xlink="http://www.w3.org/1999/xlink">
 <defs>
  <style type="text/css">
   <![CDATA[
    .fil0 {fill:#FEFEFE}
   ]]>
  </style>
 </defs>
 <g id="Capa_x0020_1">
  <metadata id="CorelCorpID_0Corel-Layer"/>
  <path class="fil0" d="M25 25.79l21.05 0.07 0 517.59c-4.47,0.65 -17.19,0.99 -21.13,-0.3l0.08 -517.36zm374.33 316.81l-0.23 82.35c-6.97,-0.14 -75.25,-23.96 -82.66,-28.08l-0.11 -82.15 39.94 14.49c8.76,3.26 35.7,12.58 43.06,13.39zm82.76 11.65c8.62,-1.96 18.81,-0.4 43.75,-7.44 6.23,-1.76 12.71,-4.15 18.72,-6.63 5.31,-2.19 13.31,-6.96 18.3,-8.49l0.1 81.85c-17.42,12.27 -58.1,22.68 -80.35,22.68l-0.52 -81.98zm-331.29 -78.51c15.91,0 29.61,-0.02 44.2,2.28l38.56 7.88 -0.15 82.76c-21.47,-5.51 -56.91,-13.29 -82.63,-10.24l0.02 -82.69zm248.52 -15.77c5.15,1.9 13.52,3.59 18.68,4.73 18.7,4.14 44.64,7.77 63.85,6.53l-0.25 82.47c-15.05,1.26 -31.2,-0.56 -44.49,-2.7 -9.1,-1.47 -30.54,-5.12 -37.79,-8.4l-0.01 -82.64zm-248.43 -67.05c-1.02,13.55 -0.21,45.81 -0.21,62.61l-0.47 18.7c-0,-0.01 0.16,0.81 -2.2,1.31l-4.07 0.37c-2.01,0.18 -3.16,0.4 -5.43,0.65 -9.96,1.09 -22.06,3.63 -31.23,6.43 -18.02,5.5 -24.46,10.66 -35.89,14.84l0.13 -82.82c5.48,-1.77 11.6,-5.5 17.49,-8.08 18.29,-8.01 41.61,-13.52 61.89,-14.01zm331.78 -5.02c29.58,0 58.67,-10.98 80.31,-22.41l0 81.26c-2.97,5.43 -28.76,14.34 -35.54,16.4 -13.36,4.06 -28.69,7.53 -45.03,7.53l0.27 -82.78zm-331.78 5.02l-0.11 -81.37c3.16,-4.55 16.06,-1.86 21.11,-1.46 18.65,1.48 23.76,1.85 42.66,5.48l18.86 4.66 0.15 82.88c-12.94,-2.6 -25.45,-6.36 -39.72,-8.35 -9.96,-1.39 -33.48,-4 -42.95,-1.84zm248.43 67.05c-13.83,-4.46 -28.1,-8.62 -41.88,-13.36 -7.12,-2.45 -36.47,-14.08 -41.11,-14.81l0 81.39c-3.55,0.7 -16.22,-5.1 -20.78,-6.68 -21.8,-7.56 -34.6,-12.62 -57.32,-19.19 -2.8,-0.81 -2.33,-0.21 -4.67,-1.65l0.01 -82.21c6.93,1.26 15.15,4.22 21.81,6.34l60.94 21.36 0 -81.57c2.82,-0.38 50.51,17.6 61.46,21.16 4.57,1.49 17.07,5.78 21.32,6.03l0.06 -80.1c6.51,0.96 12.87,3.09 19.24,4.52 22.31,5.01 40.07,6.46 63.51,6.46l-0.07 80.25c-34.25,0 -53.68,-3.56 -82.76,-11.07l0.21 83.13zm-165.91 -139.74l0.14 -79.88c12.21,-0.6 71.98,24.85 82.77,27.28l-0.31 80.58c-12.95,-4.14 -26.97,-10.05 -40.3,-14.75l-21.31 -7.02c-3.64,-1.37 -6.68,-2 -10.67,-3.32 -3.8,-1.25 -6.98,-1.59 -10.31,-2.9zm-161.97 -68.74c6.03,-2.01 11.74,-5.6 17.33,-8.01 13.6,-5.86 51.85,-16.96 61.5,-13.81 1.18,4.69 0.89,76.8 -0.22,79.43 -2.21,1.27 -18.3,2.46 -22.41,3.19 -13.28,2.35 -26.69,6.35 -39.06,11.64 -6.08,2.6 -11.37,5.89 -17.19,8.06l0.05 -80.5zm-71.1 95.18l0 326.77c0,13.49 -0.78,73.87 0.04,84.35 1.26,15.96 25.05,10.46 43.3,11.22 35.27,1.47 27.71,-5.08 27.71,-70.11l0 -37.05c0,-18.09 -0.91,-38.65 0.16,-56.43 8.41,-2.81 18.78,-9.73 35.41,-14.69 106.59,-31.81 207.49,42.52 315.67,65.36 53.77,11.35 102.85,6.58 149.87,-23.04 6.63,-4.17 15.81,-12.82 15.81,-23.87l0 -352.05c0,-3.04 -0.79,-4.94 -1.85,-6.9 -8.11,-2.14 -11.59,2.8 -22.57,8.98 -21.3,11.99 -51.35,22.67 -76.72,23.14 -46.26,0.86 -76.97,-6.35 -114.5,-18.91 -33.05,-11.06 -65.21,-24.35 -97.65,-35.62 -61.54,-21.37 -122,-36.31 -184.59,-10.07 -6.45,2.7 -12.94,6.91 -19.05,8.84 0,-8.84 1.71,-19.34 -5.66,-23.92 -6.46,-4.02 -19.08,-2.26 -28.18,-2.26 -36.57,0 -37.21,-2.53 -37.21,24.25 0.01,40.69 0,81.36 0,122.03z"/>
 </g>
</svg>
