<?xml version="1.0" encoding="UTF-8"?>
<!DOCTYPE svg PUBLIC "-//W3C//DTD SVG 1.1//EN" "http://www.w3.org/Graphics/SVG/1.1/DTD/svg11.dtd">
<!-- Creator: CorelDRAW 2018 (64 Bit Versión de evaluación) -->
<svg xmlns="http://www.w3.org/2000/svg" xml:space="preserve" width="24.0913mm" height="20.4332mm" version="1.1" style="shape-rendering:geometricPrecision; text-rendering:geometricPrecision; image-rendering:optimizeQuality; fill-rule:evenodd; clip-rule:evenodd"
viewBox="0 0 2495.53 2116.6"
 xmlns:xlink="http://www.w3.org/1999/xlink">
 <defs>
  <style type="text/css">
   <![CDATA[
    .str1 {stroke:#201E1E;stroke-width:77.69;stroke-miterlimit:22.9256}
    .str0 {stroke:#201E1E;stroke-width:155.38;stroke-miterlimit:22.9256}
    .str3 {stroke:#201E1E;stroke-width:51.79;stroke-linejoin:round;stroke-miterlimit:22.9256}
    .str2 {stroke:#201E1E;stroke-width:25.9;stroke-linecap:round;stroke-miterlimit:22.9256}
    .fil1 {fill:none}
    .fil0 {fill:#201E1E;fill-rule:nonzero}
   ]]>
  </style>
 </defs>
 <g id="Capa_x0020_1">
  <metadata id="CorelCorpID_0Corel-Layer"/>
  <g>
   <path class="fil0" d="M2302.25 347.71l0 508.12 -155.38 0 0 -508.12 0 0 155.38 0zm-160.48 10.95l0 -155.38 0 0 6.18 0.03 6.06 0.1 6.18 0.19 6.27 0.29 6.18 0.42 6.23 0.56 6.38 0.75 6.56 0.96 6.67 1.22 6.92 1.55 7.03 1.93 7.22 2.36 7.42 2.91 7.46 3.46 7.47 4.09 7.57 4.89 7.34 5.61 6.85 6.14 6.52 6.87 5.9 7.35 5.16 7.59 4.53 7.9 3.87 8.1 3.17 8.02 2.54 7.82 2.07 7.84 1.64 7.85 1.2 7.61 0.86 7.47 0.59 7.52 0.33 7.52 0.1 7.48 -155.38 0 -0.04 -3.11 -0.1 -2.51 -0.16 -1.97 -0.18 -1.48 -0.12 -0.82 0 -0.06 0.1 0.4 0.28 0.86 0.6 1.51 0.97 2.03 1.29 2.27 1.62 2.37 2.05 2.55 2.31 2.43 2.31 2.08 2.48 1.89 2.35 1.53 1.92 1.05 1.55 0.73 1.18 0.47 0.61 0.21 0.07 0.02 -0.39 -0.08 -1.02 -0.19 -1.48 -0.22 -2.03 -0.23 -2.56 -0.23 -2.97 -0.2 -3.26 -0.17 -3.74 -0.1 -4.24 -0.06 -4.51 -0.03 0 0zm-1143 -155.38l1143 0 0 155.38 -1143 0 0 0 0 -155.38zm-201.74 -47.32l2.32 -155.36 0 0 18.86 1.39 18.36 3.57 17.41 5.56 16.12 7.24 14.72 8.55 13.27 9.5 11.9 10.12 10.72 10.56 9.65 10.8 8.77 10.94 8.03 11.02 7.34 10.92 6.82 10.82 6.37 10.71 5.94 10.42 5.64 10.17 5.32 9.83 5.04 9.35 4.79 8.83 4.54 8.19 4.3 7.49 4 6.64 3.6 5.61 3.19 4.56 2.61 3.38 1.75 2.02 0.63 0.64 -0.86 -0.64 -2.6 -1.56 -4.46 -1.91 -5.96 -1.51 -6.39 -0.54 0 155.38 -19.86 -1.7 -18.84 -4.87 -16.83 -7.33 -14.49 -8.9 -12.34 -9.76 -10.47 -10.11 -9.02 -10.18 -7.91 -10.17 -7.13 -10.15 -6.55 -10.15 -6.03 -10.02 -5.69 -9.91 -5.43 -9.79 -5.22 -9.61 -5.07 -9.4 -4.91 -9.06 -4.83 -8.72 -4.75 -8.35 -4.63 -7.79 -4.54 -7.22 -4.4 -6.57 -4.17 -5.74 -3.95 -4.93 -3.63 -4.07 -3.16 -3.14 -2.64 -2.27 -1.98 -1.44 -1.29 -0.78 -0.73 -0.34 -0.28 -0.11 -0.27 -0.05 -0.71 -0.06 0 0zm-422.73 0l2.28 -155.36 0 0 12.52 0.17 12.67 0.12 12.74 0.11 12.81 0.07 12.95 0.05 12.98 0.03 13.07 0 13.12 -0.01 13.22 -0.04 13.27 -0.04 13.28 -0.06 13.35 -0.07 13.39 -0.08 13.41 -0.08 13.42 -0.09 13.47 -0.09 13.47 -0.09 13.49 -0.09 13.48 -0.08 13.46 -0.08 13.46 -0.07 13.47 -0.06 13.44 -0.04 13.35 -0.03 13.37 -0.02 13.35 0.01 13.26 0.03 13.23 0.05 13.16 0.08 13.07 0.1 13.07 0.15 12.97 0.18 -2.32 155.36 -12.53 -0.18 -12.62 -0.12 -12.76 -0.1 -12.84 -0.08 -12.92 -0.05 -13.01 -0.03 -13.04 -0.01 -13.12 0.02 -13.25 0.03 -13.25 0.04 -13.28 0.06 -13.35 0.07 -13.39 0.08 -13.41 0.08 -13.42 0.09 -13.47 0.09 -13.47 0.09 -13.49 0.09 -13.48 0.08 -13.46 0.08 -13.46 0.07 -13.47 0.06 -13.39 0.04 -13.38 0.04 -13.37 0.01 -13.32 0 -13.29 -0.03 -13.2 -0.05 -13.19 -0.07 -13.11 -0.11 -13 -0.15 -12.98 -0.17 0 0zm-16.26 30.1l-155.38 0 0 0 0.11 -8.46 0.33 -8.4 0.57 -8.33 0.82 -8.36 1.12 -8.36 1.4 -8.33 1.73 -8.28 2.07 -8.29 2.45 -8.27 2.82 -8.11 3.26 -8.15 3.78 -8.15 4.25 -8.01 4.74 -7.81 5.22 -7.55 5.75 -7.33 6.32 -7.07 6.82 -6.7 7.18 -6.2 7.6 -5.75 7.97 -5.25 8.27 -4.72 8.55 -4.18 8.65 -3.6 8.82 -3.1 8.98 -2.59 8.93 -2.07 9.04 -1.63 9.04 -1.18 9.04 -0.78 9.18 -0.4 9.12 -0.03 -2.28 155.36 -3.25 0.01 -2.73 0.11 -2.41 0.22 -1.98 0.25 -1.52 0.28 -1.2 0.27 -0.71 0.21 -0.45 0.16 -0.2 0.08 0.13 -0.06 0.29 -0.17 0.38 -0.26 0.44 -0.32 0.4 -0.36 0.46 -0.45 0.35 -0.38 0.2 -0.25 0.04 -0.05 -0.06 0.1 -0.17 0.3 -0.26 0.57 -0.38 0.96 -0.48 1.38 -0.49 1.64 -0.5 1.99 -0.49 2.37 -0.47 2.71 -0.39 3.04 -0.34 3.43 -0.26 3.81 -0.17 4.11 -0.05 4.4 0 0zm-155.38 671.49l0 -671.49 155.38 0 0 671.49 -155.38 0z"/>
  </g>
  <path class="fil1 str0" d="M110.91 876.71l2273.71 0c10.02,0 18.66,3.39 25.18,9.88 6.53,6.51 9.14,14.31 7.62,22.76l-197.71 1105.48c-2.5,13.94 -16.29,24.07 -32.8,24.07l-1850.25 0c-16.27,0 -29.9,-9.79 -32.69,-23.48l-225.77 -1105.48c-1.74,-8.54 0.77,-16.49 7.29,-23.12 6.53,-6.63 15.26,-10.11 25.4,-10.11z"/>
  <rect class="fil1 str1" x="1248.34" y="1252.93" width="584.76" height="361.73" rx="37.28" ry="37.28"/>
  <path class="fil1 str2" d="M1366.21 1379.16c343.47,0 343.47,0 343.47,0"/>
  <path class="fil1 str2" d="M1363.4 1493.3c343.47,0 343.47,0 343.47,0"/>
  <path class="fil1 str3" d="M492.5 857.15l0 -166.98c0,-11.47 8.46,-20.82 18.83,-20.82l1490.26 0c10.37,0 18.83,9.37 18.83,20.82l0 166.98"/>
  <path class="fil1 str3" d="M583.51 669.34l0 -123.98c0,-11.47 7.46,-20.82 16.6,-20.82l1313.85 0c9.15,0 16.6,9.47 16.6,20.82l0 123.98"/>
 </g>
</svg>
