<?xml version="1.0" encoding="UTF-8"?>
<!DOCTYPE svg PUBLIC "-//W3C//DTD SVG 1.1//EN" "http://www.w3.org/Graphics/SVG/1.1/DTD/svg11.dtd">
<!-- Creator: CorelDRAW 2018 (64 Bit Versión de evaluación) -->
<svg xmlns="http://www.w3.org/2000/svg" xml:space="preserve" width="25mm" height="25mm" version="1.1" style="shape-rendering:geometricPrecision; text-rendering:geometricPrecision; image-rendering:optimizeQuality; fill-rule:evenodd; clip-rule:evenodd"
viewBox="0 0 347.22 347.22"
 xmlns:xlink="http://www.w3.org/1999/xlink">
 <defs>
  <style type="text/css">
   <![CDATA[
    .fil0 {fill:none}
    .fil3 {fill:#A9ABAE}
    .fil2 {fill:#96989A}
    .fil1 {fill:#373435}
   ]]>
  </style>
 </defs>
 <g id="Capa_x0020_1">
  <metadata id="CorelCorpID_0Corel-Layer"/>
  <g id="_2460984913536">
   <path class="fil0" d="M175.39 0c20.73,0.21 41.78,4.16 62.21,12.26 17.66,7.01 33.54,16.59 47.37,28.14m-110.75 74.88c6.96,0.07 14.03,1.4 20.89,4.12 5.94,2.35 11.27,5.58 15.92,9.46m-35.63 -128.87l-1.17 115.29m110.75 -74.88l-73.94 88.46"/>
   <path class="fil0" d="M52.11 49.59c14.81,-14.51 32.49,-26.6 52.66,-35.32 17.44,-7.54 35.45,-11.99 53.39,-13.59m-25.36 131.26c4.97,-4.87 10.91,-8.93 17.68,-11.86 5.86,-2.53 11.91,-4.03 17.94,-4.57m-116.32 -65.92l80.69 82.35m25.36 -131.26l10.27 114.84"/>
   <path class="fil0" d="M-0 171.83c0.21,-20.73 4.16,-41.78 12.26,-62.21 7.01,-17.66 16.59,-33.54 28.14,-47.37m74.88 110.75c0.07,-6.96 1.4,-14.03 4.12,-20.89 2.35,-5.94 5.58,-11.27 9.46,-15.92m-128.87 35.63l115.29 1.17m-74.88 -110.75l88.46 73.94"/>
   <path class="fil0" d="M49.59 295.12c-14.51,-14.81 -26.6,-32.49 -35.32,-52.66 -7.54,-17.44 -11.99,-35.45 -13.59,-53.39m131.26 25.36c-4.87,-4.97 -8.93,-10.91 -11.86,-17.68 -2.53,-5.86 -4.03,-11.91 -4.57,-17.94m-65.92 116.32l82.35 -80.69m-131.26 -25.36l114.84 -10.27"/>
   <path class="fil0" d="M171.83 347.22c-20.73,-0.21 -41.78,-4.16 -62.21,-12.26 -17.66,-7.01 -33.54,-16.59 -47.37,-28.14m110.75 -74.88c-6.96,-0.07 -14.03,-1.4 -20.89,-4.12 -5.94,-2.35 -11.27,-5.58 -15.92,-9.46m35.63 128.87l1.17 -115.29m-110.75 74.88l73.94 -88.46"/>
   <path class="fil0" d="M295.12 297.63c-14.81,14.51 -32.49,26.6 -52.66,35.32 -17.44,7.54 -35.45,11.99 -53.39,13.59m25.36 -131.26c-4.97,4.87 -10.91,8.93 -17.68,11.86 -5.86,2.53 -11.91,4.03 -17.94,4.57m116.32 65.92l-80.69 -82.35m-25.36 131.26l-10.27 -114.84"/>
   <path class="fil0" d="M347.22 175.39c-0.21,20.73 -4.16,41.78 -12.26,62.21 -7.01,17.66 -16.59,33.54 -28.14,47.37m-74.88 -110.75c-0.07,6.96 -1.4,14.03 -4.12,20.89 -2.35,5.94 -5.58,11.27 -9.46,15.92m128.87 -35.63l-115.29 -1.17m74.88 110.75l-88.46 -73.94"/>
   <path class="fil0" d="M297.63 52.11c14.51,14.81 26.6,32.49 35.32,52.66 7.54,17.44 11.99,35.45 13.59,53.39m-131.26 -25.36c4.87,4.97 8.93,10.91 11.86,17.68 2.53,5.86 4.03,11.91 4.57,17.94m65.93 -116.32l-82.35 80.69m131.26 25.36l-114.84 10.27"/>
   <path class="fil1" d="M332.95 104.77c-8.72,-20.17 -20.8,-37.85 -35.32,-52.66l-82.35 80.69c4.87,4.97 8.93,10.91 11.86,17.68 2.53,5.86 4.03,11.91 4.57,17.94l114.84 -10.27c-1.61,-17.95 -6.06,-35.95 -13.59,-53.39z"/>
   <path class="fil2" d="M120.08 196.74c-2.53,-5.86 -4.03,-11.91 -4.57,-17.94l-114.84 10.27c1.61,17.95 6.06,35.95 13.59,53.39 8.72,20.17 20.8,37.85 35.32,52.66l82.35 -80.69c-4.87,-4.97 -8.93,-10.91 -11.86,-17.68z"/>
   <path class="fil3" d="M0 171.83l115.29 1.17c0.07,-6.96 1.4,-14.03 4.12,-20.89 2.35,-5.94 5.58,-11.27 9.46,-15.92l-88.46 -73.94c-11.55,13.83 -21.14,29.7 -28.14,47.37 -8.1,20.43 -12.05,41.47 -12.26,62.21z"/>
   <path class="fil3" d="M52.11 49.59l80.69 82.35c4.97,-4.87 10.91,-8.93 17.68,-11.86 5.86,-2.53 11.91,-4.03 17.94,-4.57l-10.27 -114.84c-17.95,1.61 -35.95,6.06 -53.39,13.59 -20.17,8.72 -37.85,20.8 -52.66,35.32z"/>
   <path class="fil1" d="M175.39 0l-1.17 115.29c6.96,0.07 14.03,1.4 20.89,4.12 5.94,2.35 11.27,5.58 15.92,9.46l73.94 -88.46c-13.83,-11.55 -29.7,-21.14 -47.37,-28.14 -20.43,-8.1 -41.47,-12.05 -62.21,-12.26z"/>
   <path class="fil1" d="M347.22 175.39l-115.29 -1.17c-0.07,6.96 -1.4,14.03 -4.12,20.89 -2.35,5.94 -5.58,11.27 -9.46,15.92l88.46 73.94c11.55,-13.83 21.14,-29.7 28.14,-47.37 8.1,-20.43 12.05,-41.47 12.26,-62.21z"/>
   <path class="fil1" d="M295.11 297.63l-80.69 -82.35c-4.97,4.87 -10.91,8.93 -17.68,11.86 -5.86,2.53 -11.91,4.03 -17.94,4.57l10.27 114.84c17.95,-1.61 35.95,-6.06 53.39,-13.59 20.17,-8.72 37.85,-20.8 52.66,-35.32z"/>
   <path class="fil1" d="M171.83 347.22l1.17 -115.29c-6.96,-0.07 -14.03,-1.4 -20.89,-4.12 -5.94,-2.35 -11.27,-5.58 -15.92,-9.46l-73.94 88.46c13.83,11.55 29.7,21.14 47.37,28.14 20.43,8.1 41.47,12.05 62.21,12.26z"/>
  </g>
 </g>
</svg>
