<?xml version="1.0" encoding="UTF-8"?>
<!DOCTYPE svg PUBLIC "-//W3C//DTD SVG 1.1//EN" "http://www.w3.org/Graphics/SVG/1.1/DTD/svg11.dtd">
<!-- Creator: CorelDRAW 2018 (64 Bit Versión de evaluación) -->
<svg xmlns="http://www.w3.org/2000/svg" xml:space="preserve" width="25mm" height="25mm" version="1.1" style="shape-rendering:geometricPrecision; text-rendering:geometricPrecision; image-rendering:optimizeQuality; fill-rule:evenodd; clip-rule:evenodd"
viewBox="0 0 866.8 866.8"
 xmlns:xlink="http://www.w3.org/1999/xlink">
 <defs>
  <style type="text/css">
   <![CDATA[
    .fil0 {fill:none}
    .fil1 {fill:#A5A5A5}
    .fil2 {fill:#E6E6E6}
   ]]>
  </style>
 </defs>
 <g id="Capa_x0020_1">
  <metadata id="CorelCorpID_0Corel-Layer"/>
  <path class="fil0" d="M437.85 0c51.76,0.52 104.3,10.39 155.3,30.61 44.1,17.49 83.73,41.41 118.25,70.25m-276.47 186.94c17.38,0.18 35.03,3.49 52.15,10.28 14.82,5.88 28.14,13.92 39.74,23.61m-88.95 -321.7l-2.93 287.81m276.47 -186.94l-184.59 220.84"/>
  <path class="fil0" d="M130.08 123.8c36.97,-36.23 81.1,-66.4 131.46,-88.16 43.55,-18.82 88.49,-29.93 133.29,-33.94m-63.3 327.68c12.42,-12.17 27.23,-22.3 44.15,-29.6 14.63,-6.32 29.73,-10.05 44.79,-11.4m-290.38 -164.57l201.44 205.58m63.3 -327.68l25.63 286.68"/>
  <path class="fil0" d="M-0 428.96c0.52,-51.76 10.39,-104.3 30.61,-155.3 17.49,-44.1 41.41,-83.73 70.25,-118.25m186.94 276.47c0.18,-17.38 3.49,-35.03 10.28,-52.15 5.88,-14.82 13.92,-28.14 23.61,-39.73m-321.7 88.95l287.81 2.93m-186.94 -276.47l220.84 184.59"/>
  <path class="fil0" d="M123.8 736.72c-36.23,-36.97 -66.4,-81.1 -88.16,-131.46 -18.82,-43.55 -29.93,-88.49 -33.94,-133.29m327.68 63.3c-12.17,-12.42 -22.3,-27.23 -29.6,-44.15 -6.32,-14.63 -10.05,-29.73 -11.4,-44.79m-164.57 290.38l205.58 -201.44m-327.68 -63.3l286.68 -25.63"/>
  <path class="fil0" d="M428.96 866.81c-51.76,-0.52 -104.3,-10.39 -155.3,-30.61 -44.1,-17.49 -83.73,-41.41 -118.25,-70.25m276.47 -186.94c-17.38,-0.18 -35.03,-3.49 -52.15,-10.28 -14.82,-5.88 -28.14,-13.92 -39.73,-23.61m88.95 321.7l2.93 -287.81m-276.47 186.94l184.59 -220.84"/>
  <path class="fil0" d="M736.72 743.01c-36.97,36.23 -81.1,66.4 -131.46,88.16 -43.55,18.82 -88.49,29.93 -133.29,33.94m63.3 -327.68c-12.42,12.16 -27.23,22.3 -44.15,29.6 -14.63,6.32 -29.73,10.05 -44.79,11.4m290.38 164.57l-201.44 -205.58m-63.3 327.68l-25.63 -286.68"/>
  <path class="fil0" d="M866.81 437.85c-0.52,51.76 -10.39,104.3 -30.61,155.3 -17.49,44.1 -41.41,83.73 -70.25,118.25m-186.94 -276.47c-0.18,17.38 -3.49,35.03 -10.28,52.15 -5.88,14.82 -13.92,28.14 -23.61,39.74m321.7 -88.95l-287.81 -2.93m186.94 276.47l-220.84 -184.59"/>
  <path class="fil0" d="M743.01 130.08c36.23,36.97 66.4,81.1 88.16,131.46 18.82,43.55 29.93,88.49 33.94,133.29m-327.68 -63.3c12.16,12.42 22.3,27.23 29.6,44.15 6.32,14.63 10.05,29.73 11.4,44.79m164.57 -290.38l-205.58 201.44m327.68 63.3l-286.68 25.63"/>
  <path class="fil1" d="M831.17 261.54c-21.76,-50.36 -51.93,-94.49 -88.16,-131.45l-205.58 201.43c12.16,12.42 22.3,27.23 29.6,44.15 6.32,14.63 10.05,29.73 11.4,44.79l286.68 -25.64c-4.01,-44.8 -15.12,-89.74 -33.94,-133.29z"/>
  <path class="fil2" d="M299.78 491.14c-6.32,-14.63 -10.05,-29.73 -11.4,-44.79l-286.68 25.64c4.01,44.8 15.12,89.74 33.94,133.29 21.76,50.36 51.93,94.49 88.16,131.45l205.58 -201.43c-12.16,-12.42 -22.3,-27.23 -29.6,-44.15z"/>
  <path class="fil2" d="M0 428.96l287.8 2.93c0.18,-17.38 3.49,-35.03 10.28,-52.15 5.88,-14.82 13.92,-28.14 23.61,-39.73l-220.84 -184.59c-28.84,34.52 -52.76,74.15 -70.25,118.25 -20.22,51 -30.09,103.54 -30.61,155.29z"/>
  <path class="fil2" d="M130.09 123.8l201.43 205.58c12.42,-12.16 27.23,-22.3 44.15,-29.6 14.63,-6.32 29.73,-10.05 44.79,-11.4l-25.64 -286.68c-44.8,4.01 -89.74,15.12 -133.29,33.94 -50.36,21.76 -94.49,51.93 -131.45,88.16z"/>
  <path class="fil1" d="M437.85 0l-2.93 287.8c17.38,0.18 35.03,3.49 52.15,10.28 14.82,5.88 28.14,13.92 39.74,23.61l184.59 -220.84c-34.52,-28.84 -74.15,-52.76 -118.25,-70.25 -51,-20.22 -103.54,-30.09 -155.29,-30.61z"/>
  <path class="fil1" d="M866.8 437.85l-287.8 -2.93c-0.18,17.38 -3.49,35.03 -10.28,52.15 -5.88,14.82 -13.92,28.14 -23.61,39.74l220.84 184.59c28.84,-34.52 52.76,-74.15 70.25,-118.25 20.22,-51 30.09,-103.54 30.61,-155.29z"/>
  <path class="fil1" d="M736.72 743.01l-201.43 -205.58c-12.42,12.16 -27.23,22.3 -44.15,29.6 -14.63,6.32 -29.73,10.05 -44.79,11.4l25.64 286.68c44.8,-4.01 89.74,-15.12 133.29,-33.94 50.36,-21.76 94.49,-51.93 131.45,-88.16z"/>
  <path class="fil1" d="M428.96 866.8l2.93 -287.8c-17.38,-0.18 -35.03,-3.49 -52.15,-10.28 -14.82,-5.88 -28.14,-13.92 -39.73,-23.61l-184.59 220.84c34.52,28.84 74.15,52.76 118.25,70.25 51,20.22 103.54,30.09 155.29,30.61z"/>
 </g>
</svg>
