<?xml version="1.0" encoding="UTF-8"?>
<!DOCTYPE svg PUBLIC "-//W3C//DTD SVG 1.1//EN" "http://www.w3.org/Graphics/SVG/1.1/DTD/svg11.dtd">
<!-- Creator: CorelDRAW 2018 (64 Bit Versión de evaluación) -->
<svg xmlns="http://www.w3.org/2000/svg" xml:space="preserve" width="25mm" height="25mm" version="1.1" style="shape-rendering:geometricPrecision; text-rendering:geometricPrecision; image-rendering:optimizeQuality; fill-rule:evenodd; clip-rule:evenodd"
viewBox="0 0 535.91 535.91"
 xmlns:xlink="http://www.w3.org/1999/xlink">
 <defs>
  <style type="text/css">
   <![CDATA[
    .fil0 {fill:none}
    .fil3 {fill:#BFADFE}
    .fil1 {fill:#BFADFE}
    .fil2 {fill:#DFD6FF}
   ]]>
  </style>
 </defs>
 <g id="Capa_x0020_1">
  <metadata id="CorelCorpID_0Corel-Layer"/>
  <path class="fil0" d="M270.71 0c32,0.32 64.49,6.42 96.01,18.93 27.26,10.81 51.77,25.6 73.11,43.43m-170.93 115.58c10.75,0.11 21.66,2.16 32.24,6.36 9.16,3.63 17.4,8.6 24.57,14.6m-55 -198.9l-1.81 177.94m170.93 -115.58l-114.12 136.54"/>
  <path class="fil0" d="M80.43 76.54c22.86,-22.4 50.14,-41.06 81.27,-54.51 26.92,-11.63 54.71,-18.5 82.41,-20.98m-39.14 202.6c7.68,-7.52 16.84,-13.79 27.3,-18.3 9.05,-3.91 18.38,-6.22 27.69,-7.05m-179.53 -101.75l124.54 127.1m39.14 -202.6l15.85 177.24"/>
  <path class="fil0" d="M-0 265.21c0.32,-32 6.42,-64.49 18.93,-96.01 10.81,-27.26 25.6,-51.77 43.43,-73.11m115.58 170.93c0.11,-10.75 2.16,-21.66 6.36,-32.24 3.63,-9.16 8.6,-17.4 14.6,-24.57m-198.9 55l177.94 1.81m-115.58 -170.93l136.54 114.12"/>
  <path class="fil0" d="M76.54 455.49c-22.4,-22.86 -41.06,-50.14 -54.51,-81.27 -11.63,-26.92 -18.5,-54.71 -20.98,-82.41m202.6 39.14c-7.52,-7.68 -13.79,-16.84 -18.3,-27.3 -3.91,-9.05 -6.22,-18.38 -7.05,-27.69m-101.75 179.53l127.1 -124.54m-202.6 -39.14l177.24 -15.85"/>
  <path class="fil0" d="M265.21 535.92c-32,-0.32 -64.49,-6.42 -96.01,-18.93 -27.26,-10.81 -51.77,-25.6 -73.11,-43.43m170.93 -115.58c-10.75,-0.11 -21.66,-2.16 -32.24,-6.36 -9.16,-3.63 -17.4,-8.6 -24.57,-14.6m55 198.9l1.81 -177.94m-170.93 115.58l114.12 -136.54"/>
  <path class="fil0" d="M455.49 459.38c-22.86,22.4 -50.14,41.06 -81.27,54.51 -26.92,11.63 -54.71,18.5 -82.41,20.98m39.14 -202.6c-7.68,7.52 -16.84,13.79 -27.3,18.3 -9.05,3.91 -18.38,6.22 -27.69,7.05m179.53 101.75l-124.54 -127.1m-39.14 202.6l-15.85 -177.24"/>
  <path class="fil0" d="M535.92 270.71c-0.32,32 -6.42,64.49 -18.93,96.01 -10.81,27.26 -25.6,51.77 -43.43,73.11m-115.58 -170.93c-0.11,10.75 -2.16,21.66 -6.36,32.24 -3.63,9.16 -8.6,17.4 -14.6,24.57m198.9 -55l-177.94 -1.81m115.58 170.93l-136.54 -114.12"/>
  <path class="fil0" d="M459.38 80.43c22.4,22.86 41.06,50.14 54.51,81.27 11.63,26.92 18.5,54.71 20.98,82.41m-202.6 -39.14c7.52,7.68 13.79,16.84 18.3,27.3 3.91,9.05 6.22,18.38 7.05,27.69m101.75 -179.53l-127.1 124.54m202.6 39.14l-177.24 15.85"/>
  <path class="fil1" d="M513.88 161.7c-13.45,-31.13 -32.11,-58.42 -54.51,-81.27l-127.1 124.54c7.52,7.68 13.79,16.84 18.3,27.3 3.91,9.05 6.22,18.38 7.05,27.69l177.24 -15.85c-2.48,-27.7 -9.35,-55.48 -20.98,-82.41z"/>
  <path class="fil2" d="M185.34 303.65c-3.91,-9.05 -6.22,-18.38 -7.05,-27.69l-177.24 15.85c2.48,27.7 9.35,55.48 20.98,82.41 13.45,31.13 32.11,58.42 54.51,81.27l127.1 -124.54c-7.52,-7.68 -13.79,-16.84 -18.3,-27.3z"/>
  <path class="fil2" d="M0 265.21l177.94 1.81c0.11,-10.75 2.16,-21.66 6.36,-32.24 3.63,-9.16 8.6,-17.4 14.6,-24.57l-136.54 -114.12c-17.83,21.34 -32.62,45.84 -43.43,73.11 -12.5,31.53 -18.6,64.01 -18.92,96.01z"/>
  <path class="fil2" d="M80.43 76.54l124.54 127.1c7.68,-7.52 16.84,-13.79 27.3,-18.3 9.05,-3.91 18.38,-6.22 27.69,-7.05l-15.85 -177.24c-27.7,2.48 -55.48,9.35 -82.41,20.98 -31.13,13.45 -58.42,32.11 -81.27,54.51z"/>
  <path class="fil3" d="M270.71 0l-1.81 177.94c10.75,0.11 21.66,2.16 32.24,6.36 9.16,3.63 17.4,8.6 24.57,14.6l114.12 -136.54c-21.34,-17.83 -45.84,-32.62 -73.11,-43.43 -31.53,-12.5 -64.01,-18.6 -96.01,-18.92z"/>
  <path class="fil1" d="M535.91 270.71l-177.94 -1.81c-0.11,10.75 -2.16,21.66 -6.36,32.24 -3.63,9.16 -8.6,17.4 -14.6,24.57l136.54 114.12c17.83,-21.34 32.62,-45.84 43.43,-73.11 12.5,-31.53 18.6,-64.01 18.92,-96.01z"/>
  <path class="fil1" d="M455.49 459.38l-124.54 -127.1c-7.68,7.52 -16.84,13.79 -27.3,18.3 -9.05,3.91 -18.38,6.22 -27.69,7.05l15.85 177.24c27.7,-2.48 55.48,-9.35 82.41,-20.98 31.13,-13.45 58.42,-32.11 81.27,-54.51z"/>
  <path class="fil1" d="M265.21 535.91l1.81 -177.94c-10.75,-0.11 -21.66,-2.16 -32.24,-6.36 -9.16,-3.63 -17.4,-8.6 -24.57,-14.6l-114.12 136.54c21.34,17.83 45.84,32.62 73.11,43.43 31.53,12.5 64.01,18.6 96.01,18.92z"/>
 </g>
</svg>
