<?xml version="1.0" encoding="UTF-8"?>
<!DOCTYPE svg PUBLIC "-//W3C//DTD SVG 1.1//EN" "http://www.w3.org/Graphics/SVG/1.1/DTD/svg11.dtd">
<!-- Creator: CorelDRAW 2018 (64 Bit Versión de evaluación) -->
<svg xmlns="http://www.w3.org/2000/svg" xml:space="preserve" width="25mm" height="25mm" version="1.1" style="shape-rendering:geometricPrecision; text-rendering:geometricPrecision; image-rendering:optimizeQuality; fill-rule:evenodd; clip-rule:evenodd"
viewBox="0 0 1102.16 1102.16"
 xmlns:xlink="http://www.w3.org/1999/xlink">
 <defs>
  <style type="text/css">
   <![CDATA[
    .fil0 {fill:none}
    .fil1 {fill:#77DD77}
    .fil2 {fill:#B8FCB8}
   ]]>
  </style>
 </defs>
 <g id="Capa_x0020_1">
  <metadata id="CorelCorpID_0Corel-Layer"/>
  <path class="fil0" d="M556.73 0c65.81,0.67 132.62,13.21 197.46,38.92 56.07,22.24 106.46,52.65 150.35,89.33m-351.54 237.7c22.1,0.22 44.54,4.44 66.31,13.08 18.85,7.47 35.78,17.7 50.53,30.02m-113.11 -409.05l-3.73 365.95m351.54 -237.7l-234.71 280.8"/>
  <path class="fil0" d="M165.4 157.41c47,-46.07 103.12,-84.43 167.15,-112.1 55.37,-23.93 112.51,-38.06 169.48,-43.15m-80.49 416.65c15.79,-15.47 34.63,-28.35 56.14,-37.64 18.6,-8.04 37.81,-12.79 56.95,-14.5m-369.22 -209.26l256.13 261.4m80.49 -416.65l32.59 364.51"/>
  <path class="fil0" d="M-0 545.43c0.67,-65.81 13.21,-132.62 38.92,-197.46 22.24,-56.07 52.65,-106.46 89.33,-150.35m237.7 351.54c0.22,-22.1 4.44,-44.54 13.08,-66.31 7.47,-18.84 17.7,-35.78 30.02,-50.52m-409.05 113.11l365.95 3.73m-237.7 -351.54l280.8 234.71"/>
  <path class="fil0" d="M157.41 936.76c-46.07,-47 -84.43,-103.12 -112.1,-167.15 -23.93,-55.37 -38.06,-112.51 -43.15,-169.48m416.65 80.49c-15.47,-15.79 -28.35,-34.63 -37.64,-56.14 -8.04,-18.6 -12.79,-37.81 -14.5,-56.95m-209.26 369.22l261.4 -256.13m-416.65 -80.49l364.51 -32.59"/>
  <path class="fil0" d="M545.43 1102.16c-65.81,-0.67 -132.62,-13.21 -197.46,-38.92 -56.07,-22.24 -106.46,-52.65 -150.35,-89.33m351.54 -237.7c-22.1,-0.22 -44.54,-4.44 -66.31,-13.08 -18.84,-7.47 -35.78,-17.7 -50.52,-30.02m113.11 409.05l3.73 -365.95m-351.54 237.7l234.71 -280.8"/>
  <path class="fil0" d="M936.76 944.75c-47,46.07 -103.12,84.43 -167.15,112.1 -55.37,23.93 -112.51,38.06 -169.48,43.15m80.49 -416.65c-15.79,15.47 -34.63,28.35 -56.14,37.64 -18.6,8.04 -37.81,12.79 -56.95,14.5m369.22 209.26l-256.13 -261.4m-80.49 416.65l-32.59 -364.51"/>
  <path class="fil0" d="M1102.16 556.73c-0.67,65.81 -13.21,132.62 -38.92,197.46 -22.24,56.07 -52.65,106.46 -89.33,150.35m-237.7 -351.54c-0.22,22.1 -4.44,44.54 -13.08,66.31 -7.47,18.85 -17.7,35.78 -30.02,50.53m409.05 -113.11l-365.95 -3.73m237.7 351.54l-280.8 -234.71"/>
  <path class="fil0" d="M944.75 165.4c46.07,47 84.43,103.12 112.1,167.15 23.93,55.37 38.06,112.51 43.15,169.48m-416.65 -80.49c15.47,15.79 28.35,34.63 37.64,56.14 8.04,18.6 12.79,37.81 14.5,56.95m209.26 -369.22l-261.4 256.13m416.65 80.49l-364.51 32.59"/>
  <path class="fil1" d="M1056.85 332.55c-27.67,-64.03 -66.03,-120.14 -112.1,-167.14l-261.4 256.13c15.47,15.79 28.35,34.63 37.64,56.14 8.04,18.6 12.79,37.81 14.5,56.96l364.51 -32.6c-5.1,-56.97 -19.23,-114.1 -43.15,-169.48z"/>
  <path class="fil2" d="M381.17 624.49c-8.04,-18.6 -12.79,-37.81 -14.5,-56.96l-364.51 32.6c5.1,56.97 19.23,114.1 43.15,169.48 27.67,64.03 66.03,120.14 112.1,167.14l261.4 -256.13c-15.47,-15.79 -28.35,-34.63 -37.64,-56.14z"/>
  <path class="fil2" d="M0 545.43l365.95 3.73c0.22,-22.1 4.44,-44.54 13.08,-66.31 7.47,-18.84 17.7,-35.78 30.02,-50.52l-280.8 -234.71c-36.68,43.89 -67.09,94.28 -89.33,150.35 -25.71,64.84 -38.26,131.65 -38.92,197.46z"/>
  <path class="fil2" d="M165.41 157.41l256.13 261.4c15.79,-15.47 34.63,-28.35 56.14,-37.64 18.6,-8.04 37.81,-12.79 56.96,-14.5l-32.6 -364.51c-56.97,5.1 -114.1,19.23 -169.48,43.15 -64.03,27.67 -120.14,66.03 -167.14,112.1z"/>
  <path class="fil1" d="M556.73 0l-3.73 365.95c22.1,0.22 44.54,4.44 66.31,13.08 18.85,7.47 35.78,17.7 50.53,30.02l234.71 -280.8c-43.89,-36.68 -94.28,-67.09 -150.35,-89.33 -64.84,-25.71 -131.65,-38.26 -197.46,-38.92z"/>
  <path class="fil1" d="M1102.16 556.73l-365.95 -3.73c-0.22,22.1 -4.44,44.54 -13.08,66.31 -7.47,18.85 -17.7,35.78 -30.02,50.53l280.8 234.71c36.68,-43.89 67.09,-94.28 89.33,-150.35 25.71,-64.84 38.26,-131.65 38.92,-197.46z"/>
  <path class="fil1" d="M936.75 944.75l-256.13 -261.4c-15.79,15.47 -34.63,28.35 -56.14,37.64 -18.6,8.04 -37.81,12.79 -56.96,14.5l32.6 364.51c56.97,-5.1 114.1,-19.23 169.48,-43.15 64.03,-27.67 120.14,-66.03 167.14,-112.1z"/>
  <path class="fil1" d="M545.43 1102.16l3.73 -365.95c-22.1,-0.22 -44.54,-4.44 -66.31,-13.08 -18.84,-7.47 -35.78,-17.7 -50.52,-30.02l-234.71 280.8c43.89,36.68 94.28,67.09 150.35,89.33 64.84,25.71 131.65,38.26 197.46,38.92z"/>
 </g>
</svg>
