<?xml version="1.0" encoding="UTF-8"?>
<!DOCTYPE svg PUBLIC "-//W3C//DTD SVG 1.1//EN" "http://www.w3.org/Graphics/SVG/1.1/DTD/svg11.dtd">
<!-- Creator: CorelDRAW 2018 (64 Bit Versión de evaluación) -->
<svg xmlns="http://www.w3.org/2000/svg" xml:space="preserve" width="25.0001mm" height="25.0001mm" version="1.1" style="shape-rendering:geometricPrecision; text-rendering:geometricPrecision; image-rendering:optimizeQuality; fill-rule:evenodd; clip-rule:evenodd"
viewBox="0 0 975.66 975.66"
 xmlns:xlink="http://www.w3.org/1999/xlink">
 <defs>
  <style type="text/css">
   <![CDATA[
    .fil0 {fill:none}
    .fil3 {fill:#FEFEFE}
    .fil1 {fill:#4B4B4D}
    .fil2 {fill:#F0F0F0}
    .fil5 {fill:#F0F0F0}
    .fil4 {fill:#CCCBCB}
   ]]>
  </style>
 </defs>
 <g id="Capa_x0020_1">
  <metadata id="CorelCorpID_0Corel-Layer"/>
  <path class="fil0" d="M492.83 0c58.26,0.59 117.4,11.7 174.8,34.46 49.63,19.68 94.24,46.61 133.09,79.07m-311.19 210.42c19.56,0.2 39.42,3.93 58.7,11.58 16.68,6.61 31.67,15.67 44.73,26.58m-100.13 -362.1l-3.3 323.95m311.19 -210.42l-207.77 248.57"/>
  <path class="fil0" d="M146.42 139.35c41.61,-40.78 91.28,-74.74 147.96,-99.24 49.02,-21.18 99.6,-33.69 150.02,-38.2m-71.25 368.83c13.98,-13.69 30.65,-25.1 49.69,-33.32 16.47,-7.12 33.47,-11.32 50.41,-12.84m-326.84 -185.24l226.73 231.4m71.25 -368.83l28.85 322.68"/>
  <path class="fil0" d="M-0 482.83c0.59,-58.26 11.7,-117.4 34.46,-174.8 19.68,-49.63 46.61,-94.24 79.07,-133.09m210.42 311.19c0.2,-19.56 3.93,-39.42 11.58,-58.7 6.61,-16.68 15.67,-31.67 26.58,-44.72m-362.1 100.13l323.95 3.3m-210.42 -311.19l248.57 207.77"/>
  <path class="fil0" d="M139.35 829.24c-40.78,-41.61 -74.74,-91.28 -99.24,-147.96 -21.18,-49.02 -33.69,-99.6 -38.2,-150.02m368.83 71.25c-13.69,-13.98 -25.1,-30.65 -33.32,-49.69 -7.12,-16.47 -11.32,-33.47 -12.84,-50.41m-185.24 326.84l231.4 -226.73m-368.83 -71.25l322.68 -28.85"/>
  <path class="fil0" d="M482.83 975.66c-58.26,-0.59 -117.4,-11.7 -174.8,-34.46 -49.63,-19.68 -94.24,-46.61 -133.09,-79.07m311.19 -210.42c-19.56,-0.2 -39.42,-3.93 -58.7,-11.58 -16.68,-6.61 -31.67,-15.67 -44.72,-26.58m100.13 362.1l3.3 -323.95m-311.19 210.42l207.77 -248.57"/>
  <path class="fil0" d="M829.24 836.31c-41.61,40.78 -91.28,74.74 -147.96,99.24 -49.02,21.18 -99.6,33.69 -150.02,38.2m71.25 -368.83c-13.98,13.69 -30.65,25.1 -49.69,33.32 -16.47,7.12 -33.47,11.32 -50.41,12.84m326.84 185.24l-226.73 -231.4m-71.25 368.83l-28.85 -322.68"/>
  <path class="fil0" d="M975.66 492.83c-0.59,58.26 -11.7,117.4 -34.46,174.8 -19.68,49.63 -46.61,94.24 -79.07,133.09m-210.42 -311.19c-0.2,19.56 -3.93,39.42 -11.58,58.7 -6.61,16.68 -15.67,31.67 -26.58,44.73m362.1 -100.13l-323.95 -3.3m210.42 311.19l-248.57 -207.77"/>
  <path class="fil0" d="M836.31 146.42c40.78,41.61 74.74,91.28 99.24,147.96 21.18,49.02 33.69,99.6 38.2,150.02m-368.83 -71.25c13.69,13.98 25.1,30.65 33.32,49.69 7.12,16.47 11.32,33.47 12.84,50.41m185.24 -326.84l-231.4 226.73m368.83 71.25l-322.68 28.85"/>
  <path class="fil1" d="M935.54 294.38c-24.49,-56.68 -58.45,-106.35 -99.24,-147.96l-231.4 226.73c13.69,13.98 25.1,30.65 33.32,49.69 7.12,16.47 11.32,33.47 12.84,50.42l322.68 -28.86c-4.51,-50.43 -17.02,-101.01 -38.2,-150.02z"/>
  <path class="fil2" d="M337.42 552.81c-7.12,-16.47 -11.32,-33.47 -12.84,-50.42l-322.68 28.86c4.51,50.43 17.02,101.01 38.2,150.02 24.49,56.68 58.45,106.35 99.24,147.96l231.4 -226.73c-13.69,-13.98 -25.1,-30.65 -33.32,-49.69z"/>
  <path class="fil3" d="M0 482.82l323.94 3.3c0.2,-19.56 3.93,-39.42 11.58,-58.7 6.61,-16.68 15.67,-31.67 26.58,-44.72l-248.57 -207.77c-32.47,38.85 -59.39,83.46 -79.07,133.09 -22.76,57.4 -33.87,116.54 -34.45,174.79z"/>
  <path class="fil3" d="M146.42 139.35l226.73 231.4c13.98,-13.69 30.65,-25.1 49.69,-33.32 16.47,-7.12 33.47,-11.32 50.42,-12.84l-28.86 -322.68c-50.43,4.51 -101.01,17.02 -150.02,38.2 -56.68,24.49 -106.35,58.45 -147.96,99.24z"/>
  <path class="fil1" d="M492.83 0l-3.3 323.94c19.56,0.2 39.42,3.93 58.7,11.58 16.68,6.61 31.67,15.67 44.73,26.58l207.77 -248.57c-38.85,-32.47 -83.46,-59.39 -133.09,-79.07 -57.4,-22.76 -116.54,-33.87 -174.79,-34.45z"/>
  <path class="fil4" d="M975.65 492.83l-323.94 -3.3c-0.2,19.56 -3.93,39.42 -11.58,58.7 -6.61,16.68 -15.67,31.67 -26.58,44.73l248.57 207.77c32.47,-38.85 59.39,-83.46 79.07,-133.09 22.76,-57.4 33.87,-116.54 34.45,-174.79z"/>
  <path class="fil4" d="M829.23 836.31l-226.73 -231.4c-13.98,13.69 -30.65,25.1 -49.69,33.32 -16.47,7.12 -33.47,11.32 -50.42,12.84l28.86 322.68c50.43,-4.51 101.01,-17.02 150.02,-38.2 56.68,-24.49 106.35,-58.45 147.96,-99.24z"/>
  <path class="fil5" d="M482.82 975.65l3.3 -323.94c-19.56,-0.2 -39.42,-3.93 -58.7,-11.58 -16.68,-6.61 -31.67,-15.67 -44.72,-26.58l-207.77 248.57c38.85,32.47 83.46,59.39 133.09,79.07 57.4,22.76 116.54,33.87 174.79,34.45z"/>
 </g>
</svg>
