<?xml version="1.0" encoding="UTF-8"?>
<!DOCTYPE svg PUBLIC "-//W3C//DTD SVG 1.1//EN" "http://www.w3.org/Graphics/SVG/1.1/DTD/svg11.dtd">
<!-- Creator: CorelDRAW 2018 (64 Bit Versión de evaluación) -->
<svg xmlns="http://www.w3.org/2000/svg" xml:space="preserve" width="25mm" height="25mm" version="1.1" style="shape-rendering:geometricPrecision; text-rendering:geometricPrecision; image-rendering:optimizeQuality; fill-rule:evenodd; clip-rule:evenodd"
viewBox="0 0 345.59 345.59"
 xmlns:xlink="http://www.w3.org/1999/xlink">
 <defs>
  <style type="text/css">
   <![CDATA[
    .fil0 {fill:none}
    .fil4 {fill:#FFD680}
    .fil1 {fill:#FFD680}
    .fil3 {fill:#FFECC2}
    .fil2 {fill:#FFECC2}
   ]]>
  </style>
 </defs>
 <g id="Capa_x0020_1">
  <metadata id="CorelCorpID_0Corel-Layer"/>
  <path class="fil0" d="M174.57 0c20.64,0.21 41.58,4.14 61.92,12.21 17.58,6.97 33.38,16.51 47.14,28.01m-110.23 74.53c6.93,0.07 13.96,1.39 20.79,4.1 5.91,2.34 11.22,5.55 15.84,9.41m-35.47 -128.26l-1.17 114.75m110.23 -74.53l-73.59 88.05"/>
  <path class="fil0" d="M51.86 49.36c14.74,-14.45 32.33,-26.48 52.41,-35.15 17.36,-7.5 35.28,-11.93 53.14,-13.53m-25.24 130.65c4.95,-4.85 10.86,-8.89 17.6,-11.8 5.83,-2.52 11.86,-4.01 17.86,-4.55m-115.77 -65.62l80.31 81.97m25.24 -130.65l10.22 114.3"/>
  <path class="fil0" d="M-0 171.03c0.21,-20.64 4.14,-41.58 12.21,-61.92 6.97,-17.58 16.51,-33.38 28.01,-47.14m74.53 110.23c0.07,-6.93 1.39,-13.96 4.1,-20.79 2.34,-5.91 5.55,-11.22 9.41,-15.84m-128.26 35.47l114.75 1.17m-74.53 -110.23l88.05 73.59"/>
  <path class="fil0" d="M49.36 293.73c-14.45,-14.74 -26.48,-32.33 -35.15,-52.41 -7.5,-17.36 -11.93,-35.28 -13.53,-53.14m130.65 25.24c-4.85,-4.95 -8.89,-10.86 -11.8,-17.6 -2.52,-5.83 -4.01,-11.86 -4.55,-17.86m-65.62 115.77l81.97 -80.31m-130.65 -25.24l114.3 -10.22"/>
  <path class="fil0" d="M171.03 345.6c-20.64,-0.21 -41.58,-4.14 -61.92,-12.21 -17.58,-6.97 -33.38,-16.51 -47.14,-28.01m110.23 -74.53c-6.93,-0.07 -13.96,-1.39 -20.79,-4.1 -5.91,-2.34 -11.22,-5.55 -15.84,-9.41m35.47 128.26l1.17 -114.75m-110.23 74.53l73.59 -88.05"/>
  <path class="fil0" d="M293.73 296.24c-14.74,14.45 -32.33,26.48 -52.41,35.15 -17.36,7.5 -35.28,11.93 -53.14,13.53m25.24 -130.65c-4.95,4.85 -10.86,8.89 -17.6,11.8 -5.83,2.52 -11.86,4.01 -17.86,4.55m115.77 65.62l-80.31 -81.97m-25.24 130.65l-10.22 -114.3"/>
  <path class="fil0" d="M345.6 174.57c-0.21,20.64 -4.14,41.58 -12.21,61.92 -6.97,17.58 -16.51,33.38 -28.01,47.14m-74.53 -110.23c-0.07,6.93 -1.39,13.96 -4.1,20.79 -2.34,5.91 -5.55,11.22 -9.41,15.84m128.26 -35.47l-114.75 -1.17m74.53 110.23l-88.05 -73.59"/>
  <path class="fil0" d="M296.24 51.86c14.45,14.74 26.48,32.33 35.15,52.41 7.5,17.36 11.93,35.28 13.53,53.14m-130.65 -25.24c4.85,4.95 8.89,10.86 11.8,17.6 2.52,5.83 4.01,11.86 4.55,17.86m65.62 -115.77l-81.97 80.31m130.65 25.24l-114.3 10.22"/>
  <path class="fil1" d="M331.39 104.28c-8.68,-20.08 -20.71,-37.67 -35.15,-52.41l-81.97 80.31c4.85,4.95 8.89,10.86 11.8,17.6 2.52,5.83 4.01,11.86 4.55,17.86l114.3 -10.22c-1.6,-17.86 -6.03,-35.78 -13.53,-53.14z"/>
  <path class="fil2" d="M119.52 195.82c-2.52,-5.83 -4.01,-11.86 -4.55,-17.86l-114.3 10.22c1.6,17.86 6.03,35.78 13.53,53.14 8.68,20.08 20.71,37.67 35.15,52.41l81.97 -80.31c-4.85,-4.95 -8.89,-10.86 -11.8,-17.6z"/>
  <path class="fil2" d="M0 171.02l114.75 1.17c0.07,-6.93 1.39,-13.96 4.1,-20.79 2.34,-5.91 5.55,-11.22 9.41,-15.84l-88.05 -73.59c-11.5,13.76 -21.04,29.56 -28.01,47.14 -8.06,20.33 -12,41.28 -12.2,61.92z"/>
  <path class="fil3" d="M51.87 49.36l80.31 81.97c4.95,-4.85 10.86,-8.89 17.6,-11.8 5.83,-2.52 11.86,-4.01 17.86,-4.55l-10.22 -114.3c-17.86,1.6 -35.78,6.03 -53.14,13.53 -20.08,8.68 -37.67,20.71 -52.41,35.15z"/>
  <path class="fil4" d="M174.57 0l-1.17 114.75c6.93,0.07 13.96,1.39 20.79,4.1 5.91,2.34 11.22,5.55 15.84,9.41l73.59 -88.05c-13.76,-11.5 -29.56,-21.04 -47.14,-28.01 -20.33,-8.06 -41.28,-12 -61.92,-12.2z"/>
  <path class="fil1" d="M345.59 174.57l-114.75 -1.17c-0.07,6.93 -1.39,13.96 -4.1,20.79 -2.34,5.91 -5.55,11.22 -9.41,15.84l88.05 73.59c11.5,-13.76 21.04,-29.56 28.01,-47.14 8.06,-20.33 12,-41.28 12.2,-61.92z"/>
  <path class="fil1" d="M293.73 296.24l-80.31 -81.97c-4.95,4.85 -10.86,8.89 -17.6,11.8 -5.83,2.52 -11.86,4.01 -17.86,4.55l10.22 114.3c17.86,-1.6 35.78,-6.03 53.14,-13.53 20.08,-8.68 37.67,-20.71 52.41,-35.15z"/>
  <path class="fil1" d="M171.02 345.59l1.17 -114.75c-6.93,-0.07 -13.96,-1.39 -20.79,-4.1 -5.91,-2.34 -11.22,-5.55 -15.84,-9.41l-73.59 88.05c13.76,11.5 29.56,21.04 47.14,28.01 20.33,8.06 41.28,12 61.92,12.2z"/>
 </g>
</svg>
