<?xml version="1.0" encoding="UTF-8"?>
<!DOCTYPE svg PUBLIC "-//W3C//DTD SVG 1.1//EN" "http://www.w3.org/Graphics/SVG/1.1/DTD/svg11.dtd">
<!-- Creator: CorelDRAW 2018 (64 Bit Versión de evaluación) -->
<svg xmlns="http://www.w3.org/2000/svg" xml:space="preserve" width="25mm" height="25mm" version="1.1" style="shape-rendering:geometricPrecision; text-rendering:geometricPrecision; image-rendering:optimizeQuality; fill-rule:evenodd; clip-rule:evenodd"
viewBox="0 0 383.77 383.77"
 xmlns:xlink="http://www.w3.org/1999/xlink">
 <defs>
  <style type="text/css">
   <![CDATA[
    .fil0 {fill:none}
    .fil2 {fill:#FADAED}
    .fil1 {fill:#FF6CC5}
   ]]>
  </style>
 </defs>
 <g id="Capa_x0020_1">
  <metadata id="CorelCorpID_0Corel-Layer"/>
  <path class="fil0" d="M193.85 0c22.92,0.23 46.18,4.6 68.76,13.55 19.52,7.74 37.07,18.33 52.35,31.1m-122.4 82.77c7.7,0.08 15.51,1.55 23.09,4.55 6.56,2.6 12.46,6.16 17.59,10.45m-39.38 -142.43l-1.3 127.42m122.4 -82.77l-81.72 97.77"/>
  <path class="fil0" d="M57.59 54.81c16.37,-16.04 35.91,-29.4 58.2,-39.03 19.28,-8.33 39.18,-13.25 59.01,-15.03m-28.03 145.08c5.5,-5.39 12.06,-9.87 19.55,-13.11 6.48,-2.8 13.16,-4.45 19.83,-5.05m-128.56 -72.86l89.18 91.02m28.03 -145.08l11.35 126.92"/>
  <path class="fil0" d="M-0 189.92c0.23,-22.92 4.6,-46.18 13.55,-68.76 7.74,-19.52 18.33,-37.07 31.1,-52.35m82.77 122.4c0.08,-7.7 1.55,-15.51 4.55,-23.09 2.6,-6.56 6.16,-12.46 10.45,-17.59m-142.43 39.38l127.42 1.3m-82.77 -122.4l97.77 81.72"/>
  <path class="fil0" d="M54.81 326.18c-16.04,-16.37 -29.4,-35.91 -39.03,-58.2 -8.33,-19.28 -13.25,-39.18 -15.03,-59.01m145.08 28.03c-5.39,-5.5 -9.87,-12.06 -13.11,-19.55 -2.8,-6.48 -4.45,-13.16 -5.05,-19.83m-72.86 128.56l91.02 -89.18m-145.08 -28.03l126.92 -11.35"/>
  <path class="fil0" d="M189.92 383.77c-22.92,-0.23 -46.18,-4.6 -68.76,-13.55 -19.52,-7.74 -37.07,-18.33 -52.35,-31.1m122.4 -82.77c-7.7,-0.08 -15.51,-1.55 -23.09,-4.55 -6.56,-2.6 -12.46,-6.16 -17.59,-10.45m39.38 142.43l1.3 -127.42m-122.4 82.77l81.72 -97.77"/>
  <path class="fil0" d="M326.18 328.96c-16.37,16.04 -35.91,29.4 -58.2,39.03 -19.28,8.33 -39.18,13.25 -59.01,15.03m28.03 -145.08c-5.5,5.39 -12.06,9.87 -19.55,13.11 -6.48,2.8 -13.16,4.45 -19.83,5.05m128.56 72.86l-89.18 -91.02m-28.03 145.08l-11.35 -126.92"/>
  <path class="fil0" d="M383.77 193.85c-0.23,22.92 -4.6,46.18 -13.55,68.76 -7.74,19.52 -18.33,37.07 -31.1,52.35m-82.77 -122.4c-0.08,7.7 -1.55,15.51 -4.55,23.09 -2.6,6.56 -6.16,12.46 -10.45,17.59m142.43 -39.38l-127.42 -1.3m82.77 122.4l-97.77 -81.72"/>
  <path class="fil0" d="M328.96 57.59c16.04,16.37 29.4,35.91 39.03,58.2 8.33,19.28 13.25,39.18 15.03,59.01m-145.08 -28.03c5.39,5.5 9.87,12.06 13.11,19.55 2.8,6.48 4.45,13.16 5.05,19.83m72.86 -128.56l-91.02 89.18m145.08 28.03l-126.92 11.35"/>
  <path class="fil1" d="M367.99 115.79c-9.63,-22.3 -22.99,-41.83 -39.03,-58.2l-91.02 89.18c5.39,5.5 9.87,12.06 13.11,19.55 2.8,6.48 4.45,13.16 5.05,19.83l126.92 -11.35c-1.77,-19.84 -6.69,-39.73 -15.03,-59.01z"/>
  <path class="fil2" d="M132.72 217.45c-2.8,-6.48 -4.45,-13.16 -5.05,-19.83l-126.92 11.35c1.77,19.84 6.69,39.73 15.03,59.01 9.63,22.3 22.99,41.83 39.03,58.2l91.02 -89.18c-5.39,-5.5 -9.87,-12.06 -13.11,-19.55z"/>
  <path class="fil2" d="M0 189.92l127.42 1.3c0.08,-7.7 1.55,-15.51 4.55,-23.09 2.6,-6.56 6.16,-12.46 10.45,-17.59l-97.77 -81.72c-12.77,15.28 -23.36,32.83 -31.1,52.35 -8.95,22.58 -13.32,45.84 -13.55,68.75z"/>
  <path class="fil2" d="M57.59 54.81l89.18 91.02c5.5,-5.39 12.06,-9.87 19.55,-13.11 6.48,-2.8 13.16,-4.45 19.83,-5.05l-11.35 -126.92c-19.84,1.77 -39.73,6.69 -59.01,15.03 -22.3,9.63 -41.83,22.99 -58.2,39.03z"/>
  <path class="fil1" d="M193.85 0l-1.3 127.42c7.7,0.08 15.51,1.55 23.09,4.55 6.56,2.6 12.46,6.16 17.59,10.45l81.72 -97.77c-15.28,-12.77 -32.83,-23.36 -52.35,-31.1 -22.58,-8.95 -45.84,-13.32 -68.75,-13.55z"/>
  <path class="fil1" d="M383.77 193.85l-127.42 -1.3c-0.08,7.7 -1.55,15.51 -4.55,23.09 -2.6,6.56 -6.16,12.46 -10.45,17.59l97.77 81.72c12.77,-15.28 23.36,-32.83 31.1,-52.35 8.95,-22.58 13.32,-45.84 13.55,-68.75z"/>
  <path class="fil1" d="M326.17 328.96l-89.18 -91.02c-5.5,5.39 -12.06,9.87 -19.55,13.11 -6.48,2.8 -13.16,4.45 -19.83,5.05l11.35 126.92c19.84,-1.77 39.73,-6.69 59.01,-15.03 22.3,-9.63 41.83,-22.99 58.2,-39.03z"/>
  <path class="fil1" d="M189.92 383.77l1.3 -127.42c-7.7,-0.08 -15.51,-1.55 -23.09,-4.55 -6.56,-2.6 -12.46,-6.16 -17.59,-10.45l-81.72 97.77c15.28,12.77 32.83,23.36 52.35,31.1 22.58,8.95 45.84,13.32 68.75,13.55z"/>
 </g>
</svg>
