<?xml version="1.0" encoding="UTF-8"?>
<!DOCTYPE svg PUBLIC "-//W3C//DTD SVG 1.1//EN" "http://www.w3.org/Graphics/SVG/1.1/DTD/svg11.dtd">
<!-- Creator: CorelDRAW 2018 (64 Bit Versión de evaluación) -->
<svg xmlns="http://www.w3.org/2000/svg" xml:space="preserve" width="25mm" height="22.6004mm" version="1.1" style="shape-rendering:geometricPrecision; text-rendering:geometricPrecision; image-rendering:optimizeQuality; fill-rule:evenodd; clip-rule:evenodd"
viewBox="0 0 371.44 335.79"
 xmlns:xlink="http://www.w3.org/1999/xlink">
 <defs>
  <style type="text/css">
   <![CDATA[
    .fil0 {fill:black}
   ]]>
  </style>
 </defs>
 <g id="Capa_x0020_1">
  <metadata id="CorelCorpID_0Corel-Layer"/>
  <g id="_1417959090768">
   <path class="fil0" d="M130.89 257.42c-4.67,-3.13 -11.42,-11.28 -16.17,-15.68 -4.25,-3.93 -21.41,-18.96 -23.08,-23.77 -6.42,-18.45 18.75,-18.5 26.13,-19.66 9.54,-1.51 18.31,-2.71 27.9,-3.97 7.88,-1.04 6.48,-1.06 9.11,-6.79l15.39 -31.43c3.32,-6.73 6.34,-15.44 15.55,-15.44 9.35,0 12.47,9.21 15.84,16.04 3.58,7.26 6.86,14.11 10.1,20.8 9.03,18.65 6.35,15.65 14.99,16.85 9.14,1.27 17.81,2.48 27.03,3.93 9.43,1.48 19.93,1.23 24.49,7.35 9.21,12.35 -9.53,24.6 -21.91,36.51 -4.34,4.18 -11.37,12.35 -15.71,15.25 1.62,27.87 17.47,57.89 0.7,64.4 -6.3,2.45 -10.51,-0.48 -15.19,-3.03 -4.63,-2.51 -8.48,-4.45 -13.33,-7.02 -3.41,-1.81 -25.18,-13.68 -27.01,-13.68 -1.85,0 -23.58,11.87 -27.01,13.68 -10.18,5.38 -20.73,13.09 -28.54,10.06 -16.51,-6.4 -0.93,-37.29 0.72,-64.42zm-53.06 -39.8c0,7.8 10.31,17.03 14.37,21.01 29.45,28.79 25.73,17.91 21.54,41.45l-4.96 29.52c0,18.33 17.82,31.18 35.77,24.31 7.29,-2.79 38.51,-21.06 41.18,-21.06 2.89,0 34.14,18.57 41.83,21.3 18.38,6.5 35.12,-7.5 35.12,-23.67l-5.08 -31.18c-0.61,-3.74 -2.55,-12.02 -2.64,-15.1 -0.24,-8.17 38.67,-31.4 38.67,-46.58 0,-8.85 0.12,-15.83 -7.71,-23.25 -11.32,-10.73 -46.26,-9.24 -56,-12.97 -1.61,-0.62 -0.77,-0.16 -1.71,-0.97 -1.29,-1.1 -14.8,-29.52 -15.93,-31.8 -2.95,-5.91 -4.37,-9.87 -9.39,-14.47 -10.18,-9.32 -24.84,-8.88 -34.74,0.42 -8.31,7.8 -21.82,43.82 -25.36,46.22 -6.52,4.42 -45.64,1.98 -57.66,14.01 -7.51,7.51 -7.27,13.96 -7.27,22.8z"/>
   <path class="fil0" d="M122.04 171.63l13.24 -1.93c1.08,-4.67 14.29,-30.39 16.95,-35.07 5.99,-10.53 17.13,-19.66 33.48,-19.66 16.06,0 27.3,8.96 33.16,19.1 3.2,5.54 5.68,11.18 8.88,17.58 1.93,3.87 7.52,14.53 8.37,18.21l12.37 1.7c3.76,-4.53 6.41,-14.74 11.9,-21.64 2.56,-3.21 3.65,-2.86 2.47,-7.59 -2.98,-12.04 -7.03,-23.99 -10.22,-35.86 -4.21,-15.7 -5.39,-19.86 -22.57,-23.42 -31.89,-6.62 -17.15,-0.74 -48.8,-0.74 -21.45,0 -6.4,-5.91 -39.15,0.61 -17.03,3.39 -18.95,6.42 -23.35,22.71 -3.14,11.61 -6.63,23.79 -9.93,35.22 -2.2,7.62 -0.3,3.84 5.95,15.02 2.08,3.72 6.56,12.62 7.24,15.77z"/>
   <path class="fil0" d="M274.16 175.17c4.77,0 4.11,-15.03 16.8,-15.03 10.19,0 11.67,7.09 15.92,15.91 1.64,3.41 7.34,17.78 10.82,19.29 11.66,5.06 42.36,-1.7 40.58,18.75 -0.71,8.09 -14.58,17.51 -20.93,24.28 -2.81,3 -5.3,3.58 -4.6,8.95 1.97,15.06 12.26,41.95 -7.3,41.95 -6.53,0 -21.03,-9.09 -28,-12.68 -7.41,-3.81 -5.02,-3.79 -12.85,0.13 -4.51,2.26 -8.8,5.36 -13.09,6.36 0,5.95 1.52,9.08 1.77,14.15 13.76,-3.25 11.65,-12.59 24.35,-5.75 13.36,7.2 29.59,18.48 44.44,4.66 10.25,-9.54 9.51,-18.26 7.36,-29.94 -0.78,-4.27 -2.74,-13.08 -2.74,-16.73 0,-5.46 24.76,-19.82 24.76,-32.72 0,-8.65 -0.01,-16.64 -8.23,-23.63 -12.13,-10.32 -34.02,-5.91 -38.46,-11.09 -5.7,-6.66 -11.4,-40.55 -38.69,-34.73 -13.52,2.89 -22.25,17.47 -23.41,26.18l11.5 1.69z"/>
   <path class="fil0" d="M38.91 244.15c-4.8,-11.04 -34.33,-23.29 -23.8,-38.83 3.62,-5.34 7.42,-5.25 14.84,-6.37 6.49,-0.98 12.62,-1.81 19.42,-2.73 5.19,-0.7 5.31,-0.23 7.28,-4.19 5.97,-11.97 12.54,-31.9 22.05,-31.9 10.21,0 13.08,5.69 16.84,15.29l13.64 -1.98c-3.52,-11.21 -13.2,-26.58 -26.05,-26.58 -32.56,0 -28.32,32.82 -38.61,36.57 -4.54,1.66 -22.32,2.2 -29.82,5.54 -13.47,6 -14.71,16.47 -14.71,27.76 0,12.9 24.76,27.27 24.76,32.72 0,14.62 -12.18,31.77 5.08,47.1 14.86,13.2 31.08,1.93 44.57,-5.39 6.42,-3.48 6.06,-3.01 11.96,0.16 3.97,2.14 7.69,4.91 11.8,5.89 0.25,-5.07 1.77,-8.22 1.77,-14.15 -4.23,-0.99 -9.28,-4.43 -13.7,-6.65 -7.77,-3.91 -5.52,-3.3 -12.84,0.46 -5.33,2.74 -21.41,12.38 -26.53,12.38 -22.97,0 -8.24,-29.99 -7.96,-45.1z"/>
   <path class="fil0" d="M182.57 0.37c-10.89,2.24 -17.52,4.78 -23.6,11.87 -20.56,23.99 -2.31,61.45 30.22,58.49 30.87,-2.81 42.81,-42.59 19.53,-61.8 -4.79,-3.95 -16.3,-10.59 -26.15,-8.57z"/>
   <path class="fil0" d="M6.46 178.44c1.59,-0.19 7.87,-3.26 22.49,-5.29 11.14,-1.54 8.25,-0.09 15.11,-14.12 3.39,-6.93 6.81,-12.09 11.92,-16.32 9.07,-7.51 17.29,-8.23 28.03,-8.23 4.25,0 8.71,2.12 12.4,3.05 1.59,-5.67 6.09,-18.8 6.17,-24.27 -3.94,-0.32 -1.62,-0.88 -8.84,-0.88 -5.51,0 -13.37,1.41 -19.45,1.52 -6.88,0.12 -15.72,-1.52 -22.12,-1.52 -3.16,0 -20.13,3.5 -22.71,4.7 -7.11,3.3 -8.46,9.57 -10.68,17.63l-12.33 43.73z"/>
   <path class="fil0" d="M268.37 114.15c1.63,5.14 4.74,20.48 7.1,23.45 11.66,-5.96 29.18,-3.34 39.5,4.73 9.5,7.44 11.99,16.9 16.93,26.37 3.03,5.82 10.54,3.64 22.19,6.17 4.15,0.9 7.52,3.18 10.88,3.58l-5.93 -20.96c-2.04,-7.39 -4.18,-14.81 -6.21,-22.09 -2.28,-8.17 -3.45,-14.46 -10.28,-18.03 -2.87,-1.5 -21.11,-5.4 -25.96,-4.98l-11.46 1.99c-13.84,1.11 -25.52,-1.99 -30.99,-1.99 -1.87,0 -4.6,0.87 -5.79,1.77z"/>
   <path class="fil0" d="M326.34 76.12c0,-38.79 -58.74,-40.34 -58.48,0.01 0.25,38.92 58.48,36.89 58.48,-0.01z"/>
   <path class="fil0" d="M71.37 46.53c-5.31,1.13 -6.82,1.04 -10.91,3.38 -2.52,1.44 -6.99,4.9 -8.38,6.64 -17.59,21.99 1.01,51 25.15,48.18 27.33,-3.19 34.95,-35.19 16.26,-51.37 -4.7,-4.07 -14.14,-8.53 -22.11,-6.83z"/>
  </g>
 </g>
</svg>
