<?xml version="1.0" encoding="UTF-8"?>
<!DOCTYPE svg PUBLIC "-//W3C//DTD SVG 1.1//EN" "http://www.w3.org/Graphics/SVG/1.1/DTD/svg11.dtd">
<!-- Creator: CorelDRAW 2018 (64 Bit Versión de evaluación) -->
<svg xmlns="http://www.w3.org/2000/svg" xml:space="preserve" width="23.6722mm" height="21.2175mm" version="1.1" style="shape-rendering:geometricPrecision; text-rendering:geometricPrecision; image-rendering:optimizeQuality; fill-rule:evenodd; clip-rule:evenodd"
viewBox="0 0 371.28 332.78"
 xmlns:xlink="http://www.w3.org/1999/xlink">
 <defs>
  <style type="text/css">
   <![CDATA[
    .str0 {stroke:#373435;stroke-width:23.53;stroke-linecap:round;stroke-miterlimit:22.9256}
    .fil1 {fill:none}
    .fil0 {fill:black}
   ]]>
  </style>
 </defs>
 <g id="Capa_x0020_1">
  <metadata id="CorelCorpID_0Corel-Layer"/>
  <path class="fil0" d="M329.31 303.94c-25.47,1.4 -48.18,0.76 -69.17,-10.15 -23.76,-12.35 -16.06,2.41 -57.61,12.67 -139.01,34.33 -243.94,-131.21 -135.84,-244.33 64.95,-67.96 172.39,-42.29 217.83,20.7 22.66,31.41 34.23,81.75 19.81,127.29 -11.57,36.52 -28.84,40.73 -17.01,55.04 8.86,10.73 38.26,33.11 41.99,38.79zm-180.87 -302.81c-95.48,11.16 -174.02,103.87 -140.61,215.26 25.27,84.28 116.96,134.09 202.27,110.54 13.75,-3.8 24.44,-10.56 34.21,-13.56 6.06,-1.86 24.73,7.77 34.01,9.84 13.6,3.03 28.33,3.96 42.67,3.17 22.01,-1.2 74.94,-7.44 36.96,-30.64 -11.41,-6.97 -50.03,-33.73 -49.02,-42.25 0.5,-4.28 18.79,-28.92 23.1,-69.11 11.35,-105.72 -77.99,-195.6 -183.57,-183.26z"/>
  <line class="fil1 str0" x1="87.47" y1="123.54" x2="241.01" y2= "123.54" />
  <line class="fil1 str0" x1="87.47" y1="166.78" x2="241.01" y2= "166.78" />
  <line class="fil1 str0" x1="87.47" y1="210.03" x2="241.01" y2= "210.03" />
 </g>
</svg>
