<?xml version="1.0" encoding="UTF-8"?>
<!DOCTYPE svg PUBLIC "-//W3C//DTD SVG 1.1//EN" "http://www.w3.org/Graphics/SVG/1.1/DTD/svg11.dtd">
<!-- Creator: CorelDRAW 2018 (64 Bit Versión de evaluación) -->
<svg xmlns="http://www.w3.org/2000/svg" xml:space="preserve" width="25.2499mm" height="25.2498mm" version="1.1" style="shape-rendering:geometricPrecision; text-rendering:geometricPrecision; image-rendering:optimizeQuality; fill-rule:evenodd; clip-rule:evenodd"
viewBox="0 0 348.55 348.54"
 xmlns:xlink="http://www.w3.org/1999/xlink">
 <defs>
  <style type="text/css">
   <![CDATA[
    .str0 {stroke:black;stroke-width:3.45;stroke-miterlimit:22.9256}
    .fil0 {fill:black}
   ]]>
  </style>
 </defs>
 <g id="Capa_x0020_1">
  <metadata id="CorelCorpID_0Corel-Layer"/>
  <path class="fil0 str0" d="M49.57 17.39l48.56 202.25c-20.23,5.65 -30.96,27.71 -23.47,47.84 1.08,2.89 2.9,6.05 4.49,8.21 2.37,3.21 3.8,4.04 6.23,6.74 -1.73,2.78 -6.77,5.09 -10.76,15.33 -7.86,20.14 4.13,43.74 25.56,48.23 28.97,6.06 51.56,-24.22 38.96,-50.84 -0.76,-1.61 -1.94,-3.19 -2.44,-4.87l136.61 -0.01c-1.77,4.52 -3.77,5.42 -5.38,13.57 -5.66,28.76 23.34,51.44 48.63,39.94 8.41,-3.83 15.25,-10.69 18.68,-19.74 8.73,-23.05 -6.19,-43.3 -23.7,-48 -8.3,-2.23 -27.09,-1.2 -36.87,-1.2 -50.53,0 -101.06,0 -151.59,0 -14.38,0 -22.98,1.88 -30.88,-7.19 -7.1,-8.15 -5.84,-20.91 0.84,-27.81 7.63,-7.88 19.17,-6.13 32.19,-6.04l151.59 0.39c13.27,0.06 24.3,1.7 30.71,-7.73 3.41,-5.01 6.62,-22.79 8.36,-30.3 9.72,-41.91 19.41,-83.2 29.17,-125.03 1.33,-5.69 2.86,-10.2 0.5,-15.99 -1.83,-4.48 -5.22,-7.72 -9.6,-9.6 -6.28,-2.7 -28.24,-1.52 -36.69,-1.52 -12.48,0 -222.94,0.51 -227.75,-0.12l-10.16 -41.98c-14.19,-0.4 -31.15,-0.03 -45.84,-0.03 -5.65,0 -9.69,-0.63 -12.39,3.19 -2.76,3.91 -1.18,8.71 1.72,10.76 3.38,2.38 9.56,1.46 14.12,1.46 9.42,0 21.46,-0.67 30.57,0.09zm249.05 273.36c-9.82,2.06 -18.58,11.58 -15.82,24.46 2.06,9.62 11.58,18.36 23.81,15.74 9.51,-2.04 18.12,-11.8 15.59,-24.22 -1.98,-9.71 -11.27,-18.55 -23.57,-15.97zm-194.57 -0.12c-9.91,1.92 -18.55,11.16 -16.43,23.66 1.69,9.97 11.1,18.9 23.05,16.83 9.96,-1.72 18.76,-11.35 16.66,-23.86 -1.69,-10.08 -11.32,-18.95 -23.28,-16.63zm227.36 -229.8c-1.99,-2.64 -10.89,-1.36 -14.84,-1.36l-112.29 0c-42.92,0 -86,-0.36 -128.9,0.01 0.46,4.34 2.4,10.8 3.4,14.9l33.11 137.85c2.04,8.51 -1.77,6.15 20.7,6.2l141.23 0.39c5.84,0.02 11.92,0.21 17.73,0.06 4.81,-0.12 4.12,-2.49 6.27,-11.66l27.24 -116.8c1.01,-4.38 7.11,-27.38 6.35,-29.59z"/>
 </g>
</svg>
