<?xml version="1.0" encoding="UTF-8"?>
<!DOCTYPE svg PUBLIC "-//W3C//DTD SVG 1.1//EN" "http://www.w3.org/Graphics/SVG/1.1/DTD/svg11.dtd">
<!-- Creator: CorelDRAW 2018 (64 Bit Versión de evaluación) -->
<svg xmlns="http://www.w3.org/2000/svg" xml:space="preserve" width="26.8773mm" height="26.5mm" version="1.1" style="shape-rendering:geometricPrecision; text-rendering:geometricPrecision; image-rendering:optimizeQuality; fill-rule:evenodd; clip-rule:evenodd"
viewBox="0 0 402.93 397.28"
 xmlns:xlink="http://www.w3.org/1999/xlink">
 <defs>
  <style type="text/css">
   <![CDATA[
    .str0 {stroke:#201E1E;stroke-width:22.49;stroke-miterlimit:22.9256}
    .str2 {stroke:#201E1E;stroke-width:14.99;stroke-linecap:round;stroke-miterlimit:22.9256}
    .str1 {stroke:#201E1E;stroke-width:14.99;stroke-linecap:round;stroke-linejoin:round;stroke-miterlimit:22.9256}
    .fil0 {fill:none}
   ]]>
  </style>
 </defs>
 <g id="Capa_x0020_1">
  <metadata id="CorelCorpID_0Corel-Layer"/>
  <path class="fil0 str0" d="M64.54 11.24l260.27 0c11.81,0 21.48,9.66 21.48,21.48l0 331.84c0,11.81 -9.66,21.48 -21.48,21.48l-260.27 0 0 -374.79z"/>
  <circle class="fil0 str0" cx="201.88" cy="116.1" r="38.85"/>
  <path class="fil0 str0" d="M201.88 259.75l-71.83 0c0,-44.5 32.16,-80.58 71.83,-80.58 39.67,0 71.83,36.07 71.83,80.58l-71.83 0z"/>
  <path class="fil0 str0" d="M346.29 60.51l27.3 0c9.95,0 18.09,8.14 18.09,18.09l0 30.37c0,9.95 -8.14,18.09 -18.09,18.09l-27.3 0 0 -66.56z"/>
  <path class="fil0 str0" d="M346.29 131.14l27.3 0c9.95,0 18.09,8.14 18.09,18.09l0 30.37c0,9.95 -8.14,18.09 -18.09,18.09l-27.3 0 0 -66.56z"/>
  <path class="fil0 str1" d="M85.22 72.83l-41.7 0.1c-36.07,0.09 -51.49,52.34 -15.72,71.88 5.16,2.82 11.87,5.44 20.61,5.49l36.82 0.24"/>
  <path class="fil0 str1" d="M85.22 150.69l-41.7 0.1c-36.07,0.09 -51.49,52.34 -15.72,71.88 5.16,2.82 11.87,5.44 20.61,5.49l36.82 0.24"/>
  <path class="fil0 str1" d="M85.22 228.55l-41.7 0.1c-36.07,0.09 -51.49,52.34 -15.72,71.88 5.16,2.82 11.87,5.44 20.61,5.49l36.82 0.24"/>
  <line class="fil0 str2" x1="163.88" y1="336.44" x2="239.88" y2= "336.44" />
  <line class="fil0 str2" x1="163.88" y1="307.13" x2="239.88" y2= "307.13" />
 </g>
</svg>
