<?xml version="1.0" encoding="UTF-8"?>
<!DOCTYPE svg PUBLIC "-//W3C//DTD SVG 1.1//EN" "http://www.w3.org/Graphics/SVG/1.1/DTD/svg11.dtd">
<!-- Creator: CorelDRAW 2018 (64 Bit Versión de evaluación) -->
<svg xmlns="http://www.w3.org/2000/svg" xml:space="preserve" width="25mm" height="25.0416mm" version="1.1" style="shape-rendering:geometricPrecision; text-rendering:geometricPrecision; image-rendering:optimizeQuality; fill-rule:evenodd; clip-rule:evenodd"
viewBox="0 0 339.03 339.59"
 xmlns:xlink="http://www.w3.org/1999/xlink">
 <defs>
  <style type="text/css">
   <![CDATA[
    .fil0 {fill:black}
   ]]>
  </style>
 </defs>
 <g id="Capa_x0020_1">
  <metadata id="CorelCorpID_0Corel-Layer"/>
  <g id="_1422364526368">
   <path class="fil0" d="M189.72 51.18c3.64,-4.24 6.33,-18.35 10,-25.19 5.49,-10.23 15.52,-4.02 23.82,-1.09 8.14,2.88 18.97,4.77 16.59,16.08 -1.08,5.13 -7.04,17.47 -9,25.59 11.07,5.77 30.08,23.47 36.16,33.84 7.85,-2.08 16.36,-8.1 24.23,-10.94 11.9,-4.29 14.6,7.81 18.2,15.38 3.7,7.78 10.61,18.53 -0.08,24.26 -6.41,3.43 -18.63,7.26 -23.64,11.38 5.78,18.76 2.6,34.75 1.81,49.85 3.49,0.81 22.68,7.77 25.64,9.54 9.68,5.8 3.79,15.36 0.77,23.68 -10.56,29.07 -13.64,15.02 -41.07,7.87 -2.83,2.92 -4.85,6.8 -7.38,10.18 -6.66,8.88 -17.53,19.93 -26.74,26.03 2.39,8.38 8.04,16.36 10.82,24.21 4.13,11.66 -7.76,14.76 -15.3,18.16 -7.53,3.4 -18.43,10.51 -24.31,-0.07 -3.2,-5.75 -7.76,-19.32 -11.37,-23.6 -37.58,5.02 -13.79,3.6 -49.77,1.82 -13.67,30.95 -5.29,36.86 -34.8,25.85 -4.24,-1.58 -11.82,-3.45 -14.02,-7.49 -4.38,-8.02 6.46,-24.63 7.68,-33.1 -2.48,-3.32 -23.27,-14.8 -36.16,-34.21 -7.07,1.72 -16.75,8.19 -24.39,10.85 -11.81,4.1 -13.73,-7.9 -17.76,-15.67 -13.34,-25.73 -1.97,-21.75 23.58,-34.9 -4.93,-37.86 -2.09,-17.97 -1.95,-50.52 -30.14,-11.5 -35.93,-7.33 -26.36,-32.92 3.03,-8.1 5.09,-19.52 16.64,-16.74 8.28,1.99 16.92,6.96 25.36,8.92 2.26,-5.75 10.71,-15.55 14.94,-20.21 5.39,-5.95 16.6,-14.51 18.3,-16.93 -2.39,-8.09 -8.3,-16.35 -10.83,-24.45 -3.43,-11 8.17,-13.57 15.79,-17.45 6.41,-3.27 17.99,-9.77 23.65,-0.43 2,3.3 9.73,20.48 10.52,24 29.59,-3.56 23.38,-4.22 50.43,-1.58zm65.84 7.2c4.67,-12 8.74,-23.04 0.84,-35.98 -6.57,-10.75 -13.65,-12.14 -26.92,-17.1 -11.49,-4.29 -22.51,-8.45 -34.72,-1.9 -14.49,7.79 -13.77,17.88 -18.37,25.55l-24.87 1.22c-4.83,-11.92 -8.92,-19.79 -20.02,-24.64 -13.93,-6.09 -25.26,0.89 -35.67,5.55 -29.67,13.26 -32.74,26.99 -20.41,54.82 -5.19,4.37 -12.28,11.8 -16.32,17.89 -13,-4.98 -22.91,-8.67 -36.23,-1.01 -10.74,6.17 -12.48,14.1 -17.19,26.79 -4.33,11.66 -9.21,22.25 -2.03,35.55 5.72,10.6 14.7,13.34 25.9,17.85l1.21 24.44c-11.08,5.82 -19.46,7.44 -24.83,20.13 -5.81,13.72 0.12,24.68 4.86,35.08 5.25,11.51 8.61,20.5 19.52,25.36 13.23,5.9 25.96,1.27 35.48,-4.18 3.65,4.3 12.66,13.14 17.75,16.35 -1.09,6.64 -4.49,11.11 -4.9,17.67 -1.48,23.75 14.14,29.96 31.28,36.18 12.32,4.47 21.37,9.01 35.02,1.84 14.15,-7.44 13.89,-18.62 18.12,-25.95l23.84 -0.97c5.62,6.04 4.41,17.61 21.18,24.7 13.49,5.71 24.51,-0.01 34.86,-5.32 11.96,-6.14 19.96,-7.38 25.26,-19.79 8.02,-18.77 -4.85,-30.94 -3.78,-35.09 4.58,-6.12 10.73,-10.32 15.57,-17.6 6.79,0.92 20.59,10.27 36.31,1.08 10.33,-6.04 13.06,-14.58 17.51,-27.38 4.87,-14 12.01,-33.95 -9.07,-46.75 -4.7,-2.85 -11.36,-3.78 -14.93,-6.52l-0.79 -24.05c4.23,-3.51 10.01,-4.28 14.73,-8.05 19.25,-15.39 11.32,-32.98 4.45,-47.96 -5.98,-13.02 -7.56,-19.12 -19.81,-25.16 -5.2,-2.56 -12.08,-3.71 -18.96,-2.23 -6.81,1.46 -10.46,5.38 -16.7,6.19 -4.83,-6.77 -12.02,-10.71 -17.18,-16.62z"/>
   <path class="fil0" d="M158.55 99.98c22.56,-4.89 43.11,5.48 54.86,14.26 11.65,8.72 22.97,24.89 26.1,44.28 3.49,21.61 -4.64,43.02 -14.45,55.09 -10.24,12.59 -24.27,22.71 -44.25,26.09 -62.66,10.57 -106.45,-63.87 -66.67,-113.57 12.53,-15.66 24.75,-21.87 44.41,-26.13zm-1.53 -20.35c-14.32,2.63 -22.69,4.77 -33.71,11.68 -29.8,18.71 -49.03,50.67 -43.65,91.17 5.96,44.95 49.41,85.35 102.66,77.34 50.47,-7.59 85.31,-54.46 77.46,-102.97 -8.35,-51.64 -56.55,-85.72 -102.75,-77.23z"/>
  </g>
 </g>
</svg>
