<?xml version="1.0" encoding="UTF-8"?>
<!DOCTYPE svg PUBLIC "-//W3C//DTD SVG 1.1//EN" "http://www.w3.org/Graphics/SVG/1.1/DTD/svg11.dtd">
<!-- Creator: CorelDRAW 2018 (64 Bit Versión de evaluación) -->
<svg xmlns="http://www.w3.org/2000/svg" xml:space="preserve" width="24.5024mm" height="25.6217mm" version="1.1" style="shape-rendering:geometricPrecision; text-rendering:geometricPrecision; image-rendering:optimizeQuality; fill-rule:evenodd; clip-rule:evenodd"
viewBox="0 0 1938.68 2027.24"
 xmlns:xlink="http://www.w3.org/1999/xlink">
 <defs>
  <style type="text/css">
   <![CDATA[
    .str1 {stroke:#FEFEFE;stroke-width:39.56;stroke-linecap:round;stroke-linejoin:round;stroke-miterlimit:22.9256}
    .str0 {stroke:#FEFEFE;stroke-width:19.78;stroke-linecap:round;stroke-linejoin:round;stroke-miterlimit:22.9256}
    .fil0 {fill:none}
    .fil1 {fill:#FEFEFE}
   ]]>
  </style>
 </defs>
 <g id="Capa_x0020_1">
  <metadata id="CorelCorpID_0Corel-Layer"/>
  <path class="fil0 str0" d="M762.75 578.09l167.75 0c3.98,0 7.23,3.25 7.23,7.23l0 79.54c0,3.98 -3.25,7.23 -7.23,7.23l-167.75 0c-3.98,0 -7.23,-3.25 -7.23,-7.23l0 -79.54c0,-3.98 3.25,-7.23 7.23,-7.23z"/>
  <polyline class="fil0 str1" points="642.47,175.16 642.47,397.87 734.51,347.58 821.8,397.87 821.8,175.16 "/>
  <path class="fil0 str1" d="M481.95 175.16l494.59 0c22.28,0 40.49,18.21 40.49,40.49l0 494.59c0,22.28 -18.21,40.49 -40.49,40.49l-494.59 0c-22.27,0 -40.49,-18.21 -40.49,-40.49l0 -494.59c0,-22.27 18.22,-40.49 40.49,-40.49z"/>
  <path class="fil0 str0" d="M1398.11 1454.65l167.75 0c3.98,0 7.23,3.25 7.23,7.23l0 79.54c0,3.98 -3.25,7.23 -7.23,7.23l-167.75 0c-3.98,0 -7.23,-3.25 -7.23,-7.23l0 -79.54c0,-3.98 3.25,-7.23 7.23,-7.23z"/>
  <polyline class="fil0 str1" points="1277.84,1051.72 1277.84,1274.43 1369.88,1224.15 1457.17,1274.43 1457.17,1051.72 "/>
  <path class="fil0 str1" d="M1117.32 1051.72l494.59 0c22.28,0 40.49,18.21 40.49,40.49l0 494.59c0,22.28 -18.21,40.49 -40.49,40.49l-494.59 0c-22.27,0 -40.49,-18.21 -40.49,-40.49l0 -494.59c0,-22.27 18.22,-40.49 40.49,-40.49z"/>
  <path class="fil0 str0" d="M565.66 1499.96l123.02 0c2.93,0 5.3,2.29 5.3,5.08l0 55.88c0,2.79 -2.37,5.08 -5.3,5.08l-123.02 0c-2.91,0 -5.3,-2.29 -5.3,-5.08l0 -55.88c0,-2.79 2.39,-5.08 5.3,-5.08z"/>
  <polyline class="fil0 str1" points="481.62,1223.96 481.62,1380.41 549.12,1345.09 613.13,1380.41 613.13,1223.96 "/>
  <path class="fil0 str1" d="M363.91 1223.96l362.7 0c16.33,0 29.69,12.8 29.69,28.44l0 347.43c0,15.64 -13.36,28.44 -29.69,28.44l-362.7 0c-16.33,0 -29.69,-12.8 -29.69,-28.44l0 -347.43c0,-15.64 13.36,-28.44 29.69,-28.44z"/>
  <path class="fil1 str1" d="M29.71 19.78l35.26 0c4.29,0 7.79,11.15 7.79,24.79l0 1938.11c0,13.63 -3.5,24.79 -7.79,24.79l-35.26 0c-4.29,0 -7.79,-11.16 -7.79,-24.79l0 -1938.11c0,-13.64 3.5,-24.79 7.79,-24.79z"/>
  <path class="fil1 str1" d="M1875.86 19.78l35.26 0c4.29,0 7.79,11.15 7.79,24.79l0 1938.11c0,13.63 -3.5,24.79 -7.79,24.79l-35.26 0c-4.29,0 -7.79,-11.16 -7.79,-24.79l0 -1938.11c0,-13.64 3.5,-24.79 7.79,-24.79z"/>
  <path class="fil1 str1" d="M1918.89 787.46l-0.17 17.63c-0.02,2.14 -10.55,3.86 -23.43,3.83l-1829.09 -5c-12.87,-0.03 -23.38,-1.81 -23.36,-3.96l0.17 -17.63c0.02,-2.14 10.56,-3.86 23.43,-3.83l1829.09 5c12.87,0.03 23.38,1.81 23.36,3.96z"/>
  <path class="fil1 str1" d="M1895.83 1665.47l-0.17 17.63c-0.02,2.14 -10.55,3.86 -23.43,3.83l-1829.09 -5c-12.87,-0.03 -23.38,-1.81 -23.36,-3.96l0.17 -17.63c0.02,-2.14 10.56,-3.86 23.43,-3.83l1829.09 5c12.87,0.03 23.38,1.81 23.36,3.96z"/>
 </g>
</svg>
