<?xml version="1.0" encoding="UTF-8"?>
<!DOCTYPE svg PUBLIC "-//W3C//DTD SVG 1.1//EN" "http://www.w3.org/Graphics/SVG/1.1/DTD/svg11.dtd">
<!-- Creator: CorelDRAW 2018 (64 Bit Versión de evaluación) -->
<svg xmlns="http://www.w3.org/2000/svg" xml:space="preserve" width="35.4073mm" height="32.2196mm" version="1.1" style="shape-rendering:geometricPrecision; text-rendering:geometricPrecision; image-rendering:optimizeQuality; fill-rule:evenodd; clip-rule:evenodd"
viewBox="0 0 734.8 668.64"
 xmlns:xlink="http://www.w3.org/1999/xlink">
 <defs>
  <style type="text/css">
   <![CDATA[
    .str0 {stroke:black;stroke-width:4.15;stroke-miterlimit:22.9256}
    .str1 {stroke:black;stroke-width:51.88;stroke-linecap:round;stroke-linejoin:round;stroke-miterlimit:22.9256}
    .fil1 {fill:none}
    .fil0 {fill:black}
   ]]>
  </style>
 </defs>
 <g id="Capa_x0020_1">
  <metadata id="CorelCorpID_0Corel-Layer"/>
  <g id="_3280771618032">
   <path class="fil0 str0" d="M269.11 354.13c10.48,13.67 23.52,28 36.12,41.75 8.61,9.39 31.42,33.37 35.72,43.63l-93.56 23.59c-5.31,-5.43 -10.5,-13.31 -16.84,-17.52l30.84 -79.3c4.22,-10 0.25,-5.32 7.72,-12.14zm97.56 72.68c-10.18,-7.63 -26.42,-27.33 -34.39,-38.76 14.34,-9.2 92.24,-80.05 113.19,-98.24 38.21,-33.19 74.42,-66.18 112.7,-98.66 10.87,8.12 26.3,26.31 34.39,38.76 -16.55,13.81 -212.05,188.64 -225.88,196.9zm-51.63 -58.36c-11.69,-9.67 -23.23,-26.5 -34.35,-38.56 18.39,-14.1 38.29,-33.08 55.94,-48.43l113.97 -100.06c11.89,-10.04 47.09,-44.02 58.67,-48.87 7.81,10.19 27.04,28.39 31.69,39.21 -17.76,13.66 -38.4,32.96 -55.75,48.52l-112.22 98.96c-10.77,9.6 -18.73,16.37 -28.64,24.96 -7.87,6.82 -20.03,19.6 -29.3,24.26zm204.81 -272.42c7.71,-5.67 7.63,-8.62 17.47,-12.8l106.77 121.91c-5.83,4.92 -9.52,9.91 -17.23,13.42 -6.9,-4.29 -99.92,-111.53 -107.02,-122.52zm46.69 -20.52c29.9,-23.26 38.08,-41.26 64.93,-44.38 15.39,16.16 70.97,73.92 73.79,90.63 2.45,14.54 -49.12,52.04 -52.27,53.41 -8.01,-4.07 -83.22,-91.96 -86.45,-99.66zm-349.67 421.16c31.57,-5.32 92.53,-24.9 128.22,-32.72 34.89,-7.65 52.25,-30.46 84.71,-58.94 49.95,-43.81 98.38,-86.6 148.63,-130.27 10.41,-9.04 25.73,-26.56 36.85,-26.16 21.12,0.76 30.73,-12.02 43.31,-24.11 21.68,-20.81 -9.43,-12.8 24.61,-42.12 75.71,-65.21 61.56,-60.28 -21.6,-156.6 -50.64,-58.66 -91.3,25.09 -115.37,31.71 -14.11,3.88 -8.93,-10.02 -37.63,14.96 -5.29,4.61 -12.21,9.46 -15.5,15.11 -6.81,11.67 0.01,14.55 -3.56,23.8 -1.34,3.47 -113.77,101.43 -128.25,113.72l-96.13 84.15c-17,14.43 -15.01,15.64 -23.02,36.21l-49.09 120.07c-6.47,18.66 6.14,34.17 23.82,31.19z"/>
   <path class="fil1 str1" d="M602.91 367.39l0 205.66c0,38.31 -31.35,69.65 -69.65,69.65l-437.67 0c-38.31,0 -69.65,-31.34 -69.65,-69.65l0 -477.45c0,-38.31 31.34,-69.65 69.65,-69.65l382.76 0"/>
  </g>
 </g>
</svg>
