<?xml version="1.0" encoding="UTF-8"?>
<!DOCTYPE svg PUBLIC "-//W3C//DTD SVG 1.1//EN" "http://www.w3.org/Graphics/SVG/1.1/DTD/svg11.dtd">
<!-- Creator: CorelDRAW 2018 (64 Bit Versión de evaluación) -->
<svg xmlns="http://www.w3.org/2000/svg" xml:space="preserve" width="19.8772mm" height="27.1757mm" version="1.1" style="shape-rendering:geometricPrecision; text-rendering:geometricPrecision; image-rendering:optimizeQuality; fill-rule:evenodd; clip-rule:evenodd"
viewBox="0 0 839.53 1147.78"
 xmlns:xlink="http://www.w3.org/1999/xlink">
 <defs>
  <style type="text/css">
   <![CDATA[
    .str1 {stroke:#BFADFE;stroke-width:63.35;stroke-miterlimit:22.9256}
    .str0 {stroke:#BFADFE;stroke-width:63.35;stroke-linejoin:round;stroke-miterlimit:22.9256}
    .str2 {stroke:#BFADFE;stroke-width:63.35;stroke-linecap:round;stroke-miterlimit:22.9256}
    .fil0 {fill:none}
   ]]>
  </style>
 </defs>
 <g id="Capa_x0020_1">
  <metadata id="CorelCorpID_0Corel-Layer"/>
  <path class="fil0 str0" d="M91.76 429.85l659.8 0c1.85,0 3.36,1.51 3.36,3.36l0 636.36c0,25.59 -20.94,46.53 -46.53,46.53l-575.93 0c-25.59,0 -46.53,-20.94 -46.53,-46.53l0 -633.89c0,-3.21 2.62,-5.83 5.83,-5.83z"/>
  <rect class="fil0 str0" x="31.67" y="202.68" width="776.18" height="227.17" rx="30.65" ry="45.58"/>
  <path class="fil0 str1" d="M252.97 194.23c0,-89.78 74.68,-162.56 166.79,-162.56 92.12,0 166.79,72.78 166.79,162.56"/>
  <line class="fil0 str2" x1="288.29" y1="572.33" x2="288.29" y2= "964.71" />
  <line class="fil0 str2" x1="532.87" y1="572.33" x2="532.87" y2= "964.71" />
 </g>
</svg>
