<?xml version="1.0" encoding="UTF-8"?>
<!DOCTYPE svg PUBLIC "-//W3C//DTD SVG 1.1//EN" "http://www.w3.org/Graphics/SVG/1.1/DTD/svg11.dtd">
<!-- Creator: CorelDRAW 2018 (64 Bit Versión de evaluación) -->
<svg xmlns="http://www.w3.org/2000/svg" xml:space="preserve" width="19.8772mm" height="27.1757mm" version="1.1" style="shape-rendering:geometricPrecision; text-rendering:geometricPrecision; image-rendering:optimizeQuality; fill-rule:evenodd; clip-rule:evenodd"
viewBox="0 0 554.49 758.08"
 xmlns:xlink="http://www.w3.org/1999/xlink">
 <defs>
  <style type="text/css">
   <![CDATA[
    .str1 {stroke:#FF6CC5;stroke-width:41.84;stroke-miterlimit:22.9256}
    .str0 {stroke:#FF6CC5;stroke-width:41.84;stroke-linejoin:round;stroke-miterlimit:22.9256}
    .str2 {stroke:#FF6CC5;stroke-width:41.84;stroke-linecap:round;stroke-miterlimit:22.9256}
    .fil0 {fill:none}
   ]]>
  </style>
 </defs>
 <g id="Capa_x0020_1">
  <metadata id="CorelCorpID_0Corel-Layer"/>
  <path class="fil0 str0" d="M60.6 283.91l435.78 0c1.22,0 2.22,1 2.22,2.22l0 420.3c0,16.9 -13.83,30.73 -30.73,30.73l-380.39 0c-16.9,0 -30.73,-13.83 -30.73,-30.73l0 -418.67c0,-2.12 1.73,-3.85 3.85,-3.85z"/>
  <rect class="fil0 str0" x="20.92" y="133.86" width="512.64" height="150.04" rx="20.25" ry="30.11"/>
  <path class="fil0 str1" d="M167.08 128.29c0,-59.3 49.32,-107.36 110.16,-107.36 60.84,0 110.16,48.07 110.16,107.36"/>
  <line class="fil0 str2" x1="190.41" y1="378.01" x2="190.41" y2= "637.17" />
  <line class="fil0 str2" x1="351.95" y1="378.01" x2="351.95" y2= "637.17" />
 </g>
</svg>
