<?xml version="1.0" encoding="UTF-8"?>
<!DOCTYPE svg PUBLIC "-//W3C//DTD SVG 1.1//EN" "http://www.w3.org/Graphics/SVG/1.1/DTD/svg11.dtd">
<!-- Creator: CorelDRAW 2018 (64 Bit Versión de evaluación) -->
<svg xmlns="http://www.w3.org/2000/svg" xml:space="preserve" width="19.8772mm" height="26.5mm" version="1.1" style="shape-rendering:geometricPrecision; text-rendering:geometricPrecision; image-rendering:optimizeQuality; fill-rule:evenodd; clip-rule:evenodd"
viewBox="0 0 242.03 322.67"
 xmlns:xlink="http://www.w3.org/1999/xlink">
 <defs>
  <style type="text/css">
   <![CDATA[
    .str1 {stroke:black;stroke-width:18.26;stroke-miterlimit:22.9256}
    .str0 {stroke:black;stroke-width:18.26;stroke-linejoin:round;stroke-miterlimit:22.9256}
    .str2 {stroke:black;stroke-width:18.26;stroke-linecap:round;stroke-miterlimit:22.9256}
    .fil0 {fill:none}
   ]]>
  </style>
 </defs>
 <g id="Capa_x0020_1">
  <metadata id="CorelCorpID_0Corel-Layer"/>
  <path class="fil0 str0" d="M26.45 95.1l190.22 0c0.53,0 0.97,0.44 0.97,0.97l0 204.06c0,7.38 -6.04,13.41 -13.41,13.41l-166.04 0c-7.38,0 -13.41,-6.04 -13.41,-13.41l0 -203.34c0,-0.92 0.76,-1.68 1.68,-1.68z"/>
  <rect class="fil0 str0" x="9.13" y="50.2" width="223.77" height="44.04" rx="8.84" ry="8.84"/>
  <path class="fil0 str1" d="M81.25 50.2c0,-22.68 17.8,-41.07 39.76,-41.07 21.96,0 39.76,18.39 39.76,41.07"/>
  <line class="fil0 str2" x1="83.11" y1="141.32" x2="83.11" y2= "269.89" />
  <line class="fil0 str2" x1="153.62" y1="141.32" x2="153.62" y2= "269.89" />
 </g>
</svg>
