<?xml version="1.0" encoding="UTF-8"?>
<!DOCTYPE svg PUBLIC "-//W3C//DTD SVG 1.1//EN" "http://www.w3.org/Graphics/SVG/1.1/DTD/svg11.dtd">
<!-- Creator: CorelDRAW 2018 (64 Bit Versión de evaluación) -->
<svg xmlns="http://www.w3.org/2000/svg" xml:space="preserve" width="19.8772mm" height="27.1757mm" version="1.1" style="shape-rendering:geometricPrecision; text-rendering:geometricPrecision; image-rendering:optimizeQuality; fill-rule:evenodd; clip-rule:evenodd"
viewBox="0 0 3582.53 4897.96"
 xmlns:xlink="http://www.w3.org/1999/xlink">
 <defs>
  <style type="text/css">
   <![CDATA[
    .str1 {stroke:#77DD77;stroke-width:270.35;stroke-miterlimit:22.9256}
    .str0 {stroke:#77DD77;stroke-width:270.35;stroke-linejoin:round;stroke-miterlimit:22.9256}
    .str2 {stroke:#77DD77;stroke-width:270.35;stroke-linecap:round;stroke-miterlimit:22.9256}
    .fil0 {fill:none}
   ]]>
  </style>
 </defs>
 <g id="Capa_x0020_1">
  <metadata id="CorelCorpID_0Corel-Layer"/>
  <path class="fil0 str0" d="M391.56 1834.32l2815.59 0c7.89,0 14.35,6.45 14.35,14.35l0 2715.56c0,109.22 -89.34,198.56 -198.56,198.56l-2457.68 0c-109.22,0 -198.56,-89.34 -198.56,-198.56l0 -2705.03c0,-13.68 11.19,-24.87 24.87,-24.87z"/>
  <rect class="fil0 str0" x="135.17" y="864.89" width="3312.2" height="969.42" rx="130.81" ry="194.51"/>
  <path class="fil0 str1" d="M1079.51 828.86c0,-383.12 318.67,-693.68 711.76,-693.68 393.09,0 711.76,310.56 711.76,693.68"/>
  <line class="fil0 str2" x1="1230.22" y1="2442.32" x2="1230.22" y2= "4116.74" />
  <line class="fil0 str2" x1="2273.95" y1="2442.32" x2="2273.95" y2= "4116.74" />
 </g>
</svg>
