<?xml version="1.0" encoding="UTF-8"?>
<!DOCTYPE svg PUBLIC "-//W3C//DTD SVG 1.1//EN" "http://www.w3.org/Graphics/SVG/1.1/DTD/svg11.dtd">
<!-- Creator: CorelDRAW 2018 (64 Bit Versión de evaluación) -->
<svg xmlns="http://www.w3.org/2000/svg" xml:space="preserve" width="19.8772mm" height="27.1757mm" version="1.1" style="shape-rendering:geometricPrecision; text-rendering:geometricPrecision; image-rendering:optimizeQuality; fill-rule:evenodd; clip-rule:evenodd"
viewBox="0 0 897.38 1226.88"
 xmlns:xlink="http://www.w3.org/1999/xlink">
 <defs>
  <style type="text/css">
   <![CDATA[
    .str1 {stroke:#A5A5A5;stroke-width:67.72;stroke-miterlimit:22.9256}
    .str0 {stroke:#A5A5A5;stroke-width:67.72;stroke-linejoin:round;stroke-miterlimit:22.9256}
    .str2 {stroke:#A5A5A5;stroke-width:67.72;stroke-linecap:round;stroke-miterlimit:22.9256}
    .fil0 {fill:none}
   ]]>
  </style>
 </defs>
 <g id="Capa_x0020_1">
  <metadata id="CorelCorpID_0Corel-Layer"/>
  <path class="fil0 str0" d="M98.08 459.47l705.27 0c1.98,0 3.59,1.62 3.59,3.59l0 680.21c0,27.36 -22.38,49.74 -49.74,49.74l-615.62 0c-27.36,0 -49.74,-22.38 -49.74,-49.74l0 -677.58c0,-3.43 2.8,-6.23 6.23,-6.23z"/>
  <rect class="fil0 str0" x="33.86" y="216.64" width="829.66" height="242.83" rx="32.77" ry="48.72"/>
  <path class="fil0 str1" d="M270.4 207.62c0,-95.97 79.82,-173.76 178.29,-173.76 98.46,0 178.29,77.79 178.29,173.76"/>
  <line class="fil0 str2" x1="308.15" y1="611.77" x2="308.15" y2= "1031.19" />
  <line class="fil0 str2" x1="569.59" y1="611.77" x2="569.59" y2= "1031.19" />
 </g>
</svg>
