<?xml version="1.0" encoding="UTF-8"?>
<!DOCTYPE svg PUBLIC "-//W3C//DTD SVG 1.1//EN" "http://www.w3.org/Graphics/SVG/1.1/DTD/svg11.dtd">
<!-- Creator: CorelDRAW 2018 (64 Bit Versión de evaluación) -->
<svg xmlns="http://www.w3.org/2000/svg" xml:space="preserve" width="24.3264mm" height="26.4mm" version="1.1" style="shape-rendering:geometricPrecision; text-rendering:geometricPrecision; image-rendering:optimizeQuality; fill-rule:evenodd; clip-rule:evenodd"
viewBox="0 0 322.13 349.59"
 xmlns:xlink="http://www.w3.org/1999/xlink">
 <defs>
  <style type="text/css">
   <![CDATA[
    .str0 {stroke:#FEFEFE;stroke-width:13.24;stroke-linecap:round;stroke-linejoin:round;stroke-miterlimit:22.9256}
    .fil0 {fill:none}
    .fil1 {fill:none;fill-rule:nonzero}
    .fil2 {fill:#FEFEFE}
   ]]>
  </style>
 </defs>
 <g id="Capa_x0020_1">
  <metadata id="CorelCorpID_0Corel-Layer"/>
  <path class="fil0 str0" d="M315.51 66.29l-0.1 247.71c-0.01,15.93 -13.04,28.97 -28.97,28.97l-206.59 0c-15.93,0 -28.97,-13.03 -28.97,-28.97l0 -16.55m0 -188.76l0 -73.1c0,-15.93 13.03,-28.97 28.97,-28.97l176.1 0.11"/>
  <path class="fil1 str0" d="M255.95 6.73l59.56 59.56 -33.08 0c-14.58,0 -26.48,-11.9 -26.48,-26.48l0 -33.08z"/>
  <path class="fil2" d="M33.3 250.19c-2.05,0 -3.72,-0.58 -5.03,-1.73 -1.31,-1.15 -2.06,-2.6 -2.27,-4.35 -0.21,-1.75 0.35,-3.52 1.66,-5.32l25.52 -35.6 -24.17 -33.81c-1.31,-1.88 -1.88,-3.69 -1.72,-5.44 0.16,-1.75 0.9,-3.2 2.21,-4.35 1.31,-1.15 2.94,-1.73 4.91,-1.73 3.03,0 5.77,1.75 8.22,5.25l19.51 28.17 19.5 -28.17c2.46,-3.5 5.23,-5.25 8.34,-5.25 2.05,0 3.72,0.55 5.03,1.66 1.31,1.11 2.04,2.54 2.21,4.29 0.16,1.75 -0.45,3.61 -1.84,5.57l-24.17 33.81 25.39 35.6c1.31,1.79 1.88,3.56 1.72,5.32 -0.16,1.75 -0.9,3.2 -2.21,4.35 -1.31,1.15 -3.03,1.73 -5.15,1.73 -2.95,0 -5.68,-1.79 -8.22,-5.38l-20.61 -29.45 -20.49 29.45c-2.54,3.59 -5.32,5.38 -8.34,5.38zm87.47 -1.02c-5.32,0 -7.97,-2.82 -7.97,-8.45l0 -73.89c0,-5.55 2.62,-8.32 7.85,-8.32 5.23,0 7.85,2.78 7.85,8.32l0 68.39 35.58 0c4.58,0 6.87,2.3 6.87,6.92 0,4.7 -2.29,7.04 -6.87,7.04l-43.31 0zm88.94 1.28c-5.48,0 -10.82,-0.64 -16.01,-1.92 -5.19,-1.28 -9.71,-3.2 -13.56,-5.76 -1.88,-1.28 -3.03,-2.86 -3.43,-4.74 -0.41,-1.88 -0.26,-3.65 0.43,-5.31 0.7,-1.66 1.8,-2.82 3.31,-3.46 1.51,-0.64 3.25,-0.32 5.21,0.96 3.6,2.22 7.4,3.84 11.41,4.87 4.01,1.02 8.22,1.54 12.64,1.54 6.46,0 11.16,-1.13 14.11,-3.39 2.94,-2.26 4.41,-5.19 4.41,-8.77 0,-2.99 -1.04,-5.34 -3.13,-7.04 -2.09,-1.71 -5.66,-3.12 -10.73,-4.23l-13.49 -2.95c-15.38,-3.42 -23.06,-11.65 -23.06,-24.72 0,-5.63 1.43,-10.54 4.29,-14.73 2.86,-4.18 6.83,-7.43 11.9,-9.73 5.07,-2.31 10.92,-3.46 17.54,-3.46 4.91,0 9.57,0.64 13.98,1.92 4.41,1.28 8.38,3.16 11.9,5.63 1.64,1.2 2.62,2.67 2.95,4.42 0.33,1.75 0.12,3.37 -0.61,4.87 -0.74,1.49 -1.9,2.52 -3.5,3.07 -1.59,0.55 -3.45,0.19 -5.58,-1.09 -3.03,-1.79 -6.09,-3.07 -9.2,-3.84 -3.11,-0.77 -6.46,-1.15 -10.06,-1.15 -5.64,0 -10.06,1.24 -13.25,3.71 -3.19,2.47 -4.78,5.72 -4.78,9.73 0,3.07 0.98,5.53 2.94,7.36 1.96,1.84 5.32,3.27 10.06,4.29l13.37 2.95c8.1,1.79 14.13,4.61 18.1,8.45 3.97,3.84 5.95,8.96 5.95,15.37 0,5.38 -1.39,10.12 -4.17,14.21 -2.78,4.1 -6.73,7.28 -11.84,9.54 -5.11,2.26 -11.14,3.39 -18.1,3.39zm-177.37 -119.12l203.35 0c17.79,0 32.34,14.55 32.34,32.34l0 77.36c0,17.79 -14.55,32.34 -32.34,32.34l-203.35 0c-17.79,0 -32.34,-14.55 -32.34,-32.34l0 -77.36c0,-17.79 14.55,-32.34 32.34,-32.34z"/>
 </g>
</svg>
