<?xml version="1.0" encoding="UTF-8"?>
<!DOCTYPE svg PUBLIC "-//W3C//DTD SVG 1.1//EN" "http://www.w3.org/Graphics/SVG/1.1/DTD/svg11.dtd">
<!-- Creator: CorelDRAW 2018 (64 Bit Versión de evaluación) -->
<svg xmlns="http://www.w3.org/2000/svg" xml:space="preserve" width="32.6583mm" height="26.05mm" version="1.1" style="shape-rendering:geometricPrecision; text-rendering:geometricPrecision; image-rendering:optimizeQuality; fill-rule:evenodd; clip-rule:evenodd"
viewBox="0 0 2186.08 1743.73"
 xmlns:xlink="http://www.w3.org/1999/xlink">
 <defs>
  <style type="text/css">
   <![CDATA[
    .str0 {stroke:#FEFEFE;stroke-width:13.39;stroke-miterlimit:22.9256}
    .str1 {stroke:#FEFEFE;stroke-width:100.41;stroke-linecap:round;stroke-miterlimit:22.9256}
    .fil1 {fill:none}
    .fil0 {fill:#FEFEFE}
   ]]>
  </style>
 </defs>
 <g id="Capa_x0020_1">
  <metadata id="CorelCorpID_0Corel-Layer"/>
  <path class="fil0 str0" d="M1469.53 1101.26c6.08,13.7 12.04,15.38 22.02,25.69 -7.76,13.47 -27.24,20.3 -22.46,42.34 12.28,56.56 161.37,76.96 262.97,253.84 18.63,32.44 35.56,62.07 54.19,93.55 18.99,32.08 34.67,60.85 54.49,93.18 38.95,63.5 10.19,28.21 64.64,83.04 22.54,22.71 58.72,44.12 103.59,44.12 110.63,0 238.89,-161.46 127.68,-272.17 -49.95,-49.73 -22.26,-28.33 -80.65,-63.82 -133.11,-80.92 -250.39,-126.33 -340.81,-243.57 -26.25,-34.04 -58.53,-103.36 -92.72,-125.7 -25.41,-16.61 -37.31,6.27 -50.2,14.89l-25.04 -23.13 -77.71 77.73z"/>
  <path class="fil0 str0" d="M762.23 723.99c-17.76,24.94 -85.62,76.67 -89.05,101.42 -4.25,30.64 20.37,44.13 34.54,58.3 16.84,16.84 31.33,31.33 48.17,48.17 16.31,16.31 30.26,30.25 46.56,46.56 13.56,13.55 30.26,40.82 59.84,36.26 22.85,-3.52 77.02,-70.73 100.79,-89.68 -0.77,-7.79 -30.3,-87.79 42.77,-107.68 39.37,-10.7 117.39,-4.71 146.33,7.76l17.69 -19.65c12.68,10.95 25.86,24.43 35.16,33.72 20.48,20.48 90.5,94.19 107.17,106.08 12.3,-9.21 70.85,-66.46 77.06,-78.41l-138.76 -140.43c12.52,-17.4 16.94,-3.49 2.45,-44.31 -19.8,-55.81 -31.49,-103.79 10.56,-156.12 18.95,-23.58 53.68,-37.49 90.82,-44.13 122.8,-21.95 123.17,28.32 135.45,-21.75 2.4,-9.79 5.23,-17.87 5.45,-29.96 -145.81,-86.13 -307.16,-80.16 -438.2,20.99 -25.88,19.99 -52.21,50.4 -73.34,71.17 -25.13,24.71 -47.02,47.98 -72.21,72.31 -41.13,39.72 -20.95,58.22 -44.51,99.94 -32.1,56.82 -86.38,32.55 -104.74,29.43z"/>
  <path class="fil0 str0" d="M1935.12 638.87c-14.66,7.91 -100.27,98.68 -122.01,118.69l-122.02 -32.36 -32.59 -115.25c-2.76,-13.73 7.04,-17.85 17.34,-28.07 17.43,-17.31 32.4,-32.39 49.77,-49.77 10.46,-10.46 45.71,-39.91 48.97,-53.78 -40.71,-0.74 -63.46,-13.02 -122.55,5.72 -89.91,28.53 -147.19,108 -153.42,199.9 -1.64,24.21 5.12,42.81 2.68,67.02 -5.49,54.6 -77.61,111.99 -124.06,158.44l-462.39 462.39c-17.41,17.4 -24.28,29.69 -39.35,31.3 -50.38,5.4 -74.03,11.72 -102.01,39.25 -55.64,54.71 -60.57,145.18 -1.6,202.46 72.28,70.22 190.23,44.29 227.56,-43.98 22.5,-53.22 -4.55,-53.6 24.53,-81.38 6.76,-6.47 11.07,-10.95 17.71,-17.62l531.43 -531.41c25.94,-25.94 41.56,-49.55 88.84,-55.87 48.2,-6.45 134.49,18.92 213.66,-62.25 50.95,-52.25 75.79,-111.06 59.53,-213.42z"/>
  <path class="fil0 str0" d="M944.49 1616.52c-22.35,8.82 -54.4,15.5 -80.46,22.6 -21.78,5.93 -20.85,6.44 -34.27,-7.22 -8.82,-8.96 -15.02,-15.25 -23.9,-24.34 -37.49,-38.32 -38.46,-28.09 -30.29,-56.91 26.89,-94.88 0.42,-75.39 101.08,-101.52 27.32,-7.09 20.97,-6.73 58.96,31.93 39.43,40.12 38.08,28.6 29.83,56.82 -7.87,26.96 -13.94,52.2 -20.95,78.63z"/>
  <path class="fil1 str1" d="M884.97 1282.25c-51.54,5.44 -104.92,1.85 -158.01,-12.02 -236.12,-61.66 -377.55,-303.07 -315.88,-539.19 61.66,-236.12 303.07,-377.55 539.19,-315.89"/>
  <path class="fil1 str1" d="M1182.08 297.89c-61.31,-37.23 -71.23,-19.7 -59.76,-60.84 42.9,-153.8 27.12,-142.69 -130.9,-183.97 -80.68,-21.07 -86.52,78.3 -102.17,131.95 -10.88,37.28 -36.41,-0.24 -160.93,25.14 -17.41,3.54 -34.5,6.65 -51.07,11.02 -16.41,4.32 -34.45,10.73 -49.37,14.4l-32.1 -48.79c-49.11,-91.42 -73.98,-87.06 -160.09,-36.61 -20.76,12.16 -66.62,30.32 -75.04,62.57 -17.94,68.68 44.06,98.48 55.05,148.79 -38.68,21.79 -135.89,147.42 -155.92,204.77 -27.17,-7.1 -87.08,-26.15 -111.39,-27.91 -28.97,-2.11 -60.41,15.66 -68.1,45.06 -27.44,105.07 -64.43,167.46 34.93,192.77 106.95,27.25 80.28,7.87 80.25,67.88 -0.07,121.66 32.06,183.97 34.12,213.73 -24.08,21.35 -101.91,46.96 -112.09,85.97 -12.6,48.23 8.58,63.36 31.42,103.39 15.98,28.02 31.82,66.8 62.87,74.91 61.9,16.17 94.13,-36.03 141.8,-52.61 7.22,4.73 59.03,59.51 95.04,86.78 36.5,27.63 71.58,49.48 115.68,70.71 -38.52,147.47 -49.2,157.42 66.69,188.27 17.96,4.79 38.98,10.07 63.4,16.45m412.31 -96c36.58,51.6 65.72,41.62 137.76,-0.86 20.73,-12.21 66.55,-30.48 74.88,-62.76 12.48,-48.35 -14.52,-77.35 -35.51,-107.8"/>
 </g>
</svg>
