<?xml version="1.0" encoding="UTF-8"?>
<!DOCTYPE svg PUBLIC "-//W3C//DTD SVG 1.1//EN" "http://www.w3.org/Graphics/SVG/1.1/DTD/svg11.dtd">
<!-- Creator: CorelDRAW 2018 (64 Bit Versión de evaluación) -->
<svg xmlns="http://www.w3.org/2000/svg" xml:space="preserve" width="25.5mm" height="20.3056mm" version="1.1" style="shape-rendering:geometricPrecision; text-rendering:geometricPrecision; image-rendering:optimizeQuality; fill-rule:evenodd; clip-rule:evenodd"
viewBox="0 0 613.66 488.66"
 xmlns:xlink="http://www.w3.org/1999/xlink">
 <defs>
  <style type="text/css">
   <![CDATA[
    .str0 {stroke:black;stroke-width:24.07;stroke-linecap:round;stroke-miterlimit:22.9256}
    .fil1 {fill:none}
    .fil0 {fill:black}
   ]]>
  </style>
 </defs>
 <g id="Capa_x0020_1">
  <metadata id="CorelCorpID_0Corel-Layer"/>
  <path class="fil0" d="M413.07 309.02c1.72,3.87 3.4,4.35 6.22,7.26 -2.19,3.8 -7.7,5.74 -6.35,11.97 3.47,15.98 45.6,21.75 74.3,71.73 5.27,9.17 10.05,17.54 15.31,26.43 5.37,9.07 9.8,17.19 15.4,26.33 11,17.94 2.88,7.97 18.26,23.47 6.37,6.41 16.6,12.46 29.27,12.46 31.26,0 67.5,-45.62 36.08,-76.9 -14.11,-14.05 -6.29,-8 -22.79,-18.03 -37.61,-22.86 -70.75,-35.7 -96.3,-68.82 -7.42,-9.62 -16.54,-29.2 -26.2,-35.52 -7.18,-4.69 -10.55,1.77 -14.18,4.21l-7.08 -6.54 -21.96 21.96z"/>
  <path class="fil0" d="M213.22 202.41c-5.02,7.05 -24.19,21.67 -25.16,28.66 -1.2,8.66 5.75,12.47 9.76,16.47 4.76,4.76 8.85,8.85 13.61,13.61 4.61,4.61 8.55,8.55 13.16,13.16 3.83,3.83 8.55,11.53 16.91,10.24 6.46,-0.99 21.76,-19.98 28.48,-25.34 -0.22,-2.2 -8.56,-24.81 12.08,-30.43 11.13,-3.02 33.17,-1.33 41.35,2.19l5 -5.55c3.58,3.09 7.31,6.9 9.93,9.53 5.79,5.79 25.57,26.61 30.28,29.97 3.48,-2.6 20.02,-18.78 21.77,-22.16l-39.21 -39.68c3.54,-4.91 4.79,-0.98 0.69,-12.52 -5.6,-15.77 -8.9,-29.33 2.98,-44.11 5.35,-6.66 15.17,-10.59 25.66,-12.47 34.7,-6.2 34.8,8 38.27,-6.15 0.68,-2.77 1.48,-5.05 1.54,-8.47 -41.2,-24.34 -86.79,-22.65 -123.82,5.93 -7.31,5.65 -14.75,14.24 -20.72,20.11 -7.1,6.98 -13.28,13.56 -20.4,20.43 -11.62,11.22 -5.92,16.45 -12.58,28.24 -9.07,16.06 -24.41,9.2 -29.6,8.32z"/>
  <path class="fil0" d="M544.63 178.37c-4.14,2.23 -28.33,27.88 -34.48,33.54l-34.48 -9.14 -9.21 -32.57c-0.78,-3.88 1.99,-5.04 4.9,-7.93 4.93,-4.89 9.16,-9.15 14.06,-14.06 2.96,-2.96 12.91,-11.28 13.84,-15.2 -11.5,-0.21 -17.93,-3.68 -34.63,1.61 -25.41,8.06 -41.59,30.52 -43.35,56.48 -0.46,6.84 1.45,12.1 0.76,18.94 -1.55,15.43 -21.93,31.65 -35.06,44.77l-130.65 130.65c-4.92,4.92 -6.86,8.39 -11.12,8.84 -14.23,1.53 -20.92,3.31 -28.82,11.09 -15.72,15.46 -17.11,41.02 -0.45,57.21 20.42,19.84 53.75,12.51 64.3,-12.42 6.36,-15.04 -1.28,-15.15 6.93,-23 1.91,-1.83 3.13,-3.09 5,-4.98l150.16 -150.15c7.33,-7.33 11.74,-14 25.1,-15.79 13.62,-1.82 38,5.35 60.37,-17.59 14.4,-14.76 21.42,-31.38 16.82,-60.3z"/>
  <path class="fil0" d="M264.72 454.6c-6.31,2.49 -15.37,4.38 -22.73,6.39 -6.16,1.68 -5.89,1.82 -9.68,-2.04 -2.49,-2.53 -4.25,-4.31 -6.76,-6.88 -10.59,-10.83 -10.87,-7.94 -8.56,-16.08 7.6,-26.81 0.12,-21.3 28.56,-28.68 7.72,-2 5.93,-1.91 16.66,9.02 11.14,11.34 10.76,8.08 8.43,16.05 -2.23,7.62 -3.94,14.75 -5.92,22.22z"/>
  <path class="fil1 str0" d="M247.9 360.16c-14.56,1.54 -29.65,0.52 -44.65,-3.4 -66.72,-17.42 -106.68,-85.64 -89.25,-152.35 17.42,-66.72 85.64,-106.68 152.35,-89.25"/>
  <path class="fil1 str0" d="M331.85 82.02c-17.32,-10.52 -20.13,-5.57 -16.88,-17.19 12.12,-43.46 7.66,-40.32 -36.99,-51.98 -22.8,-5.95 -24.45,22.12 -28.87,37.28 -3.08,10.54 -10.29,-0.07 -45.48,7.1 -4.92,1 -9.75,1.88 -14.43,3.11 -4.63,1.22 -9.73,3.03 -13.95,4.07l-9.07 -13.79c-13.87,-25.83 -20.9,-24.6 -45.23,-10.35 -5.87,3.44 -18.82,8.57 -21.2,17.68 -5.07,19.41 12.45,27.83 15.56,42.04 -10.93,6.16 -38.4,41.65 -44.06,57.86 -7.68,-2.01 -24.6,-7.39 -31.47,-7.89 -8.18,-0.6 -17.07,4.42 -19.24,12.73 -7.75,29.69 -18.21,47.32 9.87,54.47 30.22,7.7 22.68,2.22 22.68,19.18 -0.02,34.37 9.06,51.98 9.64,60.39 -6.81,6.03 -28.79,13.27 -31.67,24.29 -3.56,13.63 2.43,17.9 8.88,29.21 4.52,7.92 8.99,18.88 17.77,21.17 17.49,4.57 26.6,-10.18 40.07,-14.87 2.04,1.34 16.68,16.82 26.85,24.52 10.31,7.8 20.23,13.98 32.69,19.98 -10.88,41.67 -13.9,44.48 18.84,53.2 5.08,1.35 11.01,2.84 17.91,4.65m110.17 -37.59c13.94,25.79 20.97,24.55 45.26,10.23 5.86,-3.45 18.8,-8.61 21.16,-17.73 3.53,-13.66 -4.1,-21.86 -10.03,-30.46"/>
 </g>
</svg>
