<?xml version="1.0" encoding="UTF-8"?>
<!DOCTYPE svg PUBLIC "-//W3C//DTD SVG 1.1//EN" "http://www.w3.org/Graphics/SVG/1.1/DTD/svg11.dtd">
<!-- Creator: CorelDRAW 2018 (64 Bit Versión de evaluación) -->
<svg xmlns="http://www.w3.org/2000/svg" xml:space="preserve" width="25.8mm" height="21.2982mm" version="1.1" style="shape-rendering:geometricPrecision; text-rendering:geometricPrecision; image-rendering:optimizeQuality; fill-rule:evenodd; clip-rule:evenodd"
viewBox="0 0 349.96 288.9"
 xmlns:xlink="http://www.w3.org/1999/xlink">
 <defs>
  <style type="text/css">
   <![CDATA[
    .str0 {stroke:#373435;stroke-width:10.85;stroke-miterlimit:22.9256}
    .str4 {stroke:#373435;stroke-width:2.71;stroke-miterlimit:22.9256}
    .str3 {stroke:#373435;stroke-width:10.85;stroke-linecap:round;stroke-miterlimit:22.9256}
    .str1 {stroke:#373435;stroke-width:10.85;stroke-linecap:round;stroke-linejoin:round;stroke-miterlimit:22.9256}
    .str2 {stroke:#373435;stroke-width:8.14;stroke-linecap:round;stroke-linejoin:round;stroke-miterlimit:22.9256}
    .fil0 {fill:none}
    .fil1 {fill:#373435}
   ]]>
  </style>
 </defs>
 <g id="Capa_x0020_1">
  <metadata id="CorelCorpID_0Corel-Layer"/>
  <g id="_2600902266960">
   <path class="fil0 str0" d="M330.31 55.73c12.34,0 14.22,7.64 14.22,20.21l0 139.6c0,11.89 -9.87,19.81 -21.63,21.63l-5.37 0.83m-105.89 -0.83l-184.59 0c-11.89,0 -21.63,-9.73 -21.63,-21.63l0 -139.6c0,-11.89 3.81,-21.63 15.7,-21.63"/>
   <path class="fil0 str1" d="M288.63 170.99c3.52,-2.62 9.13,-9.63 9.13,-13.89 0,-46.99 0,-93.97 0,-140.96 0,-8.02 -4.28,-10.65 -15.65,-10.35 -13.79,0.36 -32.88,3.95 -50.95,11.57 -103.2,43.49 -7.62,42.91 -110.27,-0.35 -18.06,-7.61 -37.15,-11.21 -50.95,-11.57 -11.37,-0.3 -15.65,2.33 -15.65,10.35 0,46.99 0,93.97 0,140.96 0,4.26 2.34,8.94 5.86,11.56 3.83,2.84 7.34,3.48 12.09,4.36 31.51,5.89 69.25,15.02 104.16,44.65 9.11,-7.73 11.98,-10.28 21.24,-15.49"/>
   <path class="fil0 str2" d="M54.4 22.23c-13.17,-0.3 -18.13,2.35 -18.13,10.44 0,47.4 0,94.81 0,142.22 0,4.3 2.71,9.02 6.79,11.67 4.43,2.87 8.5,3.51 14,4.4 36.5,5.94 80.21,15.15 120.65,45.05 8.86,-6.55 17.83,-12.09 26.83,-16.81m103.27 -35.95c4.08,-2.64 6.46,-3.71 6.46,-8.01 0,-47.41 0,-94.81 0,-142.22 0,-8.09 -0.94,-10.75 -14.1,-10.44"/>
   <path class="fil0 str2" d="M36.28 40.65c-12.02,-0.35 -15.15,2.77 -15.15,9.99 0,42.33 0,99.74 0,142.07 0,3.84 2.97,8.06 7.44,10.42 4.86,2.56 9.32,3.13 15.35,3.93 40.02,5.3 87.94,13.53 132.28,40.23 10.94,-6.59 22.04,-12.03 33.15,-16.57m113.53 -27.27c4.47,-2.36 7.44,-6.58 7.44,-10.42 0,-42.33 0,-98.63 0,-140.96 0,-7.22 -4.15,-11.66 -14.18,-11.56"/>
   <line class="fil0 str3" x1="176.41" y1="212.63" x2="175.86" y2= "49.22" />
   <path class="fil0 str3" d="M80.47 120.99c27.96,2.46 51.33,11.93 73.81,29.09"/>
   <path class="fil0 str3" d="M83 85.07c27.96,2.46 51.33,11.92 73.8,29.09"/>
   <path class="fil0 str3" d="M85.54 49.15c27.96,2.46 51.33,11.93 73.81,29.09"/>
   <path class="fil0 str3" d="M199.14 111.63c22.8,-16.37 46.7,-24.42 74.93,-26.06"/>
   <path class="fil0 str3" d="M197.99 78.24c22.8,-16.37 46.7,-24.42 74.93,-26.06"/>
   <path class="fil1 str4" d="M177.72 217.33c10,-0.28 17.68,5.02 17.68,5.02 4.22,1.95 8.36,4.46 10.88,6.32 2.17,1.6 5.7,3.84 5.7,6.49 0,4.75 -5.4,7.73 -11.21,10.93 -6.24,3.43 -13.25,6.9 -23.05,6.9 -10.77,0 -18.71,-3.91 -24.99,-7.96 -4.76,-3.06 -9.27,-5.63 -9.27,-9.87 0,-2.76 2.82,-5.12 5.63,-7.16 2.45,-1.78 8.79,-4.95 11.86,-6.45 6.13,-2.99 8.88,-4.01 16.77,-4.23z"/>
   <path class="fil1 str4" d="M144.29 231.24c-34.66,-14.38 -69.82,-20.13 -100.37,-24.18 -6.03,-0.8 -10.49,-1.37 -15.35,-3.93 -4.47,-2.36 -7.44,-6.58 -7.44,-10.42 0,-41.12 0,-96.47 0,-138.41 -11.89,0 -15.7,9.73 -15.7,21.63l0 139.6c0,11.89 9.73,21.63 21.63,21.63l116.62 0c-0.14,-0.66 -0.21,-1.33 -0.21,-2 0,-1.35 0.29,-2.66 0.83,-3.92z"/>
   <path class="fil1 str4" d="M326.72 237.2c11.8,1.46 17.82,-9.77 17.82,-21.66l0 -139.6c0,-12.57 -1.88,-20.21 -14.22,-20.21 0,41.88 0,96.18 0,137.3 0,3.84 -5.35,5.82 -7.44,10.42 -2.97,6.54 -2.17,12.16 -1.66,20.68 0.33,5.53 -2.72,12.05 5.51,13.07z"/>
   <path class="fil1" d="M230.95 123.98c2.73,-5.01 8.69,-7.78 13.91,-3.39 9.25,7.8 1.56,37.89 4.79,59.58 1.67,-3.42 1.81,-5.63 4.02,-8.58 4.44,-5.94 13.2,-5.91 17.55,0.17 2.9,4.06 2.44,10.18 2.08,15.32 2.32,-2.02 1.91,-3.51 4.32,-6.2 4.62,-5.17 13.65,-4.61 17.11,2.47 1.9,3.89 1.08,7.73 1.28,10.26 0.28,3.45 -0.53,1.21 0.91,2.91 2.63,-9.85 17.72,-10.68 18.47,2.15 0.77,13.18 0.6,42.03 -3.08,51.99 -6.87,18.6 -23.61,29.25 -43.92,29.25 -41.1,0 -52.26,-34.76 -59.97,-65.86 -1.63,-6.57 -9.54,-29.96 -5.46,-33.63 8.99,-3.44 15.05,5.33 18.1,11.51 2.9,5.86 6.66,20.08 8.54,22.01l-0.18 -9.38 -0.05 -41.55c-0.37,-6.27 -1.17,-33.99 1.58,-39.04zm-10.83 51.34c-4.31,-2.59 -7.27,-5.12 -13.9,-5.12 -8.9,0 -13.89,6.86 -13.89,16.09 0,5.05 6.61,27.56 8.29,34.11 5.37,20.96 12.42,43 29.9,56.43 22.37,17.18 59.8,16.34 79.27,-4.53 18.9,-20.25 14.93,-45.57 14.93,-74.3 0,-5.35 -3.08,-10.89 -6.18,-13.58 -4.5,-3.9 -8.23,-4.7 -15.76,-4.7 -0.93,-3.88 -4.84,-7.34 -8.31,-9.25 -5.54,-3.03 -7.9,-1.83 -14.36,-1.72 -3.31,-6.59 -12.69,-11.6 -17.55,-10.97l-4.17 0.48c-0.48,-15.73 2.08,-33.99 -5.16,-42.36 -6,-6.94 -17.05,-9.31 -25,-2.65 -8.34,6.99 -8.1,13.79 -8.1,26.97 0,11.7 0,23.41 0,35.11z"/>
  </g>
 </g>
</svg>
