<?xml version="1.0" encoding="UTF-8"?>
<!DOCTYPE svg PUBLIC "-//W3C//DTD SVG 1.1//EN" "http://www.w3.org/Graphics/SVG/1.1/DTD/svg11.dtd">
<!-- Creator: CorelDRAW 2018 (64 Bit Versión de evaluación) -->
<svg xmlns="http://www.w3.org/2000/svg" xml:space="preserve" width="22.3936mm" height="23.0557mm" version="1.1" style="shape-rendering:geometricPrecision; text-rendering:geometricPrecision; image-rendering:optimizeQuality; fill-rule:evenodd; clip-rule:evenodd"
viewBox="0 0 277.82 286.04"
 xmlns:xlink="http://www.w3.org/1999/xlink">
 <defs>
  <style type="text/css">
   <![CDATA[
    .str1 {stroke:#201E1E;stroke-width:2.48;stroke-miterlimit:22.9256}
    .str2 {stroke:#201E1E;stroke-width:9.3;stroke-linecap:round;stroke-linejoin:round;stroke-miterlimit:22.9256}
    .str0 {stroke:#201E1E;stroke-width:6.2;stroke-linecap:round;stroke-linejoin:round;stroke-miterlimit:22.9256}
    .fil1 {fill:none}
    .fil0 {fill:#201E1E}
   ]]>
  </style>
 </defs>
 <g id="Capa_x0020_1">
  <metadata id="CorelCorpID_0Corel-Layer"/>
  <path class="fil0 str0" d="M4.17 74.48l4.84 0c0.59,0 1.07,1.17 1.07,2.6l0 203.26c0,1.43 -0.48,2.6 -1.07,2.6l-4.84 0c-0.59,0 -1.07,-1.17 -1.07,-2.6l0 -203.26c0,-1.43 0.48,-2.6 1.07,-2.6z"/>
  <path class="fil0 str0" d="M268.81 74.48l4.84 0c0.59,0 1.07,1.17 1.07,2.6l0 203.26c0,1.43 -0.48,2.6 -1.07,2.6l-4.84 0c-0.59,0 -1.07,-1.17 -1.07,-2.6l0 -203.26c0,-1.43 0.48,-2.6 1.07,-2.6z"/>
  <path class="fil0 str0" d="M270.22 122.78l-0.02 2.42c-0,0.29 -1.48,0.53 -3.28,0.53l-255.95 -0.69c-1.8,-0 -3.27,-0.25 -3.27,-0.54l0.02 -2.42c0,-0.29 1.48,-0.53 3.28,-0.52l255.95 0.69c1.8,0 3.27,0.25 3.27,0.54z"/>
  <path class="fil0 str0" d="M268.1 247.06l-0.02 2.42c-0,0.29 -1.48,0.53 -3.28,0.52l-255.95 -0.68c-1.8,-0 -3.27,-0.25 -3.27,-0.54l0.02 -2.42c0,-0.29 1.48,-0.53 3.28,-0.53l255.95 0.69c1.8,0 3.27,0.25 3.27,0.54z"/>
  <g id="_1925109630672">
   <path class="fil0 str1" d="M78.2 107.05l0 -30.66c0,-1.38 -1.23,-2.51 -2.72,-2.51l-8.13 0 0 13.8 -8.19 -3.12 -8.63 3.12 0 -13.8 -8.33 0c-1.5,0 -2.73,1.13 -2.73,2.51l0 30.66c0,1.38 1.23,2.51 2.73,2.51l33.28 0c1.5,0 2.72,-1.13 2.72,-2.51z"/>
   <line class="fil1 str1" x1="50.23" y1="74.42" x2="68.19" y2= "74.42" />
  </g>
  <g id="_1925109633552">
   <path class="fil0 str1" d="M236.08 228.04l0 -62.55c0,-2.82 -2.5,-5.12 -5.56,-5.12l-16.59 0 0 28.16 -16.7 -6.36 -17.61 6.36 0 -28.16 -17.01 0c-3.06,0 -5.56,2.3 -5.56,5.12l0 62.55c0,2.82 2.5,5.12 5.56,5.12l67.91 0c3.06,0 5.56,-2.3 5.56,-5.12z"/>
   <line class="fil1 str1" x1="179.01" y1="161.48" x2="215.66" y2= "161.48" />
  </g>
  <g id="_1925109632976">
   <path class="fil0 str1" d="M107.11 228.83l0 -52.97c0,-2.39 -1.95,-4.34 -4.34,-4.34l-12.94 0 0 23.85 -13.03 -5.39 -13.74 5.39 0 -23.85 -13.26 0c-2.38,0 -4.34,1.95 -4.34,4.34l0 52.97c0,2.39 1.95,4.34 4.34,4.34l52.97 0c2.39,0 4.34,-1.95 4.34,-4.34z"/>
   <line class="fil1 str1" x1="62.27" y1="172.99" x2="90.86" y2= "172.99" />
  </g>
  <path class="fil1 str2" d="M145.48 88.28l20.88 -18m-20.99 18.08l-20.74 -18.04m20.56 -54.31l0.21 72.32"/>
  <path class="fil1 str2" d="M226.99 4.73l-20.91 17.96m21.02 -18.04l20.71 18.08m-20.66 54.28l-0.08 -72.32"/>
 </g>
</svg>
