<?xml version="1.0" encoding="UTF-8"?>
<!DOCTYPE svg PUBLIC "-//W3C//DTD SVG 1.1//EN" "http://www.w3.org/Graphics/SVG/1.1/DTD/svg11.dtd">
<!-- Creator: CorelDRAW 2018 (64 Bit Versión de evaluación) -->
<svg xmlns="http://www.w3.org/2000/svg" xml:space="preserve" width="34.5993mm" height="35.4097mm" version="1.1" style="shape-rendering:geometricPrecision; text-rendering:geometricPrecision; image-rendering:optimizeQuality; fill-rule:evenodd; clip-rule:evenodd"
viewBox="0 0 7181.58 7349.79"
 xmlns:xlink="http://www.w3.org/1999/xlink">
 <defs>
  <style type="text/css">
   <![CDATA[
    .str2 {stroke:#FEFEFE;stroke-width:311.35;stroke-miterlimit:22.9256}
    .str0 {stroke:#FEFEFE;stroke-width:15.82;stroke-miterlimit:22.9256}
    .str1 {stroke:#FEFEFE;stroke-width:415.13;stroke-linecap:round;stroke-linejoin:round;stroke-miterlimit:22.9256}
    .str3 {stroke:#FEFEFE;stroke-width:311.35;stroke-linecap:round;stroke-linejoin:round;stroke-miterlimit:22.9256}
    .fil1 {fill:none}
    .fil0 {fill:#FEFEFE;fill-rule:nonzero}
   ]]>
  </style>
 </defs>
 <g id="Capa_x0020_1">
  <metadata id="CorelCorpID_0Corel-Layer"/>
  <g id="_2189860179296">
   <path class="fil0 str0" d="M1653.71 828.49c0,24.04 -3.42,46.78 -28.31,266.45 -1.43,12.74 -15.01,18.02 -30.78,18.02 -72.09,0 -168.21,-2.68 -289.12,-6.75 -144.88,-4.9 -288.29,-11.48 -335.61,-11.48 0,75.08 -2.45,234.26 2.03,382.89 4.48,148.68 6.77,260.58 6.77,335.67 0,57.06 -27.09,90.33 -174.27,90.33 -96.87,0 -105.21,-8.18 -136.27,-26.28 -14.01,-8.18 -21.42,-27.02 -22.54,-54.82 -3.36,-84.06 -1.79,-196 2.26,-337.17 4.92,-171.18 11.5,-331.85 11.5,-385.9 -39.81,0 -188.95,1.7 -335.32,6.75 -114.14,3.92 -207.25,6.75 -278.59,6.75 -24.78,0 -37.55,-10.5 -37.55,-30.78 0,-10.5 6.54,-21.4 14.8,-129.21 4.48,-58.37 3.01,-69.66 9.01,-137.24 10.52,-16.52 27.02,-24.04 50.31,-24.04 -42.05,0 186.62,4.5 572.61,15.01 0,-72.09 -0.79,-232.95 -2.26,-379.37 -1.49,-146.4 -2.26,-256.07 -2.26,-328.91 0,-24.78 14.28,-37.55 42.05,-37.55 36.05,0 35.66,-0.77 110.74,-3.01 75.08,-2.24 84.17,-8.49 120.97,-8.49 36.05,0 54.82,21.05 54.82,61.58 0,70.59 -2.26,176.47 -6.77,318.38 -4.5,141.91 -6.77,300.55 -6.77,372.64 66.09,0 213.25,3.94 346.88,2.47 133.63,-1.47 233.53,-2.24 299.62,-2.24 27.77,0 42.05,9.01 42.05,26.28z"/>
   <g>
    <path class="fil1 str1" d="M5508.84 1280.57l-267.97 -169.73 -1362.56 279.07c-424.74,121.38 -600.77,211.92 -838.89,587.84 -587.07,926.9 -1174.17,1853.8 -1761.24,2780.7 -108.1,170.68 -131.7,371.02 76.24,502.74l1200.88 760.62m2918.85 -4763.21l291.36 184.52 330.03 1351.12c71.78,435.86 65.15,633.74 -172.94,1009.65 -587.1,926.9 -1174.17,1853.8 -1761.27,2780.7 -108.1,170.68 -279.13,277.64 -487.09,145.94l-1200.88 -760.64"/>
    <circle class="fil1 str2" transform="matrix(1.0105 0.640037 -0.640037 1.0105 4834.23 2347.94)" r="412.55"/>
    <line class="fil1 str3" x1="2874.64" y1="3575.73" x2="4551.05" y2= "4637.55" />
    <line class="fil1 str3" x1="2524.23" y1="4121.85" x2="4200.64" y2= "5183.69" />
    <line class="fil1 str3" x1="2174.3" y1="4641.97" x2="3850.71" y2= "5703.78" />
    <path class="fil1 str3" d="M5310.07 1029.46c2.89,-28.42 3.07,-57.27 8.63,-85.25 23.21,-117.38 42.57,-184.86 96.93,-292.46 23.95,-47.45 95.02,-139.46 130.45,-179.11 169.48,-189.55 397.51,-327.89 666.9,-316.33 130.27,5.62 260.2,43.42 378.89,97.47 91.7,41.76 172.67,109.01 239.72,184.21 67.87,76.13 123.83,165.99 158.02,262.07 31.72,89.13 39.04,187.12 35.45,281.66 -12.77,336.25 -105.32,475.51 -329.32,724.5 -100.77,111.98 -213.4,217.28 -342.4,295.07 -126.24,76.13 -271.89,115.43 -412.41,160.16 -127.84,40.7 -259.39,69.85 -391.07,95.52 -166.65,32.55 -235.73,37.61 -403.5,63.95"/>
    <path class="fil1 str1" d="M2321.79 5873.88c-50.73,186.31 -14.59,374.18 212.13,443.77l948.09 291.13m2300.89 -5136.7l674.42 1216.41c184.11,401.53 229.88,594.15 99.24,1019.53 -322.04,1048.86 -644.11,2097.75 -966.15,3146.57 -59.3,193.12 -196.15,341.38 -431.42,269.13l-1180.98 -362.64"/>
    <path class="fil1" d="M6556.56 3708.03c-322.04,1048.86 -644.11,2097.75 -966.15,3146.57 -59.3,193.1 -196.15,341.38 -431.44,269.13l-1180.94 -362.61c72.42,-34.91 134.31,-99.17 183.32,-176.49 587.07,-926.9 1174.17,-1853.82 1761.24,-2780.72 238.12,-375.94 244.72,-573.77 172.94,-1009.63l-154.59 -632.82c63.18,-20.09 127.4,-39.11 190.42,-60.84l325.96 587.88c184.13,401.53 229.9,594.15 99.24,1019.53z"/>
   </g>
  </g>
 </g>
</svg>
