<?xml version="1.0" encoding="UTF-8"?>
<!DOCTYPE svg PUBLIC "-//W3C//DTD SVG 1.1//EN" "http://www.w3.org/Graphics/SVG/1.1/DTD/svg11.dtd">
<!-- Creator: CorelDRAW 2018 (64 Bit Versión de evaluación) -->
<svg xmlns="http://www.w3.org/2000/svg" xml:space="preserve" width="24.3264mm" height="26.4mm" version="1.1" style="shape-rendering:geometricPrecision; text-rendering:geometricPrecision; image-rendering:optimizeQuality; fill-rule:evenodd; clip-rule:evenodd"
viewBox="0 0 330.58 358.76"
 xmlns:xlink="http://www.w3.org/1999/xlink">
 <defs>
  <style type="text/css">
   <![CDATA[
    .str0 {stroke:#FEFEFE;stroke-width:13.59;stroke-linecap:round;stroke-linejoin:round;stroke-miterlimit:22.9256}
    .fil0 {fill:none}
    .fil1 {fill:none;fill-rule:nonzero}
    .fil2 {fill:#FEFEFE}
   ]]>
  </style>
 </defs>
 <g id="Capa_x0020_1">
  <metadata id="CorelCorpID_0Corel-Layer"/>
  <path class="fil0 str0" d="M323.79 68.03l-0.11 254.21c-0.01,16.35 -13.38,29.73 -29.73,29.73l-212.01 0c-16.35,0 -29.73,-13.38 -29.73,-29.73l0 -16.99m0 -193.71l0 -75.02c0,-16.35 13.38,-29.74 29.73,-29.73l180.72 0.11"/>
  <path class="fil1 str0" d="M262.66 6.91l61.12 61.12 -33.94 0c-14.97,0 -27.18,-12.21 -27.18,-27.18l0 -33.94z"/>
  <path class="fil2" d="M90.08 256.09c-8.56,0 -16.05,-1.97 -22.47,-5.91 -6.42,-3.94 -11.39,-9.48 -14.92,-16.63 -3.53,-7.14 -5.29,-15.53 -5.29,-25.17 0,-9.72 1.76,-18.14 5.29,-25.23 3.53,-7.1 8.48,-12.59 14.86,-16.49 6.38,-3.9 13.89,-5.85 22.54,-5.85 8.65,0 16.16,1.95 22.54,5.85 6.38,3.9 11.33,9.4 14.86,16.49 3.53,7.1 5.29,15.46 5.29,25.1 0,9.72 -1.76,18.16 -5.29,25.3 -3.53,7.14 -8.48,12.68 -14.86,16.63 -6.38,3.94 -13.89,5.91 -22.54,5.91zm0 -14.46c8.14,0 14.48,-2.94 19.01,-8.81 4.53,-5.87 6.8,-14.02 6.8,-24.44 0,-10.51 -2.24,-18.66 -6.73,-24.44 -4.49,-5.78 -10.85,-8.67 -19.07,-8.67 -8.14,0 -14.48,2.89 -19.01,8.67 -4.53,5.78 -6.8,13.93 -6.8,24.44 0,10.43 2.27,18.58 6.8,24.44 4.53,5.87 10.87,8.81 19.01,8.81zm100.34 14.46c-9.23,0 -17.14,-1.95 -23.73,-5.85 -6.59,-3.9 -11.65,-9.42 -15.17,-16.56 -3.53,-7.14 -5.29,-15.57 -5.29,-25.3 0,-9.72 1.76,-18.14 5.29,-25.23 3.53,-7.1 8.58,-12.59 15.17,-16.49 6.59,-3.9 14.5,-5.85 23.73,-5.85 4.62,0 9.15,0.61 13.6,1.84 4.45,1.23 8.35,2.98 11.71,5.26 2.18,1.49 3.48,3.26 3.9,5.32 0.42,2.06 0.17,3.94 -0.76,5.65 -0.92,1.71 -2.31,2.85 -4.15,3.42 -1.85,0.57 -3.9,0.07 -6.17,-1.51 -2.6,-1.75 -5.41,-3.02 -8.43,-3.81 -3.02,-0.79 -6.08,-1.18 -9.19,-1.18 -8.98,0 -15.82,2.83 -20.52,8.48 -4.7,5.65 -7.05,13.69 -7.05,24.12 0,10.43 2.35,18.49 7.05,24.18 4.7,5.7 11.54,8.54 20.52,8.54 3.19,0 6.34,-0.42 9.44,-1.25 3.1,-0.83 6.04,-2.12 8.81,-3.88 2.27,-1.49 4.28,-1.97 6.04,-1.44 1.76,0.52 3.08,1.6 3.97,3.22 0.88,1.62 1.15,3.39 0.82,5.32 -0.33,1.93 -1.47,3.64 -3.4,5.12 -3.36,2.54 -7.36,4.49 -12.02,5.85 -4.66,1.36 -9.38,2.04 -14.16,2.04zm-157.23 -121.32l208.69 0c18.25,0 33.19,14.93 33.19,33.19l0 79.39c0,18.25 -14.93,33.19 -33.19,33.19l-208.69 0c-18.25,0 -33.19,-14.93 -33.19,-33.19l0 -79.39c0,-18.25 14.93,-33.19 33.19,-33.19z"/>
 </g>
</svg>
