<?xml version="1.0" encoding="UTF-8"?>
<!DOCTYPE svg PUBLIC "-//W3C//DTD SVG 1.1//EN" "http://www.w3.org/Graphics/SVG/1.1/DTD/svg11.dtd">
<!-- Creator: CorelDRAW 2018 (64 Bit Versión de evaluación) -->
<svg xmlns="http://www.w3.org/2000/svg" xml:space="preserve" width="25mm" height="12.8414mm" version="1.1" style="shape-rendering:geometricPrecision; text-rendering:geometricPrecision; image-rendering:optimizeQuality; fill-rule:evenodd; clip-rule:evenodd"
viewBox="0 0 367.16 188.59"
 xmlns:xlink="http://www.w3.org/1999/xlink">
 <defs>
  <style type="text/css">
   <![CDATA[
    .fil0 {fill:black}
   ]]>
  </style>
 </defs>
 <g id="Capa_x0020_1">
  <metadata id="CorelCorpID_0Corel-Layer"/>
  <path class="fil0" d="M164.89 99.72c1.98,-8.76 -1.82,-23.47 -4.21,-30.12 -12.45,-34.59 -52.55,-55.06 -90.34,-41.09 -45.03,16.64 -60.91,75.24 -27.48,112.27 12.95,14.34 26.5,20.54 46.48,23.24 9.86,1.33 22.84,-1.36 30.46,-4.27 20.51,-7.84 35.76,-24.06 42.31,-45.25 2.34,-7.57 1.72,-10.02 2.79,-14.77z"/>
  <path class="fil0" d="M11.17 97.62c-1.1,-7.07 1.87,-22.17 3.61,-27.69 5.89,-18.75 18.05,-34.9 34.37,-45.36 22.4,-14.35 37.73,-12.96 66.73,-12.96l159.39 0.01c26.39,0.19 48.27,13.19 63.61,32.35 7.24,9.04 12.45,20.94 15.1,32.62 10.58,46.49 -22.29,94.23 -71.32,99.75 -10.43,1.17 -81.62,0.47 -95.47,0.47l-95.43 0c-9.58,0.03 -19.56,-2.35 -26.83,-5.14 -26.43,-10.11 -46.07,-32.5 -51.85,-59.82 -0.95,-4.48 -1.12,-9.2 -1.9,-14.22zm-11.17 -10.49c0,17.71 -0.33,23.97 6.32,41.39 12.26,32.07 41.74,54.52 76.16,59.11 12.16,1.62 146.27,0.7 168.66,0.7 24.09,0 37.3,1.59 59.65,-7.98 23.7,-10.15 40.4,-28.9 49.9,-51.82 7.11,-17.15 8.22,-37.4 4.03,-55.88 -1.11,-4.91 -2.44,-8.49 -4.03,-12.73 -8.82,-23.49 -26.81,-41.35 -49.81,-51.95 -20.36,-9.39 -37.59,-7.88 -59.74,-7.88 -45.09,0 -90.18,0 -135.27,0 -25.53,0 -40.72,-0.82 -59.77,7.86 -16.45,7.5 -27.59,16.94 -37.64,30 -4.55,5.91 -9.16,14.08 -12.03,21.52 -2.8,7.24 -6.42,19.74 -6.42,27.66z"/>
  <path class="fil0" d="M198.19 92.38c0,-4.41 1.89,-9.15 3.7,-11.53 1.96,-2.57 5.67,-4.39 10.46,-4.24 14.42,0.44 15.98,21.49 9.49,30.48 -4.91,6.8 -23.65,9.42 -23.65,-14.71zm38.35 7.34c2.89,-13.82 -3.55,-29.19 -19.42,-32.04 -36.79,-6.6 -40.88,48.96 -10.52,52.98 17.01,2.25 26.8,-5.92 29.94,-20.94z"/>
  <path class="fil0" d="M302.48 79.72c0.16,-2.42 -0.35,-1.5 0.9,-2.15l24.82 -0.4 0.02 -9 -36.7 -0.13 0 52.13 11.11 0 -0.15 -17.36c-0.01,-2.74 -0.55,-3.06 1.67,-3.42 5.89,-0.97 15.97,0.75 22.45,-0.19 0.08,-6.43 1.13,-9.09 -2.02,-9.32 -5.22,-0.39 -15.23,0.68 -22.05,-0.12l-0.05 -10.04z"/>
  <polygon class="fil0" points="258.21,77.42 283.24,77.48 282.94,68.11 246.95,68.13 246.95,120.17 257.95,120.17 258.14,99.35 281.59,99.57 281.44,89.92 257.94,89.86 "/>
 </g>
</svg>
