<?xml version="1.0" encoding="UTF-8"?>
<!DOCTYPE svg PUBLIC "-//W3C//DTD SVG 1.1//EN" "http://www.w3.org/Graphics/SVG/1.1/DTD/svg11.dtd">
<!-- Creator: CorelDRAW 2018 (64 Bit Versión de evaluación) -->
<svg xmlns="http://www.w3.org/2000/svg" xml:space="preserve" width="25mm" height="12.0558mm" version="1.1" style="shape-rendering:geometricPrecision; text-rendering:geometricPrecision; image-rendering:optimizeQuality; fill-rule:evenodd; clip-rule:evenodd"
viewBox="0 0 2244.08 1082.17"
 xmlns:xlink="http://www.w3.org/1999/xlink">
 <defs>
  <style type="text/css">
   <![CDATA[
    .fil1 {fill:#FF6CC5}
    .fil0 {fill:white}
   ]]>
  </style>
 </defs>
 <g id="Capa_x0020_1">
  <metadata id="CorelCorpID_0Corel-Layer"/>
  <path class="fil0" d="M695.69 694.27l59.67 -0.92c6.96,-56.62 -4.7,-202.69 -1.41,-270.73 12.01,19.02 26.09,49.5 35.74,68.67l73.9 137.66c7.41,13.55 12.33,23.09 19.34,35.08 22.04,37.76 -1.1,30.25 104.33,30.24 0.01,-57.65 2.32,-314.69 -1.01,-351.15l-65.28 -0.4c-4.62,46.69 -1.73,201.33 2.97,258.55 -4.34,-4.08 -2.24,-0.99 -6.05,-7.43l-128.01 -234.1c-10.29,-20.19 -8.94,-17.43 -36.42,-17.09 -78.97,0.98 -67.71,-8.76 -67.4,37.55l0.01 269.22c-0.02,14.69 -5.97,44.86 9.61,44.86z"/>
  <path class="fil0" d="M541.88 534.03c0,27.06 -13.7,62.04 -26.37,76.16 -41.16,45.88 -156.22,47.55 -159.03,-92.29 -2.77,-137.36 120.3,-139.36 159.8,-89.56 27.4,34.55 25.61,65.28 25.61,105.68zm-262.76 -19.23c0,50.46 15.91,100.53 40.85,128.99 46.6,53.16 89.02,53.69 148.21,53.69 38.71,0 84.26,-27.07 103.43,-47.21 22.29,-23.4 47.18,-76.67 47.18,-106.63 0,-57.19 0.61,-110.34 -45.09,-156.98 -94.64,-96.59 -294.58,-48.98 -294.58,128.14z"/>
  <path class="fil1" d="M1655.99 90.25c56.79,-11.83 155.87,9.74 198.18,25.56 58.2,21.77 98.85,49.2 142.84,84.54 34.33,27.58 77.1,82.53 101,126.52 62.15,114.38 70.58,258.25 25.32,375.39 -31.04,80.33 -78.49,145.44 -145.02,198.01 -21.96,17.35 -42.93,31.04 -67.98,44.22 -115.82,60.92 -248.45,69 -368.99,25.73 -155.09,-55.68 -280.81,-203.22 -297.32,-385.15 -6.77,-74.52 5.88,-146.26 26.86,-200.01 25.1,-64.31 46.77,-94.54 85.19,-142.54 28.46,-35.56 83.92,-78.7 126.82,-100.58 86.46,-44.1 89.77,-34.33 173.1,-51.69zm-1376.87 424.55c0,-177.12 199.94,-224.73 294.58,-128.14 45.7,46.64 45.09,99.79 45.09,156.98 0,29.96 -24.89,83.23 -47.18,106.63 -19.16,20.13 -64.71,47.21 -103.43,47.21 -59.19,0 -101.61,-0.53 -148.21,-53.69 -24.95,-28.46 -40.85,-78.53 -40.85,-128.99zm416.57 179.46c-15.58,0 -9.63,-30.17 -9.61,-44.86l-0.01 -269.22c-0.31,-46.31 -11.57,-36.57 67.4,-37.55 27.48,-0.34 26.13,-3.1 36.42,17.09l128.01 234.1c3.81,6.45 1.71,3.35 6.05,7.43 -4.7,-57.22 -7.59,-211.86 -2.97,-258.55l65.28 0.4c3.34,36.45 1.02,293.5 1.01,351.15 -105.43,0.01 -82.3,7.52 -104.33,-30.24 -7,-11.99 -11.92,-21.53 -19.34,-35.08l-73.9 -137.66c-9.66,-19.17 -23.73,-49.65 -35.74,-68.67 -3.29,68.04 8.37,214.1 1.41,270.73l-59.67 0.92zm-173.4 -690.36c-16.32,2.45 -33.98,1.16 -48.9,3.37 -98.05,14.51 -178.31,42.63 -258.1,103.9 -76.87,59.05 -139.72,133.74 -179.7,237.01 -80.98,209.2 -21.19,461.93 153.38,606.06 165.42,136.57 287.18,127.81 493.91,127.81l1041.5 0.05c109.03,0.32 224.18,-47.69 305.24,-108.22 77.55,-57.89 141.02,-140.12 179.03,-237.52 42.69,-109.37 47.31,-238.05 11.15,-354.88 -63.29,-204.53 -240.35,-347.54 -454.8,-375.2 -84.93,-10.96 -885.07,-1.97 -1037.25,-4.06 -53.8,-0.74 -157.75,-5.48 -205.45,1.68z"/>
  <path class="fil1" d="M541.88 534.03c0,-40.39 1.8,-71.13 -25.61,-105.68 -39.5,-49.8 -162.57,-47.81 -159.8,89.56 2.82,139.83 117.88,138.16 159.03,92.29 12.67,-14.13 26.37,-49.1 26.37,-76.16z"/>
 </g>
</svg>
