<?xml version="1.0" encoding="UTF-8"?>
<!DOCTYPE svg PUBLIC "-//W3C//DTD SVG 1.1//EN" "http://www.w3.org/Graphics/SVG/1.1/DTD/svg11.dtd">
<!-- Creator: CorelDRAW 2018 (64 Bit Versión de evaluación) -->
<svg xmlns="http://www.w3.org/2000/svg" xml:space="preserve" width="25mm" height="12.0558mm" version="1.1" style="shape-rendering:geometricPrecision; text-rendering:geometricPrecision; image-rendering:optimizeQuality; fill-rule:evenodd; clip-rule:evenodd"
viewBox="0 0 367.41 177.17"
 xmlns:xlink="http://www.w3.org/1999/xlink">
 <defs>
  <style type="text/css">
   <![CDATA[
    .fil1 {fill:black}
    .fil0 {fill:white}
   ]]>
  </style>
 </defs>
 <g id="Capa_x0020_1">
  <metadata id="CorelCorpID_0Corel-Layer"/>
  <path class="fil0" d="M113.9 113.67l9.77 -0.15c1.14,-9.27 -0.77,-33.18 -0.23,-44.32 1.97,3.11 4.27,8.1 5.85,11.24l12.1 22.54c1.21,2.22 2.02,3.78 3.17,5.74 3.61,6.18 -0.18,4.95 17.08,4.95 0,-9.44 0.38,-51.52 -0.17,-57.49l-10.69 -0.07c-0.76,7.64 -0.28,32.96 0.49,42.33 -0.71,-0.67 -0.37,-0.16 -0.99,-1.22l-20.96 -38.33c-1.68,-3.31 -1.46,-2.85 -5.96,-2.8 -12.93,0.16 -11.09,-1.43 -11.04,6.15l0 44.08c-0,2.41 -0.98,7.35 1.57,7.35z"/>
  <path class="fil0" d="M88.72 87.43c0,4.43 -2.24,10.16 -4.32,12.47 -6.74,7.51 -25.58,7.78 -26.04,-15.11 -0.45,-22.49 19.7,-22.82 26.16,-14.66 4.49,5.66 4.19,10.69 4.19,17.3zm-43.02 -3.15c0,8.26 2.6,16.46 6.69,21.12 7.63,8.7 14.57,8.79 24.26,8.79 6.34,0 13.8,-4.43 16.93,-7.73 3.65,-3.83 7.72,-12.55 7.72,-17.46 0,-9.36 0.1,-18.06 -7.38,-25.7 -15.49,-15.81 -48.23,-8.02 -48.23,20.98z"/>
  <path class="fil1" d="M271.12 14.78c9.3,-1.94 25.52,1.59 32.45,4.19 9.53,3.56 16.18,8.05 23.39,13.84 5.62,4.51 12.62,13.51 16.54,20.71 10.18,18.73 11.56,42.28 4.15,61.46 -5.08,13.15 -12.85,23.81 -23.74,32.42 -3.59,2.84 -7.03,5.08 -11.13,7.24 -18.96,9.97 -40.68,11.3 -60.41,4.21 -25.39,-9.12 -45.97,-33.27 -48.68,-63.06 -1.11,-12.2 0.96,-23.95 4.4,-32.75 4.11,-10.53 7.66,-15.48 13.95,-23.34 4.66,-5.82 13.74,-12.89 20.76,-16.47 14.16,-7.22 14.7,-5.62 28.34,-8.46zm-225.42 69.51c0,-29 32.73,-36.79 48.23,-20.98 7.48,7.64 7.38,16.34 7.38,25.7 0,4.91 -4.08,13.63 -7.72,17.46 -3.14,3.3 -10.59,7.73 -16.93,7.73 -9.69,0 -16.64,-0.09 -24.26,-8.79 -4.08,-4.66 -6.69,-12.86 -6.69,-21.12zm68.2 29.38c-2.55,0 -1.58,-4.94 -1.57,-7.35l-0 -44.08c-0.05,-7.58 -1.89,-5.99 11.04,-6.15 4.5,-0.06 4.28,-0.51 5.96,2.8l20.96 38.33c0.62,1.06 0.28,0.55 0.99,1.22 -0.77,-9.37 -1.24,-34.69 -0.49,-42.33l10.69 0.07c0.55,5.97 0.17,48.05 0.17,57.49 -17.26,0 -13.47,1.23 -17.08,-4.95 -1.15,-1.96 -1.95,-3.53 -3.17,-5.74l-12.1 -22.54c-1.58,-3.14 -3.89,-8.13 -5.85,-11.24 -0.54,11.14 1.37,35.05 0.23,44.32l-9.77 0.15zm-28.39 -113.03c-2.67,0.4 -5.56,0.19 -8.01,0.55 -16.05,2.38 -29.19,6.98 -42.26,17.01 -12.59,9.67 -22.87,21.9 -29.42,38.8 -13.26,34.25 -3.47,75.63 25.11,99.22 27.08,22.36 47.02,20.93 80.86,20.93l170.52 0.01c17.85,0.05 36.7,-7.81 49.97,-17.72 12.7,-9.48 23.09,-22.94 29.31,-38.89 6.99,-17.91 7.74,-38.97 1.83,-58.1 -10.36,-33.49 -39.35,-56.9 -74.46,-61.43 -13.9,-1.79 -144.9,-0.32 -169.82,-0.66 -8.81,-0.12 -25.83,-0.9 -33.64,0.27z"/>
  <path class="fil1" d="M88.72 87.43c0,-6.61 0.29,-11.65 -4.19,-17.3 -6.47,-8.15 -26.62,-7.83 -26.16,14.66 0.46,22.89 19.3,22.62 26.04,15.11 2.08,-2.31 4.32,-8.04 4.32,-12.47z"/>
 </g>
</svg>
