<?xml version="1.0" encoding="UTF-8"?>
<!DOCTYPE svg PUBLIC "-//W3C//DTD SVG 1.1//EN" "http://www.w3.org/Graphics/SVG/1.1/DTD/svg11.dtd">
<!-- Creator: CorelDRAW 2018 (64 Bit Versión de evaluación) -->
<svg xmlns="http://www.w3.org/2000/svg" xml:space="preserve" width="32.7506mm" height="28.0078mm" version="1.1" style="shape-rendering:geometricPrecision; text-rendering:geometricPrecision; image-rendering:optimizeQuality; fill-rule:evenodd; clip-rule:evenodd"
viewBox="0 0 662.92 566.92"
 xmlns:xlink="http://www.w3.org/1999/xlink">
 <defs>
  <style type="text/css">
   <![CDATA[
    .str1 {stroke:#373435;stroke-width:20.24;stroke-miterlimit:22.9256}
    .str0 {stroke:#373435;stroke-width:30.36;stroke-miterlimit:22.9256}
    .str2 {stroke:#373435;stroke-width:30.36;stroke-linecap:round;stroke-miterlimit:22.9256}
    .str3 {stroke:#373435;stroke-width:30.36;stroke-linecap:round;stroke-linejoin:round;stroke-miterlimit:22.9256}
    .fil0 {fill:none}
    .fil1 {fill:#373435}
   ]]>
  </style>
 </defs>
 <g id="Capa_x0020_1">
  <metadata id="CorelCorpID_0Corel-Layer"/>
  <g id="_1733969249680">
   <path class="fil0 str0" d="M413.52 315.88l0 -35.29c0,-4.48 5.24,-8.14 7.27,-8.14l93.4 0c2.03,0 6.86,3.66 6.86,8.14l0 35.29"/>
   <path class="fil0 str1" d="M431.67 431.87l71.22 0c3.24,0 5.89,3.22 5.89,7.16l0 34.8c0,3.94 -2.65,7.16 -5.89,7.16l-71.22 0c-3.24,0 -5.89,-3.22 -5.89,-7.16l0 -34.8c0,-3.94 2.65,-7.16 5.89,-7.16z"/>
   <path class="fil0 str0" d="M635.34 454.28l0 76.73c0,11.4 -9.21,20.73 -20.46,20.73l-295.2 0c-11.25,0 -20.46,-9.33 -20.46,-20.73l0 -75"/>
   <path class="fil0 str0" d="M425.78 458.02l-118.25 0c-11.39,0 -20.71,-9.33 -20.71,-20.73l0 -100.69c0,-11.4 9.32,-20.73 20.71,-20.73l319.5 0c11.39,0 20.71,9.33 20.71,20.73l0 100.69c0,11.4 -9.32,20.73 -20.71,20.73l-118.25 0"/>
  </g>
  <path class="fil0 str0" d="M40.87 278.05l72.83 0c11.43,0 20.77,9.35 20.77,20.77l0 218.47 -114.38 0 0 -218.47c0,-11.43 9.35,-20.77 20.77,-20.77z"/>
  <path class="fil0 str2" d="M251.57 516.77l-71.53 0 0 -309.86c0,-10.76 9.35,-19.57 20.77,-19.57l72.83 0c11.43,0 20.77,8.81 20.77,19.57l0 65.88"/>
  <path class="fil0 str3" d="M342.48 269.2l0 -119.96c0,-11.43 9.35,-20.77 20.77,-20.77l72.83 0c11.43,0 20.77,9.36 20.77,20.77l0 78.12"/>
  <path class="fil0 str2" d="M500.49 225.56l0 -121.58c0,-11.43 9.35,-20.77 20.77,-20.77l72.83 0c11.43,0 20.77,9.36 20.77,20.77l0 175.53"/>
  <path class="fil1" d="M91.92 124.94c8.16,1.46 16.1,5.26 16.53,13.47 0.48,9.24 -7.78,12.89 -16.57,13.35l0.05 -26.82zm-23.18 -48.05c-23.36,-3.4 -22.11,-25.76 -0.03,-26.25l0.03 26.25zm-1.34 -62.75c-68.65,4.91 -72.3,68.75 -39.97,90.97 5.49,3.78 11.88,6.71 18.95,9.28 6.32,2.3 16.91,4.34 22.12,6.69l-0.04 29.1c-8.97,-0.02 -27.21,-8.22 -35.56,-13.26 -3.15,-1.9 -7.39,-5.15 -10.51,-6.38l-22.37 32.48c5.96,5.52 21,12.93 29.72,16.05 20.56,7.37 22.79,5.25 37.18,9.03l0.09 24.56 25.63 -0.04 0.4 -24.22c17.95,-2.96 29.55,-5.42 41.37,-15.13 22.55,-18.53 24.6,-57.59 -2.04,-76.13 -5.37,-3.74 -11.84,-6.84 -18.72,-9.45 -5.86,-2.23 -16.58,-4.33 -21.37,-6.59l-0 -27.94c12.02,0.44 24.27,9.81 32.9,14.06 1.01,-0.94 0.6,-0.44 1.64,-1.86 0.7,-0.96 0.71,-1.11 1.28,-2.03 0.96,-1.56 1.78,-2.87 2.53,-4.09 1.92,-3.13 3.11,-5.26 5,-8.27 3.35,-5.35 6.57,-11.27 10.08,-16.16 -7.17,-9.29 -37.46,-18.53 -52.15,-19.91l-0.14 -14.65 -25.93 -0.23 -0.08 14.14z"/>
 </g>
</svg>
