<?xml version="1.0" encoding="UTF-8"?>
<!DOCTYPE svg PUBLIC "-//W3C//DTD SVG 1.1//EN" "http://www.w3.org/Graphics/SVG/1.1/DTD/svg11.dtd">
<!-- Creator: CorelDRAW 2018 (64 Bit Versión de evaluación) -->
<svg xmlns="http://www.w3.org/2000/svg" xml:space="preserve" width="24.3264mm" height="26.4mm" version="1.1" style="shape-rendering:geometricPrecision; text-rendering:geometricPrecision; image-rendering:optimizeQuality; fill-rule:evenodd; clip-rule:evenodd"
viewBox="0 0 422.7 458.73"
 xmlns:xlink="http://www.w3.org/1999/xlink">
 <defs>
  <style type="text/css">
   <![CDATA[
    .str0 {stroke:#FEFEFE;stroke-width:17.38;stroke-linecap:round;stroke-linejoin:round;stroke-miterlimit:22.9256}
    .fil0 {fill:none}
    .fil1 {fill:none;fill-rule:nonzero}
    .fil2 {fill:#FEFEFE}
   ]]>
  </style>
 </defs>
 <g id="Capa_x0020_1">
  <metadata id="CorelCorpID_0Corel-Layer"/>
  <path class="fil0 str0" d="M414.01 86.99l-0.14 325.04c-0.01,20.9 -17.11,38.01 -38.01,38.01l-271.09 0c-20.9,0 -38.01,-17.1 -38.01,-38.01l0 -21.72m0 -247.69l0 -95.92c0,-20.91 17.1,-38.02 38.01,-38.01l231.08 0.15"/>
  <path class="fil1 str0" d="M335.85 8.83l78.15 78.15 -43.4 0c-19.14,0 -34.75,-15.61 -34.75,-34.75l0 -43.4z"/>
  <path class="fil2" d="M42.43 172.32l266.83 0c23.34,0 42.43,19.09 42.43,42.43l0 101.51c0,23.34 -19.09,42.43 -42.43,42.43l-266.83 0c-23.34,0 -42.43,-19.09 -42.43,-42.43l0 -101.51c0,-23.34 19.09,-42.43 42.43,-42.43zm85.42 157.43c-10.95,0 -20.52,-2.52 -28.73,-7.56 -8.21,-5.04 -14.57,-12.13 -19.08,-21.26 -4.51,-9.13 -6.76,-19.86 -6.76,-32.18 0,-12.43 2.25,-23.19 6.76,-32.26 4.51,-9.07 10.84,-16.1 19,-21.09 8.16,-4.99 17.76,-7.48 28.81,-7.48 11.05,0 20.66,2.49 28.81,7.48 8.16,4.99 14.49,12.02 19,21.09 4.51,9.07 6.76,19.77 6.76,32.1 0,12.43 -2.25,23.22 -6.76,32.35 -4.51,9.13 -10.84,16.22 -19,21.26 -8.16,5.04 -17.76,7.56 -28.81,7.56zm0 -18.48c10.41,0 18.51,-3.75 24.31,-11.26 5.79,-7.5 8.69,-17.92 8.69,-31.26 0,-13.44 -2.87,-23.86 -8.61,-31.26 -5.74,-7.39 -13.87,-11.09 -24.39,-11.09 -10.41,0 -18.51,3.7 -24.31,11.09 -5.8,7.4 -8.69,17.81 -8.69,31.26 0,13.33 2.9,23.75 8.69,31.26 5.79,7.51 13.9,11.26 24.31,11.26zm106.24 18.15c-6.87,0 -10.3,-3.7 -10.3,-11.09l0 -90.74 -31.39 0c-5.9,0 -8.85,-3.02 -8.85,-9.07 0,-5.94 2.95,-8.91 8.85,-8.91l83.39 0c5.9,0 8.85,2.97 8.85,8.91 0,6.05 -2.95,9.07 -8.85,9.07l-31.39 0 0 90.74c0,7.39 -3.43,11.09 -10.3,11.09z"/>
 </g>
</svg>
