<?xml version="1.0" encoding="UTF-8"?>
<!DOCTYPE svg PUBLIC "-//W3C//DTD SVG 1.1//EN" "http://www.w3.org/Graphics/SVG/1.1/DTD/svg11.dtd">
<!-- Creator: CorelDRAW 2018 (64 Bit Versión de evaluación) -->
<svg xmlns="http://www.w3.org/2000/svg" xml:space="preserve" width="24.3264mm" height="26.4mm" version="1.1" style="shape-rendering:geometricPrecision; text-rendering:geometricPrecision; image-rendering:optimizeQuality; fill-rule:evenodd; clip-rule:evenodd"
viewBox="0 0 546.15 592.71"
 xmlns:xlink="http://www.w3.org/1999/xlink">
 <defs>
  <style type="text/css">
   <![CDATA[
    .str0 {stroke:#FEFEFE;stroke-width:22.45;stroke-linecap:round;stroke-linejoin:round;stroke-miterlimit:22.9256}
    .fil0 {fill:none}
    .fil1 {fill:none;fill-rule:nonzero}
    .fil2 {fill:#FEFEFE}
   ]]>
  </style>
 </defs>
 <g id="Capa_x0020_1">
  <metadata id="CorelCorpID_0Corel-Layer"/>
  <path class="fil0 str0" d="M534.93 112.39l-0.18 419.98c-0.01,27 -22.11,49.11 -49.11,49.11l-350.26 0c-27.01,0 -49.11,-22.1 -49.11,-49.11l0 -28.06m0 -320.03l0 -123.94c0,-27.01 22.1,-49.12 49.11,-49.11l298.57 0.19"/>
  <path class="fil1 str0" d="M433.95 11.41l100.98 100.98 -56.08 0c-24.73,0 -44.9,-20.17 -44.9,-44.9l0 -56.08z"/>
  <path class="fil2" d="M51.4 425.66c-8.87,0 -13.31,-4.78 -13.31,-14.33l0 -126.37c0,-9.41 4.51,-14.11 13.52,-14.11l50.13 0c16.08,0 28.49,4.2 37.23,12.59 8.74,8.39 13.1,20.12 13.1,35.17 0,15.05 -4.37,26.81 -13.1,35.28 -8.74,8.47 -21.14,12.7 -37.23,12.7l-37.02 0 0 44.73c0,9.55 -4.44,14.33 -13.31,14.33zm13.31 -80.99l32.86 0c19.13,0 28.7,-8.69 28.7,-26.05 0,-17.23 -9.57,-25.84 -28.7,-25.84l-32.86 0 0 51.89zm123.13 79.25c-9.43,0 -14.14,-4.92 -14.14,-14.76l0 -123.54c0,-9.84 4.71,-14.77 14.14,-14.77l40.35 0c24.54,0 43.5,6.59 56.88,19.76 13.38,13.17 20.07,32.06 20.07,56.67 0,24.46 -6.69,43.35 -20.07,56.67 -13.38,13.32 -32.34,19.97 -56.88,19.97l-40.35 0zm12.48 -23.01l26.2 0c33.83,0 50.75,-17.88 50.75,-53.63 0,-35.61 -16.92,-53.41 -50.75,-53.41l-26.2 0 0 107.04zm145.59 24.75c-9.15,0 -13.73,-4.92 -13.73,-14.77l0 -125.28c0,-9.84 4.71,-14.77 14.14,-14.77l72.59 0c7.21,0 10.81,3.62 10.81,10.86 0,7.53 -3.61,11.29 -10.81,11.29l-60.11 0 0 43.21 55.74 0c7.21,0 10.82,3.62 10.82,10.86 0,7.53 -3.61,11.29 -10.82,11.29l-55.74 0 0 52.54c0,9.84 -4.3,14.77 -12.9,14.77zm-291.09 -203.02l344.77 0c30.15,0 54.83,24.67 54.83,54.83l0 131.16c0,30.15 -24.67,54.83 -54.83,54.83l-344.77 0c-30.15,0 -54.83,-24.67 -54.83,-54.83l0 -131.16c0,-30.16 24.67,-54.83 54.83,-54.83z"/>
 </g>
</svg>
