<?xml version="1.0" encoding="UTF-8"?>
<!DOCTYPE svg PUBLIC "-//W3C//DTD SVG 1.1//EN" "http://www.w3.org/Graphics/SVG/1.1/DTD/svg11.dtd">
<!-- Creator: CorelDRAW 2018 (64 Bit Versión de evaluación) -->
<svg xmlns="http://www.w3.org/2000/svg" xml:space="preserve" width="25.9997mm" height="28.5193mm" version="1.1" style="shape-rendering:geometricPrecision; text-rendering:geometricPrecision; image-rendering:optimizeQuality; fill-rule:evenodd; clip-rule:evenodd"
viewBox="0 0 1325.47 1453.92"
 xmlns:xlink="http://www.w3.org/1999/xlink">
 <defs>
  <style type="text/css">
   <![CDATA[
    .str1 {stroke:#373435;stroke-width:50.98;stroke-miterlimit:22.9256}
    .str0 {stroke:#373435;stroke-width:50.98;stroke-linecap:round;stroke-linejoin:round;stroke-miterlimit:22.9256}
    .fil0 {fill:none}
    .fil1 {fill:#373435}
   ]]>
  </style>
 </defs>
 <g id="Capa_x0020_1">
  <metadata id="CorelCorpID_0Corel-Layer"/>
  <path class="fil0 str0" d="M973.09 261.56l-56.15 -38.13 -293.31 50.38c-91.66,23.06 -129.93,41.22 -183.42,119.99 -131.89,194.22 -263.77,388.45 -395.66,582.68 -24.29,35.76 -30.7,78.45 12.87,108.04l251.64 170.87m656.76 -998.77l61.05 41.46 61.36 291.21c12.37,93.71 9.61,135.97 -43.88,214.75 -131.89,194.22 -263.77,388.45 -395.66,582.67 -24.29,35.76 -61.6,57.47 -105.17,27.89l-251.63 -170.87"/>
  <circle class="fil0 str1" transform="matrix(0.862105 0.5854 -0.5854 0.862105 821.528 485.226)" r="101.33"/>
  <path class="fil0 str0" d="M932.3 206.49c0.81,-6.06 1.05,-12.23 2.43,-18.17 5.76,-24.94 10.36,-39.24 22.72,-61.88 5.45,-9.98 21.27,-29.18 29.12,-37.41 37.54,-39.38 87.25,-67.41 144.79,-63.1 27.82,2.09 55.35,11.06 80.37,23.43 19.33,9.56 36.19,24.5 50.01,41.03 13.99,16.75 25.35,36.34 32.01,57.13 6.17,19.28 7.07,40.29 5.65,60.48 -5.02,71.83 -25.77,100.98 -75.37,152.7 -22.31,23.26 -47.12,45.01 -75.24,60.77 -27.52,15.42 -58.94,22.83 -89.29,31.44 -27.62,7.83 -55.95,13.16 -84.29,17.76 -35.86,5.82 -50.67,6.43 -86.73,10.92"/>
  <path class="fil1" d="M571.03 962.37c19.88,3.55 39.24,12.84 40.28,32.83 1.17,22.52 -18.97,31.41 -40.39,32.55l0.11 -65.38zm-56.52 -117.13c-56.93,-8.29 -53.9,-62.79 -0.08,-63.99l0.08 63.99zm-3.26 -152.97c-167.34,11.98 -176.24,167.58 -97.43,221.75 13.38,9.2 28.96,16.35 46.18,22.62 15.41,5.61 41.21,10.57 53.91,16.32l-0.09 70.94c-21.86,-0.06 -66.34,-20.03 -86.67,-32.33 -7.69,-4.64 -18.02,-12.56 -25.63,-15.56l-54.54 79.16c14.52,13.45 51.19,31.52 72.45,39.13 50.12,17.96 55.55,12.79 90.62,22.01l0.22 59.86 62.47 -0.1 0.97 -59.05c43.75,-7.22 72.05,-13.2 100.84,-36.88 54.96,-45.17 59.95,-140.38 -4.98,-185.56 -13.09,-9.11 -28.85,-16.67 -45.64,-23.05 -14.27,-5.43 -40.41,-10.56 -52.1,-16.07l-0.01 -68.1c29.29,1.08 59.15,23.92 80.2,34.26 2.45,-2.28 1.46,-1.08 3.99,-4.54 1.71,-2.35 1.74,-2.7 3.13,-4.96 2.34,-3.79 4.33,-7 6.16,-9.98 4.69,-7.62 7.59,-12.81 12.18,-20.16 8.16,-13.03 16.01,-27.46 24.58,-39.4 -17.47,-22.64 -91.32,-45.16 -127.11,-48.53l-0.33 -35.71 -63.2 -0.56 -0.19 34.46z"/>
 </g>
</svg>
