<?xml version="1.0" encoding="UTF-8"?>
<!DOCTYPE svg PUBLIC "-//W3C//DTD SVG 1.1//EN" "http://www.w3.org/Graphics/SVG/1.1/DTD/svg11.dtd">
<!-- Creator: CorelDRAW 2018 (64 Bit Versión de evaluación) -->
<svg xmlns="http://www.w3.org/2000/svg" xml:space="preserve" width="31.0557mm" height="26.0371mm" version="1.1" style="shape-rendering:geometricPrecision; text-rendering:geometricPrecision; image-rendering:optimizeQuality; fill-rule:evenodd; clip-rule:evenodd"
viewBox="0 0 781.78 655.45"
 xmlns:xlink="http://www.w3.org/1999/xlink">
 <defs>
  <style type="text/css">
   <![CDATA[
    .fil1 {fill:#FEFEFE}
    .fil0 {fill:#FEFEFE}
   ]]>
  </style>
 </defs>
 <g id="Capa_x0020_1">
  <metadata id="CorelCorpID_0Corel-Layer"/>
  <g id="_2243734522496">
   <path class="fil0" d="M27 509.3c8.94,-8.89 17.56,-17.62 26.63,-26.69 11.14,-11.13 21.4,-26.01 31.77,-18.28l80.01 79.87c27.01,27.07 36.01,28.76 20.18,44.53l-40.02 39.49c-4.48,-2.42 -24.78,-23.97 -30.07,-29.34 -10.07,-10.24 -19.6,-19.52 -29.69,-29.66 -7.82,-7.85 -56.83,-55.31 -58.82,-59.93zm83.52 -51.53c4.3,-6.43 16.89,-15.25 25.23,-20.36 65.79,-40.36 131.42,-26.01 197.47,-27.29 15.1,-0.29 29.96,-1.02 45,-1.49 8.14,-0.25 13.71,-0.31 19.45,3.83 9.07,6.55 11,21.97 0.24,30.52 -5.32,4.23 -10.79,4.26 -18.73,4.23 -11.58,-0.05 -85.03,-1.38 -90.25,1.61 -5.15,2.95 -6.88,10.16 -3.37,15.48 3.56,5.42 10.21,4.98 17.04,4.96 15.09,-0.05 81.18,0.97 90.48,-0.62 18.45,-3.15 31.73,-18.22 33.81,-34.97 1.6,-12.82 -2.67,-8.58 5.71,-16.33 8.12,-7.52 14.03,-14.07 23.06,-22.89l46.52 -45.39c22.12,-21.86 51.46,6.44 30.19,29.23 -12.17,13.04 -30.95,36.97 -42.58,49.32 -20.95,22.25 -42.97,55.31 -67.75,69.2 -26.57,14.89 -42.47,14.49 -76.35,14.49 -49.43,0 -99.48,-8.31 -137.24,22.68 -3.21,2.63 -9.2,8.3 -12.1,9.59 -5.26,-3.49 -56.04,-55.29 -64.79,-64.12 -5.33,-5.38 -17.14,-15.74 -21.01,-21.71zm100.97 102.04c10.54,-7.11 14.4,-13.9 31.07,-20.38 33.67,-13.08 105.83,-1.3 145.61,-7.64 27.86,-4.44 49.4,-15.97 68.55,-33.79 7.21,-6.71 41.27,-45.96 47.82,-53.66l47.54 -54.95c19.44,-23.05 7.8,-56.72 -15.88,-66.63 -30.84,-12.9 -48.2,9.22 -67.04,27.79l-51.7 50.09c-5.48,-3.64 -6.67,-6.84 -14.7,-10.47 -14.97,-6.77 -49.48,-2.31 -70.5,-2.09 -66.07,0.7 -112.17,-10.22 -179.14,15.94 -32.1,12.54 -39,21.61 -60.2,38.98 -27.13,-10.12 -40.75,10.2 -51.81,21.34 -45.91,46.26 -50.33,40.87 -28.24,62.91l97.65 97.66c6.77,6.76 12.87,12.87 19.62,19.62 5.63,5.64 13.32,17.19 23.97,6.53 13.3,-13.33 25.99,-25.9 39.23,-39.28 5.47,-5.53 14.62,-12.79 18.6,-20.65 6.87,-13.56 2.2,-19.62 -0.45,-31.35z"/>
   <path class="fil0" d="M299.62 202.98c9.42,1.68 18.6,6.08 19.09,15.55 0.55,10.67 -8.99,14.89 -19.14,15.42l0.05 -30.98zm-26.78 -55.5c-26.98,-3.93 -25.54,-29.76 -0.04,-30.32l0.04 30.32zm-1.55 -72.48c-79.29,5.67 -83.51,79.41 -46.17,105.08 6.34,4.36 13.72,7.75 21.88,10.72 7.3,2.66 19.52,5.01 25.55,7.73l-0.05 33.61c-10.36,-0.03 -31.43,-9.49 -41.07,-15.32 -3.64,-2.2 -8.54,-5.95 -12.15,-7.37l-25.84 37.51c6.88,6.37 24.26,14.93 34.33,18.54 23.75,8.51 26.32,6.06 42.94,10.43l0.1 28.37 29.6 -0.05 0.46 -27.98c20.73,-3.42 34.14,-6.26 47.78,-17.48 26.04,-21.41 28.41,-66.52 -2.36,-87.93 -6.21,-4.31 -13.67,-7.89 -21.63,-10.92 -6.76,-2.57 -19.15,-5 -24.69,-7.62l0 -32.27c13.88,0.51 28.03,11.33 38,16.23 1.16,-1.08 0.69,-0.51 1.89,-2.15 0.81,-1.11 0.82,-1.28 1.48,-2.35 1.11,-1.8 2.05,-3.32 2.92,-4.73 2.22,-3.61 3.6,-6.07 5.77,-9.55 3.87,-6.18 7.58,-13.01 11.65,-18.67 -8.28,-10.73 -43.27,-21.4 -60.23,-23l-0.16 -16.92 -29.94 -0.27 -0.09 16.33z"/>
   <path class="fil0" d="M275.54 347.09c-89.23,-0.73 -161.33,-73.22 -161.33,-162.54 0,-85.65 66.3,-155.83 150.43,-162.09 4.6,-0.44 9.27,-0.7 14.02,-0.76 78.34,-1.04 136.09,51.34 156.08,109.6 12.64,36.86 11.78,76.88 -2.36,112.6 -6.51,16.46 -14.99,30.07 -24.21,41.83 -17.06,21.75 -25.74,24.02 -33.57,32.04 -1.74,0.88 -13.5,7.88 -15.44,10.23 -2.77,-0.4 -1.34,-0.3 -1.43,0.52l-9.18 3.49 -3.84 2.46c-2.14,0.61 -3.49,0.86 -5.68,1.79 -0.72,0.31 -1.37,0.6 -2.01,0.97 -1.51,0.86 -0.79,0.43 -1.75,1.32 -9.08,0.21 -24.35,9.37 -59.49,8.56 -0.08,-0 -0.16,-0.01 -0.24,-0.01zm-181.92 -162.49c0,101.96 82.65,184.61 184.61,184.61 101.96,0 184.61,-82.65 184.61,-184.61 0,-101.96 -82.65,-184.61 -184.61,-184.61 -101.96,0 -184.61,82.65 -184.61,184.61z"/>
   <path class="fil1" d="M781.78 7.26c-34.07,7.94 -71.76,54.48 -91.43,84.09 -14.58,21.95 -57.61,99.45 -67.32,107.68 -7.79,-11.7 -11.34,-24.05 -18.98,-36.36 -8.32,-13.41 -14.5,-22.58 -24.8,-32.36 -25.93,3.74 -51.66,23.48 -61.97,37.07 8.91,7.22 23.92,13.68 33.18,20.89 37.88,29.48 53.59,71.95 72.57,89.05 10.55,-10.05 23.68,-35.12 33.1,-49.11 57.55,-85.44 53.69,-72.8 120.75,-128.53l4.9 -92.42z"/>
  </g>
 </g>
</svg>
