<?xml version="1.0" encoding="UTF-8"?>
<!DOCTYPE svg PUBLIC "-//W3C//DTD SVG 1.1//EN" "http://www.w3.org/Graphics/SVG/1.1/DTD/svg11.dtd">
<!-- Creator: CorelDRAW 2018 (64 Bit Versión de evaluación) -->
<svg xmlns="http://www.w3.org/2000/svg" xml:space="preserve" width="29.289mm" height="20.5005mm" version="1.1" style="shape-rendering:geometricPrecision; text-rendering:geometricPrecision; image-rendering:optimizeQuality; fill-rule:evenodd; clip-rule:evenodd"
viewBox="0 0 490.17 343.09"
 xmlns:xlink="http://www.w3.org/1999/xlink">
 <defs>
  <style type="text/css">
   <![CDATA[
    .str2 {stroke:#373435;stroke-width:16.74;stroke-linecap:round;stroke-miterlimit:22.9256}
    .str1 {stroke:#373435;stroke-width:16.74;stroke-linecap:round;stroke-linejoin:round;stroke-miterlimit:22.9256}
    .str0 {stroke:#373435;stroke-width:25.1;stroke-linecap:round;stroke-linejoin:round;stroke-miterlimit:22.9256}
    .fil0 {fill:none}
    .fil1 {fill:#373435}
   ]]>
  </style>
 </defs>
 <g id="Capa_x0020_1">
  <metadata id="CorelCorpID_0Corel-Layer"/>
  <path class="fil0 str0" d="M183.7 288.35l5.06 -0.05 9.82 -0.09 0 -194.42c-0.75,-15.35 -3.16,-18.24 -18.94,-18.94l-63.28 0c-13.06,0.34 -18.8,2.02 -28.81,10.28 -16.6,13.69 -26.34,36.96 -39.08,55.07 -1.56,1.56 -3.13,3.13 -4.69,4.69 -1.64,1.64 -3.28,3.28 -4.92,4.92 -4.1,2.8 -8.19,5.59 -12.29,8.39 -1.56,1.45 -3.13,2.9 -4.69,4.34 -1.67,1.87 -3.33,3.75 -5,5.63 -0.86,1.69 -1.72,3.39 -2.59,5.08 -0.58,1.95 -1.16,3.9 -1.75,5.85l0.15 78.39c0.02,8.75 -0.31,17.82 5.1,23.86 3.28,3.67 10.52,6.75 16.47,6.59"/>
  <path class="fil0 str1" d="M436.29 233.71c14.66,13.41 17.17,26.19 17.72,49.36 0.06,2.67 0.68,5.64 0.07,8.17"/>
  <path class="fil0 str1" d="M312.99 291.25c-0.29,-2.51 -0.44,-5.07 -0.44,-7.67 0,-19.37 8.42,-36.71 21.68,-48.32"/>
  <path class="fil0 str1" d="M109.12 231.93c28.36,0 51.35,22.99 51.35,51.35 0,28.36 -22.99,51.35 -51.35,51.35 -28.36,0 -51.35,-22.99 -51.35,-51.35 0,-28.36 22.99,-51.35 51.35,-51.35z"/>
  <path class="fil0 str1" d="M383.31 232.02c28.36,0 51.35,22.99 51.35,51.35 0,28.36 -22.99,51.35 -51.35,51.35 -28.36,0 -51.35,-22.99 -51.35,-51.35 0,-28.36 22.99,-51.35 51.35,-51.35z"/>
  <path class="fil0 str1" d="M109.12 261.48c12.04,0 21.8,9.76 21.8,21.8 0,12.04 -9.76,21.8 -21.8,21.8 -12.04,0 -21.8,-9.76 -21.8,-21.8 0,-12.04 9.76,-21.8 21.8,-21.8z"/>
  <path class="fil0 str1" d="M383.31 261.57c12.04,0 21.8,9.76 21.8,21.8 0,12.04 -9.76,21.8 -21.8,21.8 -12.04,0 -21.8,-9.76 -21.8,-21.8 0,-12.04 9.76,-21.8 21.8,-21.8z"/>
  <path class="fil0 str1" d="M436.29 233.71l38.36 0c1.44,0 2.62,1.49 2.62,3.32l0 27.85c0,14.5 -9.36,26.37 -20.8,26.37l-2.38 0"/>
  <path class="fil0 str1" d="M311.86 291.25l-87.53 0c-1.64,0 -2.98,-1.45 -2.98,-3.23l0 -49.53c0,-1.78 1.34,-3.23 2.98,-3.23l107.8 0"/>
  <path class="fil0 str1" d="M86.94 147.88l73.41 -0.33 1.23 -0.8 0.79 -1.46 0.39 -1.74 -0.01 -33.84 0.01 -0.31c0.06,-1.4 -0.93,-2.59 -2.25,-2.72l-0.75 -0.07 -37.6 0.32c-4.13,0.08 -8.31,-0.03 -11.25,2.34 -1.32,1.06 -1.42,1.11 -3.25,2.98 -8.21,8.36 -14.53,22.94 -21.55,34.01 -0.21,0.33 -0.22,0.73 -0.05,1.08 0.18,0.35 0.5,0.55 0.88,0.55z"/>
  <path class="fil0 str0" d="M226.86 211.27l250.76 0 0 -156.93c0,-22.98 -18.43,-41.78 -40.96,-41.78l-168.84 0c-22.53,0 -40.96,18.8 -40.96,41.78l0 156.93z"/>
  <path class="fil1" d="M130.92 283.28c0,-12.04 -9.76,-21.8 -21.8,-21.8 -12.04,0 -21.8,9.76 -21.8,21.8 0,12.04 9.76,21.8 21.8,21.8 12.04,0 21.8,-9.76 21.8,-21.8z"/>
  <path class="fil1" d="M361.51 283.37c0,12.04 9.76,21.8 21.8,21.8 12.04,0 21.8,-9.76 21.8,-21.8 0,-12.04 -9.76,-21.8 -21.8,-21.8 -12.04,0 -21.8,9.76 -21.8,21.8z"/>
  <path class="fil0 str2" d="M39.13 288.3l-0.5 -6.99c0,-38.94 31.54,-68.54 70.49,-68.54 38.94,0 70.51,31.57 70.51,70.51"/>
 </g>
</svg>
