<?xml version="1.0" encoding="UTF-8"?>
<!DOCTYPE svg PUBLIC "-//W3C//DTD SVG 1.1//EN" "http://www.w3.org/Graphics/SVG/1.1/DTD/svg11.dtd">
<!-- Creator: CorelDRAW 2018 (64 Bit Versión de evaluación) -->
<svg xmlns="http://www.w3.org/2000/svg" xml:space="preserve" width="18.7508mm" height="25mm" version="1.1" style="shape-rendering:geometricPrecision; text-rendering:geometricPrecision; image-rendering:optimizeQuality; fill-rule:evenodd; clip-rule:evenodd"
viewBox="0 0 184.85 246.45"
 xmlns:xlink="http://www.w3.org/1999/xlink">
 <defs>
  <style type="text/css">
   <![CDATA[
    .fil0 {fill:black}
   ]]>
  </style>
 </defs>
 <g id="Capa_x0020_1">
  <metadata id="CorelCorpID_0Corel-Layer"/>
  <path class="fil0" d="M110.98 152.39l-0.34 0.28c-85.57,23.31 -114.08,-97.58 -38.27,-120.59 85.42,-25.92 113.22,99.63 38.61,120.31zm73.87 -51.93l0 2.84c-0.31,2.2 -10.51,9.79 -13.32,17.21 -3.07,8.11 1.67,21.53 -4.56,25.13 -5.31,3.07 -16.78,4.55 -20.05,10.18l-0.28 0.28c-8.16,8.6 -3.94,20.7 -20.9,17.05 -18.72,-4.03 -21.57,5.59 -27.62,9.18 -10.53,6.26 -15.54,-7.19 -26.66,-9.73 -12.87,-2.95 -20.38,8.76 -28.16,-7.3 -6.42,-13.26 -8.01,-13.19 -21.41,-17.76 -13.06,-4.45 -4.27,-16.83 -9.26,-28.67 -4.99,-11.85 -17.23,-10.97 -10.8,-23.76 7.75,-15.44 8.63,-11.32 3.95,-29.72l-0.28 -0.35c-1.66,-16.21 8.93,-11.35 16.63,-21.78 7.35,-9.96 1.55,-22.97 15.12,-24.6l0.41 -0.28 10.31 -0.96 0.48 -0.28c4.76,-0.11 10.71,-3.95 12.71,-8.31l0.28 -0.34c12.26,-20.76 20.64,4.28 39.71,-4.13 7.76,-3.42 12.23,-7.78 19.07,-0.09 5.71,6.43 4.85,10.32 15.15,12.89 7.04,1.75 17.78,-0.49 20.98,7.05 3.25,7.64 0.66,12.75 7.58,20.45 4.11,4.58 13.79,7.97 15.44,12.6 2.07,5.79 -3.74,14.71 -3.05,23.38l0.28 0.41c-0.05,7.55 7.33,12.39 8.25,19.4zm-95.02 -46.03c-9.28,2.19 -6.26,16.2 -19.4,20.16 -3.75,1.13 -12.88,2.63 -15.72,4.24 -4.66,2.64 -0.22,11.07 2.56,13.72 14.22,13.57 6.61,13.05 7.98,30.07 1.05,13.14 20.09,-1.92 27.72,-1.1 8.69,0.94 24.66,16.1 24.92,-2.41 0.07,-5.27 -1.91,-13.56 0.25,-18.26 2.03,-4.4 6.91,-6.59 9.52,-10.45 10.18,-15.05 -9.46,-13.6 -17.76,-16.84 -9.47,-3.69 -9.2,-21.69 -20.06,-19.12zm-78.73 172.56l35.06 -6.99c4.9,7.09 13.25,22.41 20.21,26.45l18.36 -50.02c-4.79,-3.13 -6.75,-3.39 -12,-7.63 -9.57,-7.73 -22.51,2.28 -32.2,-3.67 -5.23,-3.21 -6,-10.05 -9.57,-11.38l-19.87 53.24zm106.73 18.61l19.96 -26.15 34.07 7.08 -18.79 -54.02c-4.75,1.91 -3.68,16.24 -22.6,13.44 -21.26,-3.14 -13.43,1.55 -27.07,7.7 -5.97,2.69 -2.71,4.62 -0.47,11.18 1.57,4.58 3.31,9.12 4.84,13.71 1.49,4.48 8.15,24.44 10.05,27.05zm-64.5 -213.96l-0.41 0.28 0.41 -0.28z"/>
 </g>
</svg>
