<?xml version="1.0" encoding="UTF-8"?>
<!DOCTYPE svg PUBLIC "-//W3C//DTD SVG 1.1//EN" "http://www.w3.org/Graphics/SVG/1.1/DTD/svg11.dtd">
<!-- Creator: CorelDRAW 2018 (64 Bit Versión de evaluación) -->
<svg xmlns="http://www.w3.org/2000/svg" xml:space="preserve" width="25mm" height="33.8492mm" version="1.1" style="shape-rendering:geometricPrecision; text-rendering:geometricPrecision; image-rendering:optimizeQuality; fill-rule:evenodd; clip-rule:evenodd"
viewBox="0 0 366.62 496.39"
 xmlns:xlink="http://www.w3.org/1999/xlink">
 <defs>
  <style type="text/css">
   <![CDATA[
    .fil0 {fill:#373435}
   ]]>
  </style>
 </defs>
 <g id="Capa_x0020_1">
  <metadata id="CorelCorpID_0Corel-Layer"/>
  <g id="_2296925266688">
   <path class="fil0" d="M119.12 132.37c-3.08,1.69 -8.08,7.78 -10.72,10.26 -3.05,2.88 -8.49,6.2 -10.29,9.91l0.03 98.18c-6.57,-5.07 -14.56,-19.35 -36.43,-23.56 -18.82,-3.62 -33.9,5.95 -40.76,17.62 -11.19,19.04 -3.86,39.35 9.72,53.55 56.14,58.75 88.67,108.36 88.08,198.01l205.53 0.05c0,-38.25 13.86,-69.38 25.09,-103.72 9.88,-30.22 16.89,-78.86 16.86,-111.68 -0.04,-41.64 8.77,-84.25 -53.88,-90.13 -3.91,-0.37 -13.26,0.44 -16.11,-0.35 -3.01,-0.83 -16.46,-22.85 -59.36,-20.49 -5.22,0.29 -5.15,-3.09 -9.37,-5.84l-1.69 10.14c-10.44,-1.47 -30.36,-13.25 -37.35,-18.29 -14.5,-10.46 -24.34,-23.36 -28.37,-26.16l-0.08 119.22 20.59 -0.12 0.27 -78.29c49.79,0 40.32,27.87 40.59,62.91 0.02,2.86 -0.62,12.97 0.76,14.46 1.37,1.49 7.19,1.04 9.06,1.02 3.64,-0.04 7.3,0.02 10.95,0.02l0.05 -58.2c7.79,-0.28 19.24,2.24 24.71,4.27 6.94,2.58 12.96,7.44 15.12,14.95 2.57,8.9 1.15,46.76 1.15,59.05l20.97 0 -0.02 -57.44c13.54,0 26.12,3.02 33.5,9.36 8.68,7.45 7.55,20.94 7.55,35.32 0,51.06 -3.72,102.91 -22.46,149.91 -4.31,10.82 -7.82,20.2 -10.84,31.94 -2.15,8.37 -6.71,27.55 -6.81,36.98l-165.94 0.27c0,-60.04 -29.86,-119.76 -65.36,-161.07 -9.47,-11.02 -17.29,-19.88 -26.97,-29.53 -12.72,-12.68 -14.95,-28.76 -0.7,-35.83 14.28,-7.08 28.84,6.86 36.53,16.43 6.63,8.25 15.43,26.05 15.47,41.04l20.97 0.24 0 -174.38z"/>
   <path class="fil0" d="M98.46 36.67c1.79,2.89 6.23,4.63 9.51,6.53 4,2.32 7.44,4.34 11.14,6.16 0.05,-8.64 0.09,-14.4 3.72,-19.96 3.07,-4.71 8.25,-8.47 16.35,-8.48 15.41,-0.02 21.41,11.72 20.71,27.35 3.42,-0.49 6.89,-3.19 10.34,-5.18 3.07,-1.77 8,-3.74 9.98,-6.47 -0.47,-10.63 -7.07,-20.49 -12.53,-25.78 -6.58,-6.39 -15.52,-10.87 -28.5,-10.85 -23.86,0.03 -36.19,15.11 -40.72,36.67z"/>
   <path class="fil0" d="M181.15 81.84l-0.17 -20.15c-3.84,-0.5 -7.31,2.53 -10.67,4.22 -3.74,1.88 -6.19,3.49 -10.15,4.94 2.2,2.88 18.12,10.95 20.99,10.99z"/>
   <path class="fil0" d="M98.16 81.45l18.52 -9.76c0.09,-0.08 0.3,-0.27 0.44,-0.42 -3.05,-2.27 -15.64,-9.19 -18.96,-10.03l0 20.2z"/>
   <path class="fil0" d="M98.16 105.54l0.05 12.26c4.82,-2.4 19.15,-17.23 19.97,-23.69 -3.13,1.44 -18.41,9.08 -20.02,11.43z"/>
   <path class="fil0" d="M180.99 115.45l0.17 -10.3c-2.37,-2.27 -16.09,-9.85 -20.09,-11.07 2.08,5.07 9.55,13.63 13.61,17.41 3.94,3.67 3.36,3.93 6.31,3.96z"/>
   <path class="fil0" d="M180.97 61.7c2.79,-3.88 15.64,-9.04 19.88,-10.81 23.94,-9.99 56.26,-10.19 55.99,21.29 -0.17,19.64 -12.96,27.92 -32.9,26.66 -9.51,-0.61 -16.58,-3.54 -23.71,-6.56 -4.73,-2.01 -15.98,-7.1 -19.08,-10.43 -2.87,-0.04 -18.78,-8.11 -20.99,-10.99 3.96,-1.45 6.4,-3.06 10.15,-4.94 3.35,-1.68 6.82,-4.72 10.67,-4.22zm-82.82 19.75c-8.5,5.36 -29.33,15.09 -41.91,15.43 -39.68,1.06 -36.98,-34.71 -22.58,-45.39 4.65,-3.45 14.58,-6.25 22.51,-5.73 15.67,1.04 30.45,9.22 41.98,15.49 3.32,0.84 15.92,7.76 18.96,10.03 -0.14,0.15 -0.35,0.34 -0.44,0.42l-18.52 9.76zm82.05 -44.83c-1.98,2.73 -6.92,4.7 -9.98,6.47 -3.45,1.99 -6.92,4.69 -10.34,5.18 -1.55,1.37 -17.63,10.99 -20.27,11.48 -2.66,0.5 -7.18,-3.01 -10.47,-4.82 -3.12,-1.71 -6.73,-3.94 -10.04,-5.57 -3.7,-1.82 -7.14,-3.84 -11.14,-6.16 -3.28,-1.9 -7.72,-3.63 -9.51,-6.53 -4.6,-1.19 -9.42,-4.53 -14.04,-6.39 -17.36,-6.97 -30.91,-9.73 -49.42,-3.93 -18.46,5.78 -34.65,21.59 -34.99,44.96 -0.34,23.45 16.41,39.41 34.54,45.33 33.05,10.79 52.9,-8.03 63.61,-11.11 1.61,-2.36 16.89,-9.99 20.02,-11.43 -0.82,6.47 -15.15,21.29 -19.97,23.69 -26.22,18.45 -42.43,19.87 -48.36,23.68l5.22 33.18c7.49,-1.36 17.21,-6.07 23.25,-9.3 7.07,-3.77 13.43,-9.48 19.81,-12.83 1.8,-3.71 7.24,-7.03 10.29,-9.91 2.63,-2.48 7.64,-8.57 10.72,-10.26 2.81,-4.68 7.54,-9.77 10.93,-14.61 3.38,-4.83 6.2,-10.06 10.04,-15.39l2.65 2.69c6.37,9.4 8.27,14.05 17.34,24.78 4.03,2.8 13.87,15.7 28.37,26.16 6.99,5.04 26.91,16.83 37.35,18.29l1.69 -10.14c5.72,-31.32 9.5,-18.25 -22.8,-33.44 -4.9,-2.3 -8.09,-3.8 -12.53,-6.65l-8.21 -5.41c-2.61,-2.19 -1.05,-0.28 -2.95,-3.21 -2.95,-0.04 -2.37,-0.29 -6.31,-3.96 -4.06,-3.78 -11.53,-12.35 -13.61,-17.41 4,1.23 17.72,8.8 20.09,11.07 3.74,2.47 8.79,4.95 12.83,7.05 45.41,23.64 86.72,-1.12 86.67,-40.01 -0.04,-38.37 -37.87,-57.04 -70.86,-47.85 -14.77,4.11 -21.87,9.7 -29.61,12.29z"/>
  </g>
 </g>
</svg>
