<?xml version="1.0" encoding="UTF-8"?>
<!DOCTYPE svg PUBLIC "-//W3C//DTD SVG 1.1//EN" "http://www.w3.org/Graphics/SVG/1.1/DTD/svg11.dtd">
<!-- Creator: CorelDRAW 2018 (64 Bit Versión de evaluación) -->
<svg xmlns="http://www.w3.org/2000/svg" xml:space="preserve" width="25.2mm" height="25.6424mm" version="1.1" style="shape-rendering:geometricPrecision; text-rendering:geometricPrecision; image-rendering:optimizeQuality; fill-rule:evenodd; clip-rule:evenodd"
viewBox="0 0 363.84 370.23"
 xmlns:xlink="http://www.w3.org/1999/xlink">
 <defs>
  <style type="text/css">
   <![CDATA[
    .str0 {stroke:black;stroke-width:2.89;stroke-miterlimit:22.9256}
    .fil0 {fill:black}
   ]]>
  </style>
 </defs>
 <g id="Capa_x0020_1">
  <metadata id="CorelCorpID_0Corel-Layer"/>
  <g id="_2751232222352">
   <path class="fil0 str0" d="M217.06 325.66c0,-57.4 -11.23,-65.48 27.15,-65.48 14.84,0 33.94,29.07 19.51,40.25l-46.66 25.23zm12.98 -76.87c1.06,-4.4 51.47,-89.08 55.7,-93.93 6.16,1.45 17.63,9.53 24.59,13.64 8.56,5.07 15.03,9.02 23.33,13.4 -0.99,6.66 -34.45,60.16 -42.07,72.92 -5.45,9.13 -9.7,19.61 -15.43,21.31 -3.22,-15.87 -23.62,-34.31 -46.11,-27.35zm62.09 -103.61c1.68,-6.95 9.08,-18.26 14.51,-20.8 8.03,-3.75 17.87,4.48 23.87,7.96 29.83,17.28 21.36,18.38 11.13,39.99 -9.4,-1.4 -35.36,-21.55 -49.51,-27.15zm-279.5 -54.3c0,-13.1 22.34,-8.6 48.53,-8.6 0.06,6.41 0.37,13.39 7.37,13.39l156.52 0c6.83,0 6.55,-5.57 6.59,-12.58l6.19 -0.81c51.95,0 42.92,-9.43 42.92,53.32 0,9.31 -76.46,125.02 -76.46,137.35 0,87.33 -8.33,75.87 44.72,49.51 31.8,-15.8 21.64,-12.05 31.79,-25.35l0.16 52.5c0,6.26 -4.47,7 -11.18,7l-247.56 0c-8.52,0 -9.58,-3.71 -9.58,-11.79l0 -253.95zm91.04 -36.74c6.94,0 6.58,-6.05 8.04,-12.71 7.09,-32.53 48.52,-34.71 63.81,-14.48 21.09,27.89 -13.46,27.19 44.74,27.19l0 28.75 -146.94 0 0 -28.75 30.35 0zm172.49 314.64c12.49,0 16.17,-9.7 16.22,-22.3 0.05,-13.77 -2.35,-65.07 2.44,-74 11.13,-20.73 67.59,-107.02 67.59,-119.32 0,-16.92 -6.73,-19.66 -19.21,-27.1 -25.27,-15.08 -30.12,-20.52 -51.07,-6.44 0,-61.45 -1.2,-46.88 -60.49,-49.72 0,-4.74 0.11,-9.53 0.1,-14.25 -0.01,-5.42 0.27,-10.96 -4.79,-12.87 -2.7,-1.02 -0.38,-0.45 -3.68,-0.82l-28.56 0.01c-2.37,-6.96 -2,-9.39 -6.27,-16.65 -7.81,-13.3 -23.37,-23.89 -40.05,-23.89 -27.84,0 -42.22,16.03 -48.9,40.54 -8.21,0 -16.45,-0.1 -24.65,-0.08 -16.33,0.03 -13.68,2.65 -13.68,28.22 -14.58,0 -29.16,0 -43.74,0l1.6 0c-9.74,0 -17.57,8.03 -17.57,19.17l0 263.53c0,8.09 8.3,15.97 15.97,15.97l258.74 0z"/>
   <path class="fil0 str0" d="M47.76 265.18l55.9 0 2.08 -0 0.13 54.1 -57.19 0 -0.92 -54.1zm-11.18 -4.99l0 65.48c0,3.74 2.65,6.39 6.39,6.39l68.68 0c3.74,0 6.39,-2.65 6.39,-6.39l0 -65.48c0,-3.74 -2.65,-6.39 -6.39,-6.39l-68.68 0c-3.74,0 -6.39,2.65 -6.39,6.39z"/>
   <path class="fil0 str0" d="M49.36 135.6l56.41 -0 0.28 54.92 -57.36 0 0.66 -54.92zm-12.78 -4.79l0 65.48c0,3.74 2.65,6.39 6.39,6.39l68.68 0c3.74,0 6.39,-2.65 6.39,-6.39l0 -65.48c0,-3.74 -2.65,-6.39 -6.39,-6.39l-68.68 0c-4.06,0 -6.39,2.46 -6.39,6.39z"/>
   <path class="fil0 str0" d="M146.79 148.38l102.22 0c12.91,0 9.17,-11.18 3.19,-11.18l-108.61 0c-6.14,0 -8.63,11.18 3.2,11.18z"/>
   <path class="fil0 str0" d="M138.8 39.16c2.51,-3.07 3.07,-5.78 7.99,-5.78 20.64,0 -2.44,29.46 -7.99,5.78zm-11.18 0.61c0,14.05 6.72,20.76 20.76,20.76 17.17,0 23.3,-22.06 12.36,-33.17 -11.54,-11.73 -33.12,-4.05 -33.12,12.41z"/>
   <path class="fil0 str0" d="M138.8 183.52c0,3.75 2.64,6.39 6.39,6.39l75.07 0c5.86,0 13.21,-11.72 -4.79,-11.72l-65.08 0c-6.37,0 -11.58,-0.73 -11.58,5.34z"/>
   <path class="fil0 str0" d="M138.8 312.89c0,5.22 4,6.39 9.58,6.39l41.53 0c13.46,0 13.22,-12.78 0,-12.78l-41.53 0c-5.55,0 -9.58,1.26 -9.58,6.39z"/>
   <path class="fil0 str0" d="M55.75 288.93c-4.19,8.61 2,13.77 7.65,18.07 8.84,6.73 12.67,-0.74 17.51,-5.68 3.68,-3.76 19.69,-17.68 20.1,-22.36 1.78,-20.16 -30.88,16.26 -30.88,16.26 -5.61,-3.52 -6.05,-8.41 -14.37,-6.29z"/>
   <path class="fil0 str0" d="M70.12 164.35c-3.4,-2.27 -5.99,-7.01 -10.02,-7.59 -7.61,-1.09 -9.87,4.35 0.8,15.22 10.43,10.63 8.46,8.71 26.6,-9.43 5.73,-5.73 10.71,-9.02 13.96,-16.76 -3.21,-4.61 -0.89,-2.38 -5.78,-5.4 -7.76,3.67 -20.99,17.15 -25.55,23.96z"/>
   <path class="fil0 str0" d="M146.79 277.75l44.72 0c11.81,0 10.63,-11.18 0,-11.18l-44.72 0c-11.79,0 -10.59,11.18 0,11.18z"/>
  </g>
 </g>
</svg>
