<?xml version="1.0" encoding="UTF-8"?>
<!DOCTYPE svg PUBLIC "-//W3C//DTD SVG 1.1//EN" "http://www.w3.org/Graphics/SVG/1.1/DTD/svg11.dtd">
<!-- Creator: CorelDRAW 2018 (64 Bit Versión de evaluación) -->
<svg xmlns="http://www.w3.org/2000/svg" xml:space="preserve" width="24.4264mm" height="26.4mm" version="1.1" style="shape-rendering:geometricPrecision; text-rendering:geometricPrecision; image-rendering:optimizeQuality; fill-rule:evenodd; clip-rule:evenodd"
viewBox="0 0 273.88 296.01"
 xmlns:xlink="http://www.w3.org/1999/xlink">
 <defs>
  <style type="text/css">
   <![CDATA[
    .str2 {stroke:#373435;stroke-width:2.24;stroke-miterlimit:22.9256}
    .str1 {stroke:#201E1E;stroke-width:2.24;stroke-miterlimit:22.9256}
    .str0 {stroke:#201E1E;stroke-width:11.21;stroke-linecap:round;stroke-linejoin:round;stroke-miterlimit:22.9256}
    .fil0 {fill:none}
    .fil1 {fill:none;fill-rule:nonzero}
    .fil3 {fill:#FEFEFE}
    .fil2 {fill:#201E1E}
   ]]>
  </style>
 </defs>
 <g id="Capa_x0020_1">
  <metadata id="CorelCorpID_0Corel-Layer"/>
  <path class="fil0 str0" d="M268.27 56.13l-0.09 209.74c-0,13.49 -11.04,24.53 -24.53,24.53l-174.93 0c-13.49,0 -24.53,-11.04 -24.53,-24.53l0 -14.02m0 -159.83l0 -61.9c0,-13.49 11.04,-24.53 24.53,-24.53l149.11 0.09"/>
  <path class="fil1 str0" d="M217.84 5.7l50.43 50.43 -28.01 0c-12.35,0 -22.42,-10.07 -22.42,-22.42l0 -28.01z"/>
  <path class="fil2 str1" d="M28.5 111.19l172.18 0c15.06,0 27.38,12.32 27.38,27.38l0 65.5c0,15.06 -12.32,27.38 -27.38,27.38l-172.18 0c-15.06,0 -27.38,-12.32 -27.38,-27.38l0 -65.5c0,-15.06 12.32,-27.38 27.38,-27.38zm32.34 98.79c-4.43,0 -6.65,-2.39 -6.65,-7.16l0 -63.11c0,-4.7 2.25,-7.05 6.75,-7.05l25.03 0c8.03,0 14.23,2.01 18.59,6.02 4.36,4.01 6.54,9.63 6.54,16.86 0,5.71 -1.42,10.43 -4.26,14.15 -2.84,3.72 -6.93,6.24 -12.26,7.54 3.53,1.16 6.44,3.94 8.73,8.35l7.79 15.07c1.18,2.31 1.4,4.45 0.67,6.4 -0.73,1.95 -2.51,2.93 -5.35,2.93 -1.87,0 -3.39,-0.42 -4.57,-1.25 -1.18,-0.83 -2.22,-2.11 -3.12,-3.85l-10.49 -20.17c-1.25,-2.46 -2.72,-4.1 -4.42,-4.93 -1.7,-0.83 -3.86,-1.25 -6.49,-1.25l-9.87 0 0 24.29c0,4.77 -2.22,7.16 -6.65,7.16zm6.65 -41.75l16.2 0c9.7,0 14.54,-4.12 14.54,-12.36 0,-8.17 -4.85,-12.25 -14.54,-12.25l-16.2 0 0 24.61zm65.02 40.88c-4.71,0 -7.06,-2.46 -7.06,-7.37l0 -61.7c0,-4.92 2.35,-7.37 7.06,-7.37l37.08 0c3.6,0 5.4,1.81 5.4,5.42 0,3.76 -1.8,5.64 -5.4,5.64l-31.37 0 0 21.04 29.08 0c3.6,0 5.4,1.84 5.4,5.53 0,3.69 -1.8,5.53 -5.4,5.53l-29.08 0 0 22.23 31.37 0c3.6,0 5.4,1.84 5.4,5.53 0,3.69 -1.8,5.53 -5.4,5.53l-37.08 0z"/>
  <path class="fil3" d="M67.49 168.24l0 -24.61 16.2 0c9.7,0 14.54,4.08 14.54,12.25 0,8.24 -4.85,12.36 -14.54,12.36l-16.2 0zm37.08 -29.55c-4.36,-4.01 -10.56,-6.02 -18.59,-6.02l-25.03 0c-4.5,0 -6.75,2.35 -6.75,7.05l0 63.11c0,4.77 2.22,7.16 6.65,7.16 4.43,0 6.65,-2.39 6.65,-7.16l0 -24.29 9.87 0c2.63,0 4.8,0.42 6.49,1.25 1.7,0.83 3.17,2.48 4.42,4.93l10.49 20.17c0.9,1.74 1.94,3.02 3.12,3.85 1.18,0.83 2.7,1.25 4.57,1.25 2.84,0 4.62,-0.98 5.35,-2.93 0.73,-1.95 0.5,-4.08 -0.67,-6.4l-7.79 -15.07c-2.29,-4.41 -5.19,-7.19 -8.73,-8.35 5.33,-1.3 9.42,-3.81 12.26,-7.54 2.84,-3.72 4.26,-8.44 4.26,-14.15 0,-7.23 -2.18,-12.85 -6.54,-16.86z"/>
  <path class="fil3 str2" d="M125.45 140.04l0 61.7c0,4.92 2.35,7.37 7.06,7.37l37.08 0c3.6,0 5.4,-1.84 5.4,-5.53 0,-3.69 -1.8,-5.53 -5.4,-5.53l-31.37 0 0 -22.23 29.08 0c3.6,0 5.4,-1.84 5.4,-5.53 0,-3.69 -1.8,-5.53 -5.4,-5.53l-29.08 0 0 -21.04 31.37 0c3.6,0 5.4,-1.88 5.4,-5.64 0,-3.61 -1.8,-5.42 -5.4,-5.42l-37.08 0c-4.71,0 -7.06,2.46 -7.06,7.37z"/>
 </g>
</svg>
