<?xml version="1.0" encoding="UTF-8"?>
<!DOCTYPE svg PUBLIC "-//W3C//DTD SVG 1.1//EN" "http://www.w3.org/Graphics/SVG/1.1/DTD/svg11.dtd">
<!-- Creator: CorelDRAW 2018 (64 Bit Versión de evaluación) -->
<svg xmlns="http://www.w3.org/2000/svg" xml:space="preserve" width="26mm" height="27.8296mm" version="1.1" style="shape-rendering:geometricPrecision; text-rendering:geometricPrecision; image-rendering:optimizeQuality; fill-rule:evenodd; clip-rule:evenodd"
viewBox="0 0 390.85 418.35"
 xmlns:xlink="http://www.w3.org/1999/xlink">
 <defs>
  <style type="text/css">
   <![CDATA[
    .str0 {stroke:#201E1E;stroke-width:15.03;stroke-miterlimit:22.9256}
    .str1 {stroke:black;stroke-width:7.52;stroke-miterlimit:22.9256}
    .fil0 {fill:none}
    .fil1 {fill:#201E1E}
   ]]>
  </style>
 </defs>
 <g id="Capa_x0020_1">
  <metadata id="CorelCorpID_0Corel-Layer"/>
  <rect class="fil0 str0" x="7.52" y="7.52" width="375.81" height="403.32" rx="34.54" ry="47.97"/>
  <path class="fil1" d="M209.46 293.37c7.15,1.28 14.12,4.62 14.49,11.81 0.42,8.1 -6.83,11.3 -14.53,11.71l0.04 -23.52zm-20.33 -42.13c-20.48,-2.98 -19.39,-22.59 -0.03,-23.02l0.03 23.02zm-1.17 -55.03c-60.2,4.31 -63.4,60.28 -35.05,79.77 4.81,3.31 10.42,5.88 16.61,8.14 5.54,2.02 14.82,3.8 19.39,5.87l-0.03 25.52c-7.86,-0.02 -23.86,-7.21 -31.18,-11.63 -2.76,-1.67 -6.48,-4.52 -9.22,-5.6l-19.62 28.48c5.23,4.84 18.42,11.34 26.06,14.08 18.03,6.46 19.98,4.6 32.6,7.92l0.08 21.53 22.47 -0.04 0.35 -21.24c15.74,-2.6 25.91,-4.75 36.28,-13.27 19.77,-16.25 21.56,-50.5 -1.79,-66.75 -4.71,-3.28 -10.38,-5.99 -16.42,-8.29 -5.14,-1.95 -14.54,-3.8 -18.74,-5.78l-0 -24.5c10.53,0.39 21.28,8.6 28.85,12.33 0.88,-0.82 0.53,-0.39 1.43,-1.63 0.62,-0.84 0.63,-0.97 1.13,-1.78 0.84,-1.36 1.56,-2.52 2.21,-3.59 1.69,-2.74 2.73,-4.61 4.38,-7.25 2.93,-4.69 5.76,-9.88 8.84,-14.17 -6.28,-8.14 -32.85,-16.25 -45.72,-17.46l-0.12 -12.85 -22.73 -0.2 -0.07 12.39z"/>
  <path class="fil1 str1" d="M95.57 100.54c54.09,3.43 115.82,-3.96 168.9,0.84 26.04,2.35 43.44,15.49 52.1,32.68 6.74,13.37 8.05,39.74 4.86,56.37 -2.05,10.68 -13.82,14.82 -13.63,-8.85 -1.94,-35.81 4.48,-49.46 -42.15,-64.28 -15.77,-3.04 -143.07,-0.6 -170.6,-0.73 14.97,17.56 45.94,39.82 36.9,48 -7.12,3.84 -9.81,0.49 -13.69,-3.66l-31.79 -30.56c-26.77,-25.55 -23.61,-20.87 1.55,-46 12.48,-12.47 39.24,-46.08 45.38,-30.1 3.07,7.98 -12.65,20.05 -16.72,24.13 -6.08,6.09 -17,15.7 -21.13,22.18z"/>
 </g>
</svg>
