<?xml version="1.0" encoding="UTF-8"?>
<!DOCTYPE svg PUBLIC "-//W3C//DTD SVG 1.1//EN" "http://www.w3.org/Graphics/SVG/1.1/DTD/svg11.dtd">
<!-- Creator: CorelDRAW 2018 (64 Bit Versión de evaluación) -->
<svg xmlns="http://www.w3.org/2000/svg" xml:space="preserve" width="24.8496mm" height="25.1267mm" version="1.1" style="shape-rendering:geometricPrecision; text-rendering:geometricPrecision; image-rendering:optimizeQuality; fill-rule:evenodd; clip-rule:evenodd"
viewBox="0 0 1260.65 1274.7"
 xmlns:xlink="http://www.w3.org/1999/xlink">
 <defs>
  <style type="text/css">
   <![CDATA[
    .str0 {stroke:#FEFEFE;stroke-width:38.05;stroke-miterlimit:22.9256}
    .str1 {stroke:#FEFEFE;stroke-width:38.05;stroke-linecap:round;stroke-miterlimit:22.9256}
    .fil0 {fill:none}
    .fil1 {fill:#FEFEFE}
   ]]>
  </style>
 </defs>
 <g id="Capa_x0020_1">
  <metadata id="CorelCorpID_0Corel-Layer"/>
  <g id="_2243736726320">
   <path class="fil0 str0" d="M845.02 856.3l0 -59.76c0,-7.58 8.87,-13.78 12.31,-13.78l158.14 0c3.44,0 11.61,6.19 11.61,13.78l0 59.76"/>
   <path class="fil0 str0" d="M875.76 1052.72l120.59 0c5.49,0 9.98,5.45 9.98,12.13l0 58.93c0,6.68 -4.49,12.13 -9.98,12.13l-120.59 0c-5.49,0 -9.97,-5.46 -9.97,-12.13l0 -58.93c0,-6.68 4.48,-12.13 9.97,-12.13z"/>
   <path class="fil0 str0" d="M1220.63 1090.66l0 129.92c0,19.31 -15.59,35.1 -34.64,35.1l-499.85 0c-19.05,0 -34.64,-15.79 -34.64,-35.1l0 -126.99"/>
   <path class="fil0 str0" d="M865.79 1097l-200.23 0c-19.29,0 -35.07,-15.8 -35.07,-35.1l0 -170.5c0,-19.3 15.78,-35.1 35.07,-35.1l541 0c19.29,0 35.07,15.8 35.07,35.1l0 170.5c0,19.3 -15.78,35.1 -35.07,35.1l-200.23 0"/>
   <path class="fil0 str0" d="M54.2 544.61l123.32 0c19.35,0 35.18,15.83 35.18,35.18l0 440.54 -193.67 0 0 -440.54c0,-19.35 15.83,-35.18 35.18,-35.18z"/>
   <polyline class="fil0 str1" points="465.51,543.84 465.51,1020.32 271.84,1020.32 271.84,564.3 "/>
   <path class="fil0 str1" d="M558.74 1020.32l-34.09 0 0 -529.05m78.42 -119.66l80.08 0c19.34,0 35.17,15.85 35.17,35.18l0 375.8"/>
   <path class="fil0 str1" d="M777.47 732.04l0 -411.74c0,-19.35 15.83,-35.18 35.18,-35.18l123.32 0c19.35,0 35.18,15.84 35.18,35.18l0 342.57"/>
   <path class="fil1" d="M337.24 281.9c13.44,2.4 26.54,8.68 27.24,22.19 0.79,15.22 -12.83,21.24 -27.31,22.01l0.08 -44.2zm-38.22 -79.21c-38.49,-5.61 -36.45,-42.46 -0.05,-43.27l0.05 43.27zm-2.21 -103.44c-113.15,8.1 -119.17,113.32 -65.88,149.95 9.05,6.22 19.58,11.05 31.22,15.3 10.42,3.79 27.87,7.15 36.46,11.03l-0.06 47.97c-14.78,-0.04 -44.86,-13.54 -58.61,-21.85 -5.19,-3.15 -12.18,-8.5 -17.33,-10.52l-36.88 53.53c9.82,9.1 34.61,21.31 48.99,26.46 33.89,12.15 37.56,8.65 61.28,14.88l0.15 40.48 42.24 -0.07 0.66 -39.93c29.59,-4.88 48.72,-8.93 68.19,-24.93 37.16,-30.55 40.54,-94.93 -3.36,-125.47 -8.85,-6.16 -19.51,-11.27 -30.86,-15.58 -9.65,-3.67 -27.33,-7.14 -35.23,-10.87l-0.01 -46.05c19.81,0.73 40,16.17 54.23,23.17 1.66,-1.55 0.99,-0.73 2.69,-3.07 1.16,-1.59 1.18,-1.83 2.12,-3.35 1.58,-2.57 2.93,-4.74 4.17,-6.74 3.17,-5.15 5.13,-8.67 8.24,-13.63 5.51,-8.81 10.82,-18.57 16.62,-26.64 -11.82,-15.31 -61.75,-30.54 -85.95,-32.82l-0.23 -24.14 -42.73 -0.38 -0.13 23.3z"/>
   <ellipse class="fil0 str0" cx="310.86" cy="251.22" rx="227.35" ry="232.19"/>
  </g>
 </g>
</svg>
