<?xml version="1.0" encoding="UTF-8"?>
<!DOCTYPE svg PUBLIC "-//W3C//DTD SVG 1.1//EN" "http://www.w3.org/Graphics/SVG/1.1/DTD/svg11.dtd">
<!-- Creator: CorelDRAW 2018 (64 Bit Versión de evaluación) -->
<svg xmlns="http://www.w3.org/2000/svg" xml:space="preserve" width="36.4208mm" height="36.831mm" version="1.1" style="shape-rendering:geometricPrecision; text-rendering:geometricPrecision; image-rendering:optimizeQuality; fill-rule:evenodd; clip-rule:evenodd"
viewBox="0 0 735.89 744.18"
 xmlns:xlink="http://www.w3.org/1999/xlink">
 <defs>
  <style type="text/css">
   <![CDATA[
    .str0 {stroke:#373435;stroke-width:15.15;stroke-miterlimit:22.9256}
    .str1 {stroke:#373435;stroke-width:15.15;stroke-linecap:round;stroke-miterlimit:22.9256}
    .fil0 {fill:none}
    .fil1 {fill:black}
   ]]>
  </style>
 </defs>
 <g id="Capa_x0020_1">
  <metadata id="CorelCorpID_0Corel-Layer"/>
  <g id="_2672589999376">
   <path class="fil0 str0" d="M494.51 501.16l0 -35.23c0,-4.47 5.23,-8.12 7.26,-8.12l93.23 0c2.03,0 6.84,3.65 6.84,8.12l0 35.23"/>
   <path class="fil0 str0" d="M512.63 616.95l71.09 0c3.24,0 5.88,3.22 5.88,7.15l0 34.74c0,3.94 -2.64,7.15 -5.88,7.15l-71.09 0c-3.24,0 -5.88,-3.21 -5.88,-7.15l0 -34.74c0,-3.93 2.64,-7.15 5.88,-7.15z"/>
   <path class="fil0 str0" d="M715.93 639.32l0 76.59c0,11.38 -9.19,20.69 -20.42,20.69l-294.67 0c-11.23,0 -20.42,-9.31 -20.42,-20.69l0 -74.86"/>
   <path class="fil0 str0" d="M506.75 643.05l-118.04 0c-11.37,0 -20.67,-9.31 -20.67,-20.69l0 -100.51c0,-11.38 9.3,-20.69 20.67,-20.69l318.93 0c11.37,0 20.67,9.31 20.67,20.69l0 100.51c0,11.38 -9.3,20.69 -20.67,20.69l-118.04 0"/>
   <path class="fil0 str0" d="M28.31 317.41l72.7 0c11.41,0 20.74,9.33 20.74,20.74l0 259.71 -114.17 0 0 -259.71c0,-11.41 9.33,-20.74 20.74,-20.74z"/>
   <polyline class="fil0 str1" points="270.79,316.96 270.79,597.86 156.61,597.86 156.61,329.02 "/>
   <path class="fil0 str1" d="M325.74 597.86l-20.09 0 0 -311.88m46.23 -70.54l47.21 0c11.41,0 20.74,9.34 20.74,20.74l0 221.54"/>
   <path class="fil0 str1" d="M454.69 427.91l0 -242.73c0,-11.41 9.33,-20.74 20.74,-20.74l72.7 0c11.41,0 20.74,9.34 20.74,20.74l0 201.95"/>
   <path class="fil1" d="M195.17 162.54c7.92,1.42 15.64,5.12 16.06,13.08 0.47,8.98 -7.56,12.52 -16.1,12.97l0.05 -26.06zm-22.53 -46.69c-22.69,-3.31 -21.48,-25.03 -0.03,-25.51l0.03 25.51zm-1.3 -60.98c-66.71,4.77 -70.26,66.8 -38.84,88.39 5.33,3.67 11.54,6.52 18.41,9.02 6.14,2.24 16.42,4.21 21.49,6.5l-0.04 28.28c-8.71,-0.02 -26.44,-7.98 -34.55,-12.88 -3.06,-1.85 -7.18,-5.01 -10.22,-6.2l-21.74 31.56c5.79,5.36 20.41,12.56 28.88,15.6 19.98,7.16 22.14,5.1 36.12,8.78l0.09 23.86 24.9 -0.04 0.39 -23.54c17.44,-2.88 28.72,-5.26 40.2,-14.7 21.91,-18.01 23.9,-55.96 -1.98,-73.97 -5.22,-3.63 -11.5,-6.64 -18.19,-9.19 -5.69,-2.17 -16.11,-4.21 -20.77,-6.41l-0 -27.15c11.67,0.43 23.58,9.53 31.97,13.66 0.98,-0.91 0.58,-0.43 1.59,-1.81 0.68,-0.94 0.69,-1.08 1.25,-1.97 0.93,-1.51 1.73,-2.79 2.45,-3.98 1.87,-3.04 3.02,-5.11 4.86,-8.04 3.25,-5.19 6.38,-10.95 9.8,-15.71 -6.96,-9.02 -36.4,-18 -50.67,-19.35l-0.13 -14.23 -25.19 -0.22 -0.07 13.74z"/>
   <ellipse class="fil0 str0" cx="179.62" cy="144.46" rx="134.03" ry="136.88"/>
  </g>
 </g>
</svg>
