<?xml version="1.0" encoding="UTF-8"?>
<!DOCTYPE svg PUBLIC "-//W3C//DTD SVG 1.1//EN" "http://www.w3.org/Graphics/SVG/1.1/DTD/svg11.dtd">
<!-- Creator: CorelDRAW 2018 (64 Bit Versión de evaluación) -->
<svg xmlns="http://www.w3.org/2000/svg" xml:space="preserve" width="24.3264mm" height="26.4mm" version="1.1" style="shape-rendering:geometricPrecision; text-rendering:geometricPrecision; image-rendering:optimizeQuality; fill-rule:evenodd; clip-rule:evenodd"
viewBox="0 0 1354.1 1469.52"
 xmlns:xlink="http://www.w3.org/1999/xlink">
 <defs>
  <style type="text/css">
   <![CDATA[
    .str0 {stroke:#FEFEFE;stroke-width:55.66;stroke-linecap:round;stroke-linejoin:round;stroke-miterlimit:22.9256}
    .fil0 {fill:none}
    .fil1 {fill:none;fill-rule:nonzero}
    .fil2 {fill:#FEFEFE}
   ]]>
  </style>
 </defs>
 <g id="Capa_x0020_1">
  <metadata id="CorelCorpID_0Corel-Layer"/>
  <path class="fil0 str0" d="M1326.27 278.66l-0.43 1041.27c-0.02,66.95 -54.81,121.76 -121.76,121.76l-868.43 0c-66.96,0 -121.76,-54.79 -121.76,-121.76l0 -69.58m0 -793.47l0 -307.29c0,-66.97 54.79,-121.8 121.76,-121.76l740.26 0.47"/>
  <path class="fil1 str0" d="M1075.9 28.3l250.36 250.36 -139.04 0c-61.31,0 -111.33,-50.01 -111.33,-111.33l0 -139.04z"/>
  <path class="fil2" d="M135.93 552.02l854.8 0c74.76,0 135.93,61.17 135.93,135.94l0 325.19c0,74.76 -61.17,135.93 -135.93,135.93l-854.8 0c-74.76,0 -135.93,-61.17 -135.93,-135.93l0 -325.19c0,-74.77 61.17,-135.94 135.93,-135.94zm254.3 485.91c-23.04,0 -45.47,-2.69 -67.29,-8.08 -21.84,-5.38 -40.83,-13.45 -56.99,-24.22 -7.91,-5.38 -12.72,-12.02 -14.44,-19.92 -1.72,-7.89 -1.11,-15.34 1.81,-22.34 2.92,-7 7.56,-11.85 13.92,-14.53 6.36,-2.69 13.67,-1.35 21.91,4.04 15.13,9.33 31.12,16.15 47.96,20.46 16.84,4.31 34.55,6.46 53.11,6.46 27.16,0 46.93,-4.75 59.3,-14.26 12.37,-9.51 18.56,-21.8 18.56,-36.88 0,-12.56 -4.39,-22.43 -13.15,-29.61 -8.77,-7.18 -23.8,-13.1 -45.12,-17.77l-56.72 -12.38c-64.64,-14.36 -96.95,-48.98 -96.95,-103.9 0,-23.68 6.02,-44.32 18.05,-61.91 12.03,-17.58 28.71,-31.22 50.02,-40.91 21.32,-9.69 45.9,-14.54 73.75,-14.54 20.62,0 40.22,2.69 58.79,8.08 18.56,5.38 35.24,13.28 50.03,23.68 6.87,5.03 11,11.22 12.37,18.57 1.37,7.35 0.51,14.17 -2.58,20.46 -3.09,6.28 -7.99,10.59 -14.7,12.92 -6.7,2.33 -14.52,0.81 -23.46,-4.58 -12.72,-7.54 -25.62,-12.92 -38.68,-16.15 -13.06,-3.23 -27.15,-4.84 -42.28,-4.84 -23.72,0 -42.29,5.2 -55.7,15.61 -13.4,10.4 -20.11,24.04 -20.11,40.91 0,12.92 4.12,23.23 12.37,30.95 8.25,7.72 22.35,13.73 42.29,18.04l56.2 12.39c34.04,7.53 59.39,19.38 76.06,35.52 16.68,16.15 25.02,37.68 25.02,64.6 0,22.61 -5.84,42.53 -17.54,59.75 -11.68,17.23 -28.27,30.6 -49.76,40.11 -21.49,9.51 -46.85,14.27 -76.06,14.27zm369.23 0c-37.82,0 -70.22,-7.98 -97.21,-23.95 -26.99,-15.98 -47.7,-38.58 -62.14,-67.83 -14.44,-29.25 -21.66,-63.79 -21.66,-103.63 0,-39.83 7.22,-74.29 21.66,-103.36 14.44,-29.07 35.16,-51.59 62.14,-67.56 26.99,-15.97 59.39,-23.96 97.21,-23.96 18.91,0 37.47,2.52 55.69,7.54 18.22,5.03 34.21,12.2 47.96,21.54 8.94,6.1 14.27,13.36 15.99,21.8 1.72,8.44 0.68,16.15 -3.09,23.15 -3.78,7 -9.45,11.66 -17.02,13.99 -7.56,2.34 -15.98,0.27 -25.27,-6.19 -10.66,-7.18 -22.18,-12.38 -34.56,-15.61 -12.37,-3.23 -24.92,-4.85 -37.65,-4.85 -36.78,0 -64.8,11.58 -84.05,34.72 -19.25,23.15 -28.88,56.08 -28.88,98.78 0,42.71 9.62,75.72 28.88,99.05 19.25,23.33 47.27,34.99 84.05,34.99 13.06,0 25.96,-1.7 38.68,-5.12 12.72,-3.41 24.75,-8.7 36.09,-15.88 9.28,-6.1 17.53,-8.07 24.75,-5.92 7.22,2.15 12.64,6.55 16.25,13.19 3.61,6.64 4.73,13.9 3.35,21.8 -1.37,7.89 -6.02,14.89 -13.93,20.99 -13.75,10.41 -30.16,18.4 -49.25,23.96 -19.08,5.56 -38.41,8.34 -58.01,8.34z"/>
 </g>
</svg>
