<?xml version="1.0" encoding="UTF-8"?>
<!DOCTYPE svg PUBLIC "-//W3C//DTD SVG 1.1//EN" "http://www.w3.org/Graphics/SVG/1.1/DTD/svg11.dtd">
<!-- Creator: CorelDRAW 2018 (64 Bit Versión de evaluación) -->
<svg xmlns="http://www.w3.org/2000/svg" xml:space="preserve" width="23.4985mm" height="28.6987mm" version="1.1" style="shape-rendering:geometricPrecision; text-rendering:geometricPrecision; image-rendering:optimizeQuality; fill-rule:evenodd; clip-rule:evenodd"
viewBox="0 0 339.57 414.72"
 xmlns:xlink="http://www.w3.org/1999/xlink">
 <defs>
  <style type="text/css">
   <![CDATA[
    .str1 {stroke:#201E1E;stroke-width:10.84;stroke-miterlimit:22.9256}
    .str0 {stroke:black;stroke-width:10.84;stroke-miterlimit:22.9256}
    .fil0 {fill:none}
    .fil1 {fill:black}
   ]]>
  </style>
 </defs>
 <g id="Capa_x0020_1">
  <metadata id="CorelCorpID_0Corel-Layer"/>
  <g id="_2211764316272">
   <path class="fil0 str0" d="M159.58 287.42l14.86 -0.07c0.38,4.2 1.09,8.09 2.44,11.11 9.51,16.7 37.92,19.61 49.61,-0.79 1.57,-2.53 2.78,-6.4 3.78,-10.72l17.2 0.19c14.47,0.17 25.05,-1.03 37.02,5.2 12.95,4.9 23.24,14.24 30.08,23.33 15.23,20.22 12.93,42.41 12.93,66.93 0,8.36 1.62,20.64 -3.67,22.71 -2.64,1.03 -136.74,0.28 -159.13,0.39 -14.94,0.08 -39.53,-0.63 -52.9,0.06 1.58,-5.52 3.29,-9.02 2.64,-15.97 -0.5,-5.32 -0.31,-11.65 -0.31,-17.39 0,-8.91 -1.23,-27.62 0.78,-34.71 1.14,-4.01 5.77,-6.45 8.18,-9.62 2.52,-3.33 4.88,-6.56 7.09,-10.73l6.12 -29.72 23.27 -0.18z"/>
   <path class="fil1" d="M164.39 284.85l15.24 -0.12c-0.46,-7.33 0.13,-15.64 0.13,-22.13 13.87,1.85 18.14,4.24 34.91,1.8 3.03,-0.44 8.5,-1.94 10.76,-1.99 0,5.61 0.52,14.47 0.16,21.97l15.4 -0.12 -0.22 -27.63c8.87,-5.15 15.11,-7.93 23,-15.9l6.64 -6.62c2.06,-2.19 3.94,-4.46 5.92,-6.83 7.66,-9.17 10.89,-20.08 14.05,-25.76 4.32,0.71 5.23,1.09 10.28,0.56 3.89,-0.41 6.72,-0.87 10.16,-2.02 5.63,-1.88 11.96,-5.71 15.32,-9.14 9.57,-9.78 13.4,-17 13.43,-35.76 0.01,-8.28 -1.19,-13.85 -4.12,-20.08 -1.31,-2.79 -2.86,-5.13 -4.73,-7.5 -2.02,-2.57 -5.27,-5.3 -5.76,-6.43 -0.99,-2.26 -0.76,-8.45 -1.06,-11.37 -0.38,-3.67 -0.85,-7 -1.51,-10.47 -3.64,-19.3 -11.38,-36 -22.41,-50.62 -4.01,-5.31 -6.55,-8.14 -11.44,-13.03 -1.21,-1.21 -1.81,-1.91 -3.07,-3.02 -12.59,-11.08 -23.63,-19.13 -41.43,-25.41 -26.49,-9.34 -56.82,-9.84 -83.28,-0.02 -34.35,12.75 -60.38,38.5 -73.27,73.09 -7.21,19.37 -7.21,40.03 -7.56,40.9 -0.91,2.25 -14.94,10.17 -14.89,33.98 0.02,11.47 0.87,19.42 7.43,28.74 8.83,12.55 25.51,21.46 41.53,17.7 2.22,8.04 8.91,19.07 13.92,25.79 5.87,7.87 11.77,13.51 19.96,19.8 6.31,4.85 9.78,6.32 16.53,9.85l-0.02 27.82zm-8.11 -150.9c0.3,-0.36 0.27,-0.26 0.69,-1.02l2.38 -5.31c3.84,-7.08 6.55,-9.13 11.5,-14.5 3.3,-3.59 14.91,-13.37 19.43,-14.96 -4.32,4.81 -6.65,8.4 -9.68,15.02 -1.77,3.86 -5.41,14.8 -5.52,19.68 0.48,-0.45 0.31,-0.28 0.82,-0.87 6.96,-7.98 10.6,-12.1 20.61,-18.7 5.79,-3.82 20.82,-14.08 25.54,-15.14 3.97,3.37 3.2,10.14 0.6,14.27 -4.09,6.5 -7.25,8 -9.15,10.62 3.75,-0.43 15.01,-4.07 18.76,-5.61 8.92,-3.67 8.21,-4.01 14.77,-9 4.53,6.75 6.64,22.47 5.6,32.91 3.93,-0.79 10.69,-3.93 13.9,-5.93 4.27,-2.65 7.5,-4.71 8.75,-10.57 2.76,7.54 2.86,22.12 0.53,29.74 1.97,-0.76 3.28,-5.15 5.32,-6.51l0.02 17.3c0,3.59 -0.21,3.38 -2.22,5.38l-12.07 9.86c-5.84,4.36 -10.81,7.47 -17.58,11.48 -5.87,3.47 -13.21,6.52 -20.22,8.87 -20.24,6.79 -11.97,-0.17 -22.31,-0.17 -8.3,0 -14.01,6.59 -14.01,13.02 0,11.81 10.86,16.51 18.77,13.42 6.66,-2.61 2.61,-4.68 10.2,-6.18 15.21,-3.01 32.12,-10.5 44.88,-18.76l9.61 -6.46c-1.19,6.37 -7.54,16.29 -10.58,20.76 -7.83,11.49 -21.17,22.43 -34.29,27.92 -12.37,5.18 -20.08,5.88 -32.73,5.88 -16.18,0 -35.99,-8.84 -47.59,-20.09 -5.1,-4.95 -8.63,-7.86 -13.44,-15.1 -7.6,-11.43 -14.48,-28.03 -14.5,-42.69 -0.01,-5.82 -0.33,-17.62 0.2,-22.75 1.54,1.59 3.03,4.07 4.17,5.7 1.42,2.03 2.79,3.43 4.17,5.1l-0.47 -5.9c-0.83,-9.02 10.78,-34.75 15.44,-39.22 0.09,0.08 0.19,0.21 0.24,0.26l0.65 0.86c2.05,3.2 6.48,14.52 8.8,17.4zm-48.95 -22.62c-1.27,-2.73 2.34,-14.86 3.35,-18.1 3.17,-10.16 8.86,-21.22 15.37,-29.48 6.31,-8 14.21,-16.08 22.9,-21.47 15.4,-9.55 31.12,-16.16 50.67,-16.3 21.04,-0.16 36.5,4.4 53.11,14.35 2.37,1.42 4.6,2.92 6.71,4.52 1.98,1.49 4.36,3.26 6.01,4.7 7.67,6.73 14,14.36 20.03,24.34 3.7,6.12 11.75,24.44 11.37,32.67 -5.95,-20.26 -18.83,-34.1 -35.03,-43.19 -14.34,-8.05 -42.12,-17.99 -62.2,-16.43 -26.48,2.06 -47.2,9.34 -65.3,23.54 -8.82,6.92 -16.73,16.32 -21.35,27.1l-3.71 11.07c-0.53,2.38 0.15,2.28 -1.93,2.67z"/>
   <path class="fil0 str1" d="M79.82 269.44c0,16.35 2.36,35.11 -15.51,36.28 -15.38,1.01 -24.59,0.22 -27.39,-13.48 -1.12,-5.45 -1.05,-13.41 -0.98,-19.24 0.1,-8.48 -4.82,-8.41 -11.94,-6.63 -8.73,2.19 -18.57,11.8 -18.57,22.45 0,12.55 -0.28,19.83 8.14,30.85 4.72,6.18 9.96,7.52 13.27,16.8 3.66,10.26 2.7,43.74 2.73,57.4 0.01,7.42 2.1,15.43 11.28,15.43l23.93 0c10.06,0 18.67,0.71 22.66,-6.55 2.95,-5.36 1.04,-20.7 1.04,-27.74 0,-12.7 -1.55,-32.38 3.12,-42.55 0.88,-1.92 2.57,-4.23 3.56,-5.63 1.72,-2.42 3.1,-2.5 4.86,-4.31 5.97,-6.16 10.9,-16.39 10.9,-25.52 0,-6.77 0.53,-14.53 -1.97,-20.18 -0.87,-1.97 -1.88,-3.16 -2.97,-4.68 -6.23,-8.58 -26.16,-10.19 -26.16,-2.68z"/>
  </g>
 </g>
</svg>
