<?xml version="1.0" encoding="UTF-8"?>
<!DOCTYPE svg PUBLIC "-//W3C//DTD SVG 1.1//EN" "http://www.w3.org/Graphics/SVG/1.1/DTD/svg11.dtd">
<!-- Creator: CorelDRAW 2018 (64 Bit Versión de evaluación) -->
<svg xmlns="http://www.w3.org/2000/svg" xml:space="preserve" width="25mm" height="29.1619mm" version="1.1" style="shape-rendering:geometricPrecision; text-rendering:geometricPrecision; image-rendering:optimizeQuality; fill-rule:evenodd; clip-rule:evenodd"
viewBox="0 0 338.05 394.33"
 xmlns:xlink="http://www.w3.org/1999/xlink">
 <defs>
  <style type="text/css">
   <![CDATA[
    .fil0 {fill:black}
   ]]>
  </style>
 </defs>
 <g id="Capa_x0020_1">
  <metadata id="CorelCorpID_0Corel-Layer"/>
  <g id="_1417959879936">
   <path class="fil0" d="M16.24 306.41c5.38,-5.35 10.56,-10.6 16.02,-16.05 6.7,-6.69 12.88,-15.65 19.11,-11l48.14 48.05c16.25,16.28 21.66,17.3 12.14,26.79l-24.07 23.76c-2.7,-1.46 -14.91,-14.42 -18.09,-17.65 -6.06,-6.16 -11.79,-11.75 -17.86,-17.84 -4.7,-4.73 -34.19,-33.28 -35.39,-36.05zm50.25 -31c2.59,-3.87 10.16,-9.17 15.18,-12.25 39.58,-24.28 79.07,-15.65 118.8,-16.41 9.08,-0.18 18.02,-0.61 27.07,-0.89 4.9,-0.15 8.25,-0.19 11.7,2.31 5.46,3.94 6.62,13.22 0.15,18.36 -3.2,2.54 -6.49,2.57 -11.27,2.55 -6.97,-0.03 -51.16,-0.83 -54.3,0.97 -3.1,1.77 -4.14,6.11 -2.03,9.32 2.14,3.26 6.14,2.99 10.25,2.98 9.08,-0.03 48.84,0.58 54.44,-0.38 11.1,-1.9 19.09,-10.96 20.34,-21.04 0.96,-7.71 -1.6,-5.16 3.43,-9.82 4.89,-4.52 8.44,-8.46 13.87,-13.77l27.99 -27.31c13.31,-13.15 30.96,3.87 18.16,17.58 -7.32,7.84 -18.62,22.24 -25.62,29.67 -12.61,13.38 -25.85,33.28 -40.76,41.64 -15.98,8.96 -25.55,8.72 -45.93,8.72 -29.74,0 -59.85,-5 -82.57,13.65 -1.93,1.58 -5.53,5 -7.28,5.77 -3.17,-2.1 -33.72,-33.27 -38.98,-38.58 -3.21,-3.24 -10.31,-9.47 -12.64,-13.06zm60.75 61.39c6.34,-4.28 8.66,-8.36 18.69,-12.26 20.26,-7.87 63.67,-0.78 87.6,-4.59 16.76,-2.67 29.72,-9.61 41.24,-20.33 4.34,-4.04 24.83,-27.65 28.77,-32.28l28.6 -33.06c11.7,-13.87 4.69,-34.12 -9.55,-40.08 -18.55,-7.76 -29,5.55 -40.34,16.72l-31.1 30.14c-3.3,-2.19 -4.01,-4.11 -8.85,-6.3 -9,-4.07 -29.77,-1.39 -42.41,-1.26 -39.75,0.42 -67.49,-6.15 -107.77,9.59 -19.31,7.55 -23.46,13 -36.22,23.45 -16.32,-6.09 -24.52,6.14 -31.17,12.84 -27.62,27.83 -30.28,24.59 -16.99,37.85l58.75 58.75c4.07,4.07 7.75,7.75 11.8,11.8 3.39,3.39 8.01,10.34 14.42,3.93 8,-8.02 15.64,-15.58 23.6,-23.63 3.29,-3.32 8.79,-7.69 11.19,-12.42 4.13,-8.16 1.32,-11.8 -0.27,-18.86z"/>
   <path class="fil0" d="M180.26 122.12c5.67,1.01 11.19,3.66 11.48,9.36 0.33,6.42 -5.41,8.96 -11.52,9.28l0.03 -18.64zm-16.11 -33.39c-16.23,-2.36 -15.37,-17.9 -0.02,-18.24l0.02 18.24zm-0.93 -43.61c-47.71,3.41 -50.24,47.77 -27.78,63.22 3.82,2.62 8.26,4.66 13.17,6.45 4.39,1.6 11.75,3.01 15.37,4.65l-0.03 20.22c-6.23,-0.02 -18.91,-5.71 -24.71,-9.21 -2.19,-1.33 -5.14,-3.58 -7.31,-4.44l-15.55 22.57c4.14,3.83 14.6,8.98 20.66,11.16 14.29,5.12 15.83,3.65 25.83,6.28l0.06 17.06 17.81 -0.03 0.28 -16.83c12.47,-2.06 20.54,-3.76 28.75,-10.51 15.67,-12.88 17.09,-40.02 -1.42,-52.9 -3.73,-2.6 -8.23,-4.75 -13.01,-6.57 -4.07,-1.55 -11.52,-3.01 -14.85,-4.58l0 -19.41c8.35,0.31 16.86,6.82 22.86,9.77 0.7,-0.65 0.42,-0.31 1.14,-1.29 0.49,-0.67 0.49,-0.77 0.89,-1.41 0.67,-1.08 1.23,-2 1.76,-2.84 1.33,-2.17 2.16,-3.65 3.47,-5.75 2.33,-3.72 4.56,-7.83 7.01,-11.23 -4.98,-6.45 -26.03,-12.87 -36.23,-13.84l-0.1 -10.18 -18.01 -0.16 -0.05 9.82z"/>
   <path class="fil0" d="M165.77 208.82c-53.68,-0.44 -97.06,-44.05 -97.06,-97.79 0,-51.53 39.89,-93.75 90.5,-97.52 2.77,-0.27 5.58,-0.42 8.43,-0.46 47.13,-0.63 81.88,30.89 93.9,65.94 7.61,22.17 7.09,46.25 -1.42,67.74 -3.92,9.9 -9.02,18.09 -14.57,25.16 -10.26,13.09 -15.48,14.45 -20.2,19.27 -1.05,0.53 -8.12,4.74 -9.29,6.16 -1.67,-0.24 -0.81,-0.18 -0.86,0.31l-5.52 2.1 -2.31 1.48c-1.29,0.37 -2.1,0.52 -3.42,1.08 -0.43,0.19 -0.82,0.36 -1.21,0.58 -0.9,0.52 -0.47,0.26 -1.06,0.79 -5.46,0.13 -14.65,5.63 -35.79,5.15 -0.05,-0 -0.09,-0 -0.14,-0zm-109.45 -97.75c0,61.34 49.72,111.06 111.06,111.06 61.34,0 111.06,-49.72 111.06,-111.06 0,-61.34 -49.72,-111.06 -111.06,-111.06 -61.34,0 -111.06,49.72 -111.06,111.06z"/>
  </g>
 </g>
</svg>
