<?xml version="1.0" encoding="UTF-8"?>
<!DOCTYPE svg PUBLIC "-//W3C//DTD SVG 1.1//EN" "http://www.w3.org/Graphics/SVG/1.1/DTD/svg11.dtd">
<!-- Creator: CorelDRAW 2018 (64 Bit Versión de evaluación) -->
<svg xmlns="http://www.w3.org/2000/svg" xml:space="preserve" width="44.8057mm" height="26.0404mm" version="1.1" style="shape-rendering:geometricPrecision; text-rendering:geometricPrecision; image-rendering:optimizeQuality; fill-rule:evenodd; clip-rule:evenodd"
viewBox="0 0 1058.77 615.34"
 xmlns:xlink="http://www.w3.org/1999/xlink">
 <defs>
  <style type="text/css">
   <![CDATA[
    .fil0 {fill:black}
   ]]>
  </style>
 </defs>
 <g id="Capa_x0020_1">
  <metadata id="CorelCorpID_0Corel-Layer"/>
  <path class="fil0" d="M319.65 400.02c-4.18,-28.14 5.31,-70.4 13.32,-91.42 19.11,-50.2 53.33,-86.1 98.82,-111.21 99.1,-54.7 233.11,-12.34 283.4,87.75 13.56,26.99 19.64,46.07 23.65,81.21 9.84,86.22 -43.38,166.01 -111.45,202.53 -23.2,12.45 -47.55,20.24 -81.12,23.78 -77.41,8.17 -144.22,-32.7 -182.09,-79.88 -27.04,-33.69 -37.55,-65.83 -44.52,-112.74zm346.46 -206.62c11.08,2.18 36.75,11.02 48.2,15.14 15.44,5.56 29.93,11.95 45.69,18.64 49.44,20.97 119.89,63.19 161.24,96.09 12.49,9.94 65.79,50.33 68.96,59.68 0.36,6.98 -63.14,55.81 -68.59,60 -23.41,18.03 -50.69,36.37 -76.71,51.95 -27.27,16.33 -55.48,31.59 -84.66,44.12 -18.5,7.95 -80.99,34.2 -95.05,33.72l18.96 -15.43c47.5,-41.76 78.11,-103.78 78.92,-173.06 0.83,-70.51 -30.51,-129.11 -77.11,-173.61 -4.8,-4.58 -17.08,-12.76 -19.85,-17.24zm-370.38 189.55c0,83.26 39.49,143.63 97.86,189.75 -12.31,0.43 -79.45,-26.66 -94.13,-33.26 -71.25,-32.02 -138.04,-74.37 -197.31,-124.43 -6.41,-5.41 -11.83,-10.14 -17.67,-15.18 -22.25,-19.19 -23.95,-13.42 17.28,-48.08 82.72,-69.54 184.67,-129.5 291.91,-158.64 -3.94,4.57 -13.09,10.57 -18.75,15.6 -7.05,6.25 -12.03,11.63 -18.49,18.33 -35.55,36.83 -60.7,99.02 -60.7,155.91zm220.07 -231.7c-29.26,3.79 -41.07,1.4 -80.81,8.63 -44.8,8.15 -95.59,24.32 -136.34,42.24 -68.17,29.96 -110.03,56.45 -169.9,99.14 -29.97,21.37 -47.18,37.37 -73.46,60.44 -8.06,7.07 -13.61,19.58 -7.51,32.9 8.79,19.22 95.71,81.91 123.14,100.06 9.46,6.26 17.73,11.23 27.24,17.34 18.01,11.58 39.34,23.17 58.17,32.41 82.59,40.52 166.32,71.18 287.54,70.91 55.29,-0.13 106.55,-13.64 151.63,-26.87 99.02,-29.05 235.33,-112.14 308.19,-184.15 7.49,-7.4 13.63,-18.98 7.29,-33.02 -7.93,-17.55 -97.34,-83.19 -123.28,-99.82 -88.31,-56.63 -179.76,-100.22 -287.66,-115.38 -21.28,-2.99 -63.39,-7.55 -84.24,-4.85z"/>
  <path class="fil0" d="M559.67 307.77c48.34,-12.42 68.15,60.1 18.27,73.84 -22.8,6.28 -41.38,-11.19 -45.68,-27.78 -6.07,-23.4 9.58,-41.48 27.42,-46.06zm-22.38 -45.59c-26.05,0 -40.04,1.1 -63.91,13.55 -40.6,21.17 -65.24,60.92 -64.81,112.49 0.51,61.76 53.99,116.25 122.16,115.74 87.09,-0.65 142.86,-88.15 110.53,-167.16 -15.82,-38.65 -59.33,-74.63 -103.96,-74.63z"/>
  <path class="fil0" d="M0.55 193.91c1.69,7.39 58.86,57.52 70.24,67.35 4.7,4.06 9.82,9.7 14.57,13.08 14.42,10.28 32.95,-0.59 28.99,-18.42 -1.6,-7.21 -20.47,-22.67 -26.84,-28.31l-57.9 -52.46c-14.63,-10.72 -33.03,1.4 -29.05,18.76z"/>
  <path class="fil0" d="M1057.11 196.54c6.99,-15.37 -9.34,-32.02 -25.52,-22.98 -6.42,3.58 -84.4,75.37 -86.13,79.33 -7,16.07 10.03,32.04 25.59,23.04 5.55,-3.21 84.22,-75.36 86.05,-79.4z"/>
  <path class="fil0" d="M809.03 192.6c15.82,0 18.27,-10.53 25.02,-20.99 8.73,-13.53 51.13,-73.34 51.13,-84.03 0,-15.19 -21.08,-27.73 -34.58,-6.98 -8.15,12.54 -16.36,25.19 -24.41,37.26 -8.2,12.3 -16.26,24.66 -24.33,37.34 -3.96,6.23 -9.53,11.51 -8.69,21.61 0.64,7.75 7.79,15.78 15.86,15.78z"/>
  <path class="fil0" d="M173.64 87.58c0,8.95 10.95,22.32 15.34,29.24 6,9.46 11.78,17.89 17.6,27.04 5.92,9.31 11.46,17.52 17.66,26.95 5.82,8.85 9.61,21.78 24.23,21.78 8.74,0 15.49,-6.77 16.84,-13.39 2.2,-10.83 -3.8,-16.88 -7.8,-23.25l-48.75 -74.58c-14.34,-22.38 -35.11,-8.47 -35.11,6.21z"/>
  <path class="fil0" d="M416.42 0.49c-15.76,3.43 -17.47,13.17 -13.57,29.86 3.46,14.84 16.26,87.29 23.03,95.08 9.94,11.46 37.28,10.15 29.26,-23.97 -3.08,-13.08 -5.39,-26.21 -8.29,-39 -2.92,-12.87 -5.49,-25.52 -8.42,-38.78 -2.06,-9.3 -5.26,-26.83 -21.99,-23.18z"/>
  <path class="fil0" d="M637.46 0.8c-14.49,3.19 -14.26,8.86 -18.46,29.33l-16.75 77.84c-3.38,18.32 10.39,25.81 20.68,23.36 13.91,-3.31 14.38,-14.62 17.65,-29.72l16.87 -77.67c2.77,-14.61 -7.07,-25.99 -19.99,-23.14z"/>
 </g>
</svg>
